<svg preserveAspectRatio="xMidYMid meet" data-bbox="94.715 46.493 578.766 675.006" height="1024" viewBox="94.715 46.493 578.766 675.006" width="1024" xmlns="http://www.w3.org/2000/svg" data-type="color" role="presentation" aria-hidden="true" aria-label=""><defs><style>#comp-lj8bnt34 svg [data-color="1"] {fill: #0077B8;}</style></defs>
    <g>
        <defs>
            <clipPath id="9e9188aa-b50e-49b5-82ee-3cf31b030245_comp-lj8bnt34">
                <path d="M126 46.5h547.594v675H126Zm0 0"></path>
            </clipPath>
            <clipPath id="cf1abd1d-73b4-4501-9930-898b440e1b17_comp-lj8bnt34">
                <path d="M94.594 159H192v33H94.594Zm0 0"></path>
            </clipPath>
            <clipPath id="16a65d1c-3ce5-4d26-a63b-f5b26f9d685b_comp-lj8bnt34">
                <path d="M94.594 223H192v33H94.594Zm0 0"></path>
            </clipPath>
            <clipPath id="7c5efa47-67a3-464d-91ac-9236d21dcfd6_comp-lj8bnt34">
                <path d="M94.594 287H192v33H94.594Zm0 0"></path>
            </clipPath>
            <clipPath id="2aa2f7c0-6b1f-443b-becc-ad2ee233740c_comp-lj8bnt34">
                <path d="M94.594 351H192v33H94.594Zm0 0"></path>
            </clipPath>
            <clipPath id="c6183383-4dea-4481-aa8a-f17648a19374_comp-lj8bnt34">
                <path d="M94.594 416H192v33H94.594Zm0 0"></path>
            </clipPath>
            <clipPath id="0883192f-d855-4cbf-832f-1ad811f213eb_comp-lj8bnt34">
                <path d="M94.594 480H192v33H94.594Zm0 0"></path>
            </clipPath>
            <clipPath id="bf119337-bdc6-4643-a83f-40b3266eb0f9_comp-lj8bnt34">
                <path d="M94.594 544H192v33H94.594Zm0 0"></path>
            </clipPath>
            <clipPath id="d400ed56-d65a-4e85-9ef7-d5500f4825c5_comp-lj8bnt34">
                <path d="M94.594 609H192v33H94.594Zm0 0"></path>
            </clipPath>
        </defs>
        <path d="M544.86 159V57.43a74.383 74.383 0 0 1 9.484 7.875l100.32 100.285a61.99 61.99 0 0 1 7.715 9.48H560.937c-.527 0-1.05-.023-1.578-.078a15.947 15.947 0 0 1-6-1.82 15.312 15.312 0 0 1-2.62-1.75 14.948 14.948 0 0 1-1.169-1.059 15.823 15.823 0 0 1-2.812-3.789 16.43 16.43 0 0 1-.676-1.426c-.2-.484-.375-.98-.531-1.484a17.114 17.114 0 0 1-.383-1.527 16.375 16.375 0 0 1-.309-3.137Zm0 0" fill="#286eb0" data-color="1"></path>
        <path d="M287.633 367.93h64.324v64.285h-64.324Zm0 0" fill="#286eb0" data-color="1"></path>
        <path d="M287.633 544.715h64.324V609h-64.324Zm0 0" fill="#286eb0" data-color="1"></path>
        <g clip-path="url(#9e9188aa-b50e-49b5-82ee-3cf31b030245_comp-lj8bnt34)">
            <path d="M673.313 207.215H560.938a47.68 47.68 0 0 1-4.723-.246 49.62 49.62 0 0 1-4.676-.703 48.626 48.626 0 0 1-13.309-4.786 48.45 48.45 0 0 1-4.054-2.437 48.11 48.11 0 0 1-10.477-9.496 48.411 48.411 0 0 1-2.82-3.793 48.408 48.408 0 0 1-4.461-8.324 48.626 48.626 0 0 1-2.762-9.035 48.3 48.3 0 0 1-.703-4.672 47.68 47.68 0 0 1-.246-4.723V46.66a31.048 31.048 0 0 0-3.86-.16h-317.67a65.337 65.337 0 0 0-6.305.309c-1.047.105-2.09.234-3.133.386a69.923 69.923 0 0 0-3.11.54 68.692 68.692 0 0 0-3.077.69 62.596 62.596 0 0 0-3.043.845 61.063 61.063 0 0 0-2.996.988 65.458 65.458 0 0 0-5.832 2.414 63.389 63.389 0 0 0-8.23 4.664 56.734 56.734 0 0 0-2.583 1.816 59.83 59.83 0 0 0-2.488 1.942 62.663 62.663 0 0 0-4.676 4.234 66.597 66.597 0 0 0-2.176 2.285 66.481 66.481 0 0 0-2.062 2.39 59.83 59.83 0 0 0-1.942 2.49 58.878 58.878 0 0 0-1.816 2.577 65.184 65.184 0 0 0-1.691 2.664 63.39 63.39 0 0 0-2.973 5.566 59.33 59.33 0 0 0-1.281 2.884 65.457 65.457 0 0 0-1.137 2.945 65.534 65.534 0 0 0-1.832 6.035 68.859 68.859 0 0 0-.691 3.082 69.696 69.696 0 0 0-.54 3.106 70.675 70.675 0 0 0-.386 3.132 65.235 65.235 0 0 0-.309 6.301v80.36h48.23c.528 0 1.051.023 1.575.074.527.054 1.047.129 1.562.234a15.947 15.947 0 0 1 3.016.914c.484.2.96.426 1.426.672.465.25.914.52 1.351.813.442.293.864.605 1.27.937.406.336.797.688 1.168 1.063.37.37.726.761 1.058 1.168a15.654 15.654 0 0 1 1.754 2.617 16.333 16.333 0 0 1 1.203 2.914c.153.5.282 1.012.383 1.527.106.516.184 1.035.235 1.563.05.523.078 1.047.078 1.574 0 .527-.028 1.05-.078 1.574-.051.524-.13 1.043-.235 1.563a15.87 15.87 0 0 1-.914 3.011 15.815 15.815 0 0 1-2.426 4.047 15.77 15.77 0 0 1-1.058 1.168 15.77 15.77 0 0 1-1.168 1.059c-.406.336-.828.648-1.27.941a16.37 16.37 0 0 1-2.777 1.484 15.946 15.946 0 0 1-4.578 1.145 15.04 15.04 0 0 1-1.574.078h-48.23v32.145h48.23c.527 0 1.05.023 1.574.078a15.947 15.947 0 0 1 6.004 1.82c.465.246.914.516 1.351.809.442.293.864.605 1.27.941.406.332.797.684 1.168 1.059.37.37.726.761 1.058 1.168a15.62 15.62 0 0 1 1.754 2.62c.246.462.473.938.672 1.427.203.484.38.98.531 1.484.153.504.282 1.012.383 1.527.106.516.184 1.04.235 1.563.05.523.078 1.047.078 1.574 0 .527-.028 1.05-.078 1.574-.051.524-.13 1.047-.235 1.563a15.87 15.87 0 0 1-.914 3.011c-.199.489-.426.965-.672 1.426a15.62 15.62 0 0 1-1.754 2.621 15.77 15.77 0 0 1-1.058 1.168c-.371.375-.762.727-1.168 1.059-.406.336-.828.648-1.27.941-.437.293-.886.563-1.351.809-.465.25-.942.476-1.426.676a15.947 15.947 0 0 1-4.578 1.145c-.524.054-1.047.077-1.574.077h-48.23v32.145h48.23c.527 0 1.05.023 1.574.078a16.016 16.016 0 0 1 7.355 2.629 15.822 15.822 0 0 1 3.496 3.168 15.62 15.62 0 0 1 1.754 2.62c.246.466.473.938.672 1.427.203.484.38.98.531 1.484.153.504.282 1.012.383 1.527.106.52.184 1.04.235 1.563.05.523.078 1.047.078 1.574 0 .527-.028 1.05-.078 1.574a15.1 15.1 0 0 1-.235 1.563c-.101.515-.23 1.027-.383 1.527a16.333 16.333 0 0 1-1.203 2.914c-.25.461-.52.914-.812 1.352-.293.437-.606.86-.942 1.265a15.77 15.77 0 0 1-1.058 1.168c-.371.375-.762.727-1.168 1.063-.406.332-.828.644-1.27.937a16.17 16.17 0 0 1-1.351.813 16.333 16.333 0 0 1-2.91 1.203 16.176 16.176 0 0 1-4.668.691h-48.23V384h48.23a16.275 16.275 0 0 1 4.668.691c.504.153.996.332 1.484.532a16.37 16.37 0 0 1 2.777 1.484 15.77 15.77 0 0 1 2.438 2c.37.371.726.762 1.058 1.168a15.62 15.62 0 0 1 1.754 2.621c.246.465.473.938.672 1.426.203.484.38.98.531 1.484.153.504.282 1.012.383 1.531a15 15 0 0 1 .235 1.56c.05.523.078 1.05.078 1.573 0 .528-.028 1.051-.078 1.578a15 15 0 0 1-.235 1.559 15.947 15.947 0 0 1-.914 3.016c-.199.484-.426.96-.672 1.425a16.291 16.291 0 0 1-2.812 3.79 15.882 15.882 0 0 1-2.438 1.996 16.16 16.16 0 0 1-1.351.812 16.333 16.333 0 0 1-4.442 1.59 16.274 16.274 0 0 1-3.137.309h-48.23v32.14h48.23a16.275 16.275 0 0 1 4.669.692c.504.152.996.332 1.484.53.484.204.96.427 1.426.677.465.246.914.52 1.351.812.442.29.864.606 1.27.938a15.77 15.77 0 0 1 2.227 2.227 16.4 16.4 0 0 1 1.753 2.62c.246.465.473.938.672 1.426a15.947 15.947 0 0 1 .914 3.016 15 15 0 0 1 .235 1.558c.05.524.078 1.051.078 1.574 0 .528-.028 1.055-.078 1.579a15 15 0 0 1-.235 1.558 15.947 15.947 0 0 1-.914 3.016c-.199.484-.426.96-.672 1.426a16.291 16.291 0 0 1-2.812 3.789 15.882 15.882 0 0 1-2.438 1.996 16.29 16.29 0 0 1-1.351.812c-.465.246-.942.473-1.426.676-.488.2-.98.375-1.484.531a16.016 16.016 0 0 1-3.094.613c-.524.051-1.047.079-1.574.079h-48.23v32.14h48.23a16.274 16.274 0 0 1 4.668.692c.504.156.996.332 1.484.531.484.203.96.43 1.426.676.465.25.914.52 1.351.812a15.882 15.882 0 0 1 2.438 1.996c.37.375.726.762 1.058 1.172a16.291 16.291 0 0 1 1.754 2.617 16.333 16.333 0 0 1 1.203 2.91c.153.504.282 1.016.383 1.532a15 15 0 0 1 .235 1.558c.05.524.078 1.051.078 1.579 0 .523-.028 1.05-.078 1.574a15 15 0 0 1-.235 1.558 15.947 15.947 0 0 1-.914 3.016 15.815 15.815 0 0 1-2.426 4.047 15.77 15.77 0 0 1-1.058 1.168c-.371.37-.762.722-1.168 1.058-.406.332-.828.649-1.27.938-.437.293-.886.566-1.351.812a16.08 16.08 0 0 1-2.91 1.207 16.016 16.016 0 0 1-3.094.613c-.524.052-1.047.079-1.574.079h-48.23v32.14h48.23a16.274 16.274 0 0 1 3.136.31c.516.105 1.028.23 1.532.386a16.333 16.333 0 0 1 2.91 1.203c.465.25.914.52 1.351.812a15.882 15.882 0 0 1 2.438 1.996c.37.375.726.762 1.058 1.172a16.291 16.291 0 0 1 1.754 2.617 16.333 16.333 0 0 1 1.203 2.91c.153.505.282 1.016.383 1.532a15 15 0 0 1 .235 1.559c.05.527.078 1.05.078 1.578 0 .523-.028 1.05-.078 1.574a15 15 0 0 1-.235 1.558 15.31 15.31 0 0 1-.383 1.532c-.152.504-.328 1-.53 1.484a15.815 15.815 0 0 1-2.427 4.047 15.77 15.77 0 0 1-1.058 1.168 15.77 15.77 0 0 1-1.168 1.059 16.25 16.25 0 0 1-5.531 2.957 15.946 15.946 0 0 1-3.094.613c-.524.05-1.047.078-1.574.078h-48.23v48.215a65.3 65.3 0 0 0 .308 6.3c.105 1.048.234 2.09.386 3.133a69.25 69.25 0 0 0 .54 3.106c.207 1.035.437 2.058.691 3.082a67.157 67.157 0 0 0 1.832 6.035c.355.992.734 1.973 1.137 2.945a59.33 59.33 0 0 0 1.281 2.883 63.39 63.39 0 0 0 4.664 8.23 58.878 58.878 0 0 0 1.816 2.579 59.83 59.83 0 0 0 1.942 2.488c.668.813 1.355 1.61 2.062 2.39a63.346 63.346 0 0 0 6.852 6.52 59.83 59.83 0 0 0 2.488 1.942 56.734 56.734 0 0 0 2.582 1.816 65.183 65.183 0 0 0 2.664 1.691 63.389 63.389 0 0 0 8.453 4.25 64.4 64.4 0 0 0 8.985 2.969c1.02.254 2.047.485 3.078.692 1.031.203 2.07.382 3.11.539 1.042.152 2.085.28 3.132.386a65.233 65.233 0 0 0 6.305.309h417.992a65.3 65.3 0 0 0 6.3-.309 69.963 69.963 0 0 0 3.134-.386 68.898 68.898 0 0 0 3.109-.54 62.446 62.446 0 0 0 6.121-1.535 62.615 62.615 0 0 0 5.945-2.125 65.287 65.287 0 0 0 5.703-2.695 65.27 65.27 0 0 0 2.747-1.555 65.319 65.319 0 0 0 5.246-3.507 59.83 59.83 0 0 0 2.488-1.942 63.347 63.347 0 0 0 4.676-4.234 66.717 66.717 0 0 0 2.18-2.285 70.55 70.55 0 0 0 2.058-2.39 59.83 59.83 0 0 0 1.941-2.49 62.506 62.506 0 0 0 3.508-5.245 67.691 67.691 0 0 0 1.555-2.742 63.315 63.315 0 0 0 2.7-5.703 63.203 63.203 0 0 0 2.124-5.942c.305-1.008.586-2.02.844-3.04a68.55 68.55 0 0 0 .691-3.081c.203-1.031.383-2.067.54-3.106.152-1.043.28-2.086.386-3.132a65.233 65.233 0 0 0 .309-6.301V211.07a30.985 30.985 0 0 0-.16-3.855Zm-257.067 32.14h96.461a16.274 16.274 0 0 1 3.137.31c.515.105 1.027.23 1.531.386a16.333 16.333 0 0 1 2.91 1.203c.465.25.914.52 1.352.812a15.882 15.882 0 0 1 2.437 1.996c.371.375.727.762 1.059 1.172a16.29 16.29 0 0 1 1.754 2.617 16.334 16.334 0 0 1 1.203 2.91c.152.505.281 1.016.383 1.532a15 15 0 0 1 .234 1.559c.05.527.078 1.05.078 1.578 0 .523-.027 1.05-.078 1.574a15 15 0 0 1-.234 1.558c-.102.52-.23 1.028-.383 1.532s-.328 1-.531 1.484a15.815 15.815 0 0 1-2.426 4.047 15.77 15.77 0 0 1-1.059 1.168 15.77 15.77 0 0 1-1.168 1.059 16.25 16.25 0 0 1-5.531 2.957 15.946 15.946 0 0 1-3.094.613c-.523.05-1.047.078-1.574.078h-96.46a16.275 16.275 0 0 1-3.138-.309 15.87 15.87 0 0 1-1.527-.382c-.504-.153-1-.332-1.488-.532a16.37 16.37 0 0 1-2.778-1.484 16.4 16.4 0 0 1-1.27-.941 15.77 15.77 0 0 1-1.167-1.059 15.77 15.77 0 0 1-1.059-1.168 15.025 15.025 0 0 1-.941-1.27 15.248 15.248 0 0 1-.809-1.351c-.25-.465-.476-.938-.675-1.426-.204-.484-.38-.98-.532-1.484a15.662 15.662 0 0 1-.383-1.531 16.126 16.126 0 0 1-.234-1.56 16.33 16.33 0 0 1-.074-1.573c0-.528.023-1.051.074-1.578a16.37 16.37 0 0 1 .234-1.559 15.947 15.947 0 0 1 1.59-4.441 15.62 15.62 0 0 1 1.75-2.617 15.828 15.828 0 0 1 3.496-3.169c.438-.293.887-.562 1.352-.812a16.333 16.333 0 0 1 4.441-1.59 16.375 16.375 0 0 1 3.137-.309Zm-156.101-11.41c.375-.37.765-.722 1.175-1.058a15.964 15.964 0 0 1 4.066-2.418c.489-.203.985-.38 1.489-.532a16.318 16.318 0 0 1 3.102-.613c.527-.05 1.05-.078 1.582-.078a16.355 16.355 0 0 1 4.68.691c.507.153 1.003.329 1.491.532.489.199.965.422 1.43.672.469.246.922.515 1.36.808.44.293.867.606 1.277.938.406.336.8.687 1.176 1.058l19.453 19.45 53.05-66.215a16.22 16.22 0 0 1 2.239-1.97 16.329 16.329 0 0 1 2.566-1.523 16.226 16.226 0 0 1 5.742-1.507 16.21 16.21 0 0 1 2.98.062c.993.117 1.966.32 2.919.617a15.68 15.68 0 0 1 2.754 1.141 16.04 16.04 0 0 1 7.637 8.82c.335.942.582 1.903.738 2.89.152.985.215 1.977.187 2.974a16.362 16.362 0 0 1-.363 2.957 16.165 16.165 0 0 1-2.316 5.464l-64.309 80.36a16.015 16.015 0 0 1-5.133 4.293c-.996.523-2.039.941-3.125 1.246a15.672 15.672 0 0 1-3.316.566h-.965a16.047 16.047 0 0 1-6.168-1.199 16.042 16.042 0 0 1-5.246-3.46l-32.152-32.141a15.11 15.11 0 0 1-1.06-1.18 15.086 15.086 0 0 1-.94-1.274 16.32 16.32 0 0 1-.81-1.355 16.479 16.479 0 0 1-1.585-4.457 16.455 16.455 0 0 1-.309-3.149 16.273 16.273 0 0 1 .691-4.68 16.479 16.479 0 0 1 1.203-2.922c.247-.464.52-.917.81-1.358a16.463 16.463 0 0 1 2-2.45ZM384.094 609a32.62 32.62 0 0 1-.633 6.266 31.78 31.78 0 0 1-.774 3.054 33.072 33.072 0 0 1-1.066 2.965 32.16 32.16 0 0 1-2.977 5.55 32.884 32.884 0 0 1-1.878 2.532 32.373 32.373 0 0 1-9.688 7.953c-.926.496-1.875.946-2.848 1.352a33.15 33.15 0 0 1-2.968 1.066 32.647 32.647 0 0 1-6.172 1.242 32.62 32.62 0 0 1-3.149.165h-64.308a32.62 32.62 0 0 1-3.149-.165 32.647 32.647 0 0 1-6.172-1.242 33.15 33.15 0 0 1-2.968-1.066 32.16 32.16 0 0 1-5.55-2.977 32.347 32.347 0 0 1-6.984-6.328 32.884 32.884 0 0 1-1.88-2.531 32.16 32.16 0 0 1-4.043-8.516 31.78 31.78 0 0 1-1.242-6.172 32.62 32.62 0 0 1-.165-3.148v-64.285a32.62 32.62 0 0 1 .633-6.266 32.641 32.641 0 0 1 1.84-6.02c.406-.972.856-1.921 1.352-2.847a31.456 31.456 0 0 1 1.625-2.703 32.142 32.142 0 0 1 8.863-8.86 32.16 32.16 0 0 1 11.574-4.816 32.253 32.253 0 0 1 6.266-.633h64.308a32.62 32.62 0 0 1 6.266.633 32.666 32.666 0 0 1 6.023 1.84 32.16 32.16 0 0 1 5.55 2.977 31.11 31.11 0 0 1 2.533 1.878 32.347 32.347 0 0 1 4.453 4.45 32.142 32.142 0 0 1 1.879 2.53 31.546 31.546 0 0 1 1.625 2.704c.496.926.945 1.875 1.351 2.848a32.642 32.642 0 0 1 1.84 6.02 32.253 32.253 0 0 1 .633 6.265Zm0-176.785a32.62 32.62 0 0 1-.633 6.262 31.857 31.857 0 0 1-.774 3.058 33.514 33.514 0 0 1-1.066 2.965 32.16 32.16 0 0 1-4.855 8.078 32.347 32.347 0 0 1-9.688 7.957c-.926.496-1.875.945-2.848 1.352a33.15 33.15 0 0 1-2.968 1.066 32.647 32.647 0 0 1-6.172 1.242c-1.047.106-2.098.16-3.149.16h-64.308a31.411 31.411 0 0 1-6.266-.632 32.647 32.647 0 0 1-3.055-.77 33.15 33.15 0 0 1-2.968-1.066 32.725 32.725 0 0 1-2.848-1.352 33.18 33.18 0 0 1-2.703-1.625 32.142 32.142 0 0 1-4.867-3.996 31.622 31.622 0 0 1-2.117-2.336 32.16 32.16 0 0 1-6.695-14.102 32.174 32.174 0 0 1-.634-6.261V367.93a32.555 32.555 0 0 1 .633-6.266 32.641 32.641 0 0 1 1.84-6.02c.406-.972.856-1.921 1.352-2.847a31.456 31.456 0 0 1 1.625-2.703 32.142 32.142 0 0 1 6.332-6.985 33.149 33.149 0 0 1 2.531-1.879 33.195 33.195 0 0 1 2.703-1.62c.926-.497 1.875-.95 2.848-1.352a33.15 33.15 0 0 1 2.969-1.067 31.491 31.491 0 0 1 3.054-.773 32.253 32.253 0 0 1 6.266-.633h64.308a32.62 32.62 0 0 1 6.266.633 31.76 31.76 0 0 1 3.055.773 33.15 33.15 0 0 1 2.968 1.067c.973.402 1.922.855 2.848 1.351.926.496 1.828 1.04 2.703 1.621a33.149 33.149 0 0 1 2.531 1.88 32.72 32.72 0 0 1 2.336 2.117 32.142 32.142 0 0 1 3.996 4.867 31.546 31.546 0 0 1 1.626 2.703c.496.926.945 1.875 1.351 2.848a32.642 32.642 0 0 1 1.84 6.02 32.253 32.253 0 0 1 .633 6.265ZM512.707 625.07h-96.46a16.376 16.376 0 0 1-3.137-.309 15.87 15.87 0 0 1-1.528-.382 15.692 15.692 0 0 1-2.914-1.207 15.248 15.248 0 0 1-1.352-.809 16.4 16.4 0 0 1-1.27-.941 14.948 14.948 0 0 1-1.167-1.059 15.77 15.77 0 0 1-1.059-1.168 15.62 15.62 0 0 1-1.75-2.62 14.42 14.42 0 0 1-.675-1.427 15.87 15.87 0 0 1-.914-3.012 16.39 16.39 0 0 1-.235-1.562 16.272 16.272 0 0 1-.074-1.574c0-.527.023-1.05.074-1.574a16.205 16.205 0 0 1 2.633-7.356c.293-.437.605-.86.941-1.265a15.77 15.77 0 0 1 1.059-1.168c.371-.375.762-.727 1.168-1.059a16.4 16.4 0 0 1 1.27-.941c.437-.293.886-.563 1.351-.809a15.692 15.692 0 0 1 2.914-1.207 15.87 15.87 0 0 1 3.09-.613 15.118 15.118 0 0 1 1.574-.078h96.461c.527 0 1.05.023 1.574.078a15.947 15.947 0 0 1 6.004 1.82c.465.246.914.516 1.352.809.441.293.863.605 1.27.941.405.332.796.684 1.167 1.059.371.37.727.761 1.059 1.168a15.62 15.62 0 0 1 1.754 2.62c.246.462.472.938.672 1.427.203.484.379.98.53 1.484.153.504.282 1.012.384 1.527.105.516.183 1.04.234 1.563.05.523.078 1.047.078 1.574 0 .527-.027 1.05-.078 1.574-.05.524-.129 1.043-.234 1.563a15.87 15.87 0 0 1-.914 3.011c-.2.489-.426.965-.672 1.426-.25.465-.52.918-.813 1.356-.293.437-.605.86-.941 1.265a15.77 15.77 0 0 1-1.059 1.168c-.37.375-.761.727-1.168 1.059-.406.336-.828.648-1.27.941-.437.293-.886.563-1.35.809-.466.25-.942.476-1.427.676a15.947 15.947 0 0 1-4.578 1.145c-.523.054-1.047.077-1.574.077Zm32.152-64.285H416.246a16.375 16.375 0 0 1-3.137-.309 15.87 15.87 0 0 1-1.527-.382 15.692 15.692 0 0 1-2.914-1.207 15.248 15.248 0 0 1-1.352-.809 16.4 16.4 0 0 1-1.27-.941 15.77 15.77 0 0 1-1.167-1.059 15.77 15.77 0 0 1-1.059-1.168 15.62 15.62 0 0 1-1.75-2.62 14.86 14.86 0 0 1-.675-1.427 15.87 15.87 0 0 1-.914-3.012 16.39 16.39 0 0 1-.235-1.562 16.271 16.271 0 0 1-.074-1.574c0-.528.023-1.05.074-1.574a16.263 16.263 0 0 1 .617-3.09 15.692 15.692 0 0 1 1.207-2.914 15.832 15.832 0 0 1 2.809-3.785c.371-.375.762-.727 1.168-1.063.41-.332.832-.644 1.27-.937a16.17 16.17 0 0 1 1.351-.813 16.333 16.333 0 0 1 2.914-1.203 16.39 16.39 0 0 1 3.09-.617 16.196 16.196 0 0 1 1.574-.074H544.86c.528 0 1.051.023 1.578.074.524.054 1.043.129 1.56.234a15.947 15.947 0 0 1 3.015.914 15.815 15.815 0 0 1 2.781 1.485 15.823 15.823 0 0 1 2.434 2 15.823 15.823 0 0 1 2 2.433c.293.438.562.89.812 1.352a16.333 16.333 0 0 1 1.59 4.441 16.275 16.275 0 0 1 .309 3.137 16.275 16.275 0 0 1-.31 3.137 17.12 17.12 0 0 1-.382 1.527c-.156.504-.332 1-.535 1.484a15.815 15.815 0 0 1-1.484 2.782 15.823 15.823 0 0 1-2 2.434 15.77 15.77 0 0 1-1.168 1.058 15.62 15.62 0 0 1-2.621 1.75 15.848 15.848 0 0 1-2.91 1.207 15.946 15.946 0 0 1-3.09.613c-.528.055-1.051.078-1.579.078Zm-144.687-128.57c0-.527.023-1.05.074-1.574a16.263 16.263 0 0 1 .617-3.09 15.692 15.692 0 0 1 1.207-2.914 15.832 15.832 0 0 1 2.809-3.785c.371-.375.762-.727 1.168-1.063.41-.332.832-.644 1.27-.937a16.17 16.17 0 0 1 1.351-.813 16.333 16.333 0 0 1 2.914-1.203 16.39 16.39 0 0 1 3.09-.617 16.196 16.196 0 0 1 1.574-.074h96.461c.527 0 1.05.023 1.574.074a16.205 16.205 0 0 1 3.094.617 16.333 16.333 0 0 1 2.91 1.203c.465.25.914.52 1.352.813.441.293.863.605 1.27.937.405.336.796.688 1.167 1.063.371.37.727.761 1.059 1.168.336.406.648.828.941 1.265.293.438.563.89.813 1.352a16.334 16.334 0 0 1 1.203 2.914c.152.5.281 1.012.383 1.527.105.516.183 1.035.234 1.563.05.523.078 1.046.078 1.574 0 .527-.027 1.05-.078 1.574-.05.524-.129 1.043-.234 1.563a15.87 15.87 0 0 1-.914 3.011 15.815 15.815 0 0 1-2.426 4.047 15.77 15.77 0 0 1-1.059 1.168 15.77 15.77 0 0 1-1.168 1.059c-.406.336-.828.648-1.27.941a16.37 16.37 0 0 1-2.777 1.484 15.946 15.946 0 0 1-4.578 1.145c-.523.055-1.047.078-1.574.078h-96.46a16.375 16.375 0 0 1-3.137-.309 15.87 15.87 0 0 1-1.528-.382 15.692 15.692 0 0 1-2.914-1.207 15.248 15.248 0 0 1-1.352-.809 16.4 16.4 0 0 1-1.27-.941 15.77 15.77 0 0 1-1.167-1.059 15.77 15.77 0 0 1-1.059-1.168 15.62 15.62 0 0 1-1.75-2.62 14.86 14.86 0 0 1-.675-1.427 15.87 15.87 0 0 1-.914-3.012 16.39 16.39 0 0 1-.235-1.562 16.271 16.271 0 0 1-.074-1.574ZM544.859 384H416.246a16.275 16.275 0 0 1-3.137-.309 15.87 15.87 0 0 1-1.527-.382c-.504-.153-1-.332-1.488-.532a16.37 16.37 0 0 1-2.778-1.484 16.4 16.4 0 0 1-1.27-.941 15.77 15.77 0 0 1-1.167-1.059 15.77 15.77 0 0 1-1.059-1.168 15.025 15.025 0 0 1-.941-1.27 15.248 15.248 0 0 1-.809-1.351c-.25-.465-.476-.938-.675-1.426-.204-.484-.38-.98-.532-1.484a15.662 15.662 0 0 1-.383-1.531 16.126 16.126 0 0 1-.234-1.56 16.33 16.33 0 0 1-.074-1.573c0-.528.023-1.051.074-1.578a16.37 16.37 0 0 1 .234-1.559 15.947 15.947 0 0 1 1.59-4.441 15.62 15.62 0 0 1 1.75-2.617 15.828 15.828 0 0 1 3.496-3.169c.438-.293.887-.562 1.352-.812a16.333 16.333 0 0 1 4.441-1.59 16.375 16.375 0 0 1 3.137-.309H544.86a16.417 16.417 0 0 1 3.137.31c.516.105 1.027.23 1.531.386.504.152 1 .328 1.485.531a15.815 15.815 0 0 1 2.781 1.484c.437.293.86.606 1.266.938a15.88 15.88 0 0 1 3.168 3.496c.293.438.562.887.812 1.352a16.81 16.81 0 0 1 1.207 2.91 16.114 16.114 0 0 1 0 9.332c-.156.504-.332 1-.535 1.484a15.815 15.815 0 0 1-1.484 2.777 15.76 15.76 0 0 1-2 2.438 15.77 15.77 0 0 1-1.168 1.059 15.62 15.62 0 0 1-2.621 1.75 15.848 15.848 0 0 1-2.91 1.207 15.946 15.946 0 0 1-3.09.613c-.528.05-1.051.078-1.579.078Zm0 0" fill="#286eb0" data-color="1"></path>
        </g>
        <g clip-path="url(#cf1abd1d-73b4-4501-9930-898b440e1b17_comp-lj8bnt34)">
            <path d="M175.098 191.145h-64.309a16.336 16.336 0 0 1-3.133-.31 15.68 15.68 0 0 1-1.531-.386c-.504-.152-1-.328-1.484-.531-.489-.2-.965-.426-1.43-.672-.461-.25-.914-.52-1.352-.812a16.55 16.55 0 0 1-1.265-.938c-.41-.336-.797-.687-1.172-1.059a16.751 16.751 0 0 1-2-2.437 16.25 16.25 0 0 1-2.016-4.262 15.946 15.946 0 0 1-.613-3.09 15.246 15.246 0 0 1-.078-1.578 16.114 16.114 0 0 1 1.223-6.148 16.25 16.25 0 0 1 1.484-2.777 15.925 15.925 0 0 1 3.172-3.497 15.62 15.62 0 0 1 2.617-1.75 15.919 15.919 0 0 1 2.914-1.207 16.114 16.114 0 0 1 4.664-.691h64.309a16.275 16.275 0 0 1 4.668.691c.504.153.996.332 1.484.532a16.37 16.37 0 0 1 2.777 1.484 15.77 15.77 0 0 1 2.438 2c.37.371.726.762 1.058 1.168a16.291 16.291 0 0 1 1.754 2.621c.246.465.473.938.672 1.426.203.484.38.98.531 1.484.153.504.282 1.012.383 1.531a15 15 0 0 1 .235 1.56c.05.523.078 1.05.078 1.573 0 .528-.028 1.051-.078 1.578a15 15 0 0 1-.235 1.559 15.947 15.947 0 0 1-.914 3.016c-.199.484-.426.96-.672 1.425a16.291 16.291 0 0 1-2.812 3.79 15.882 15.882 0 0 1-2.438 1.996 16.16 16.16 0 0 1-1.351.812 16.333 16.333 0 0 1-4.442 1.59 16.274 16.274 0 0 1-3.137.309Zm0 0" fill="#286eb0" data-color="1"></path>
        </g>
        <g clip-path="url(#16a65d1c-3ce5-4d26-a63b-f5b26f9d685b_comp-lj8bnt34)">
            <path d="M191.176 239.355c0 .528-.028 1.055-.078 1.579a15 15 0 0 1-.235 1.558 15.947 15.947 0 0 1-.914 3.016c-.199.484-.426.96-.672 1.426a16.291 16.291 0 0 1-2.812 3.789 15.882 15.882 0 0 1-2.438 1.996 16.29 16.29 0 0 1-1.351.812c-.465.246-.942.473-1.426.676-.488.2-.98.375-1.484.531a16.016 16.016 0 0 1-3.094.613c-.524.051-1.047.079-1.574.079h-64.309a16.336 16.336 0 0 1-3.133-.309c-.52-.105-1.027-.23-1.531-.383-.504-.156-1-.332-1.484-.531-.489-.203-.965-.43-1.43-.676-.461-.25-.914-.52-1.352-.812a16.55 16.55 0 0 1-1.265-.938 16.82 16.82 0 0 1-1.172-1.058 17.618 17.618 0 0 1-1.059-1.168c-.332-.41-.648-.832-.941-1.27a16.25 16.25 0 0 1-2.016-4.262 15.946 15.946 0 0 1-.613-3.09 15.192 15.192 0 0 1-.078-1.578 16.114 16.114 0 0 1 1.223-6.148 16.25 16.25 0 0 1 1.484-2.777c.293-.438.61-.86.941-1.27.336-.406.688-.797 1.059-1.168a16.75 16.75 0 0 1 1.172-1.058c.406-.332.828-.649 1.265-.938a15.875 15.875 0 0 1 4.266-2.02 16.115 16.115 0 0 1 4.664-.691h64.309a16.275 16.275 0 0 1 4.668.692c.504.152.996.332 1.484.53.484.204.96.427 1.426.677.465.246.914.52 1.351.812.442.29.864.606 1.27.938a15.77 15.77 0 0 1 2.227 2.227 16.4 16.4 0 0 1 1.753 2.62c.246.465.473.938.672 1.426a15.947 15.947 0 0 1 .914 3.016 15 15 0 0 1 .235 1.558c.05.524.078 1.051.078 1.574Zm0 0" fill="#286eb0" data-color="1"></path>
        </g>
        <g clip-path="url(#7c5efa47-67a3-464d-91ac-9236d21dcfd6_comp-lj8bnt34)">
            <path d="M191.176 303.645c0 .523-.028 1.05-.078 1.574a15 15 0 0 1-.235 1.558 15.947 15.947 0 0 1-.914 3.016 15.815 15.815 0 0 1-2.426 4.047 15.77 15.77 0 0 1-1.058 1.168c-.371.37-.762.722-1.168 1.058-.406.332-.828.649-1.27.938-.437.293-.886.566-1.351.812-.465.25-.942.473-1.426.676a15.947 15.947 0 0 1-4.578 1.145c-.524.05-1.047.078-1.574.078h-64.309a16.337 16.337 0 0 1-3.133-.309c-.52-.101-1.027-.23-1.531-.383a16.347 16.347 0 0 1-2.914-1.207 16.178 16.178 0 0 1-2.617-1.75 16.75 16.75 0 0 1-1.172-1.058 16.688 16.688 0 0 1-1.059-1.168c-.332-.41-.648-.832-.941-1.27a16.25 16.25 0 0 1-2.016-4.261 15.946 15.946 0 0 1-.613-3.09 15.17 15.17 0 0 1-.078-1.574 16.115 16.115 0 0 1 .691-4.668c.153-.504.332-.997.531-1.485a16.37 16.37 0 0 1 1.485-2.777c.293-.438.61-.86.941-1.27.336-.406.688-.793 1.059-1.168a16.55 16.55 0 0 1 3.79-2.809c.464-.245.94-.472 1.429-.675.484-.2.98-.375 1.484-.531a16.115 16.115 0 0 1 4.664-.691h64.309a16.274 16.274 0 0 1 4.668.69c.504.157.996.333 1.484.532.484.203.96.43 1.426.676.465.25.914.52 1.351.812a15.882 15.882 0 0 1 4.438 4.434c.293.437.562.887.812 1.351a16.333 16.333 0 0 1 1.203 2.91c.153.504.282 1.016.383 1.532a15 15 0 0 1 .235 1.558c.05.524.078 1.051.078 1.579Zm0 0" fill="#286eb0" data-color="1"></path>
        </g>
        <g clip-path="url(#2aa2f7c0-6b1f-443b-becc-ad2ee233740c_comp-lj8bnt34)">
            <path d="M191.176 367.93c0 .523-.028 1.05-.078 1.574a15 15 0 0 1-.235 1.558 15.31 15.31 0 0 1-.383 1.532c-.152.504-.328 1-.53 1.484a15.815 15.815 0 0 1-2.427 4.047 15.77 15.77 0 0 1-1.058 1.168 15.77 15.77 0 0 1-1.168 1.059 16.25 16.25 0 0 1-5.531 2.957 15.946 15.946 0 0 1-3.094.613c-.524.05-1.047.078-1.574.078h-64.309a16.337 16.337 0 0 1-3.133-.309c-.52-.101-1.027-.23-1.531-.382a16.347 16.347 0 0 1-2.914-1.207 15.62 15.62 0 0 1-2.617-1.75 15.828 15.828 0 0 1-3.172-3.497 16.25 16.25 0 0 1-2.016-4.261 16.114 16.114 0 0 1 .531-10.816A16.37 16.37 0 0 1 97.422 359a16.599 16.599 0 0 1 2-2.438 16.55 16.55 0 0 1 3.79-2.809c.464-.245.94-.472 1.429-.671.484-.203.98-.379 1.484-.531a15.68 15.68 0 0 1 3.09-.617c.523-.051 1.05-.079 1.574-.079h64.309a16.274 16.274 0 0 1 3.136.31c.516.105 1.028.23 1.532.386a16.333 16.333 0 0 1 2.91 1.203c.465.25.914.52 1.351.812a15.882 15.882 0 0 1 2.438 1.997c.37.375.726.761 1.058 1.171a16.291 16.291 0 0 1 1.754 2.617 16.333 16.333 0 0 1 1.203 2.91c.153.505.282 1.016.383 1.532a15 15 0 0 1 .235 1.559c.05.527.078 1.05.078 1.578Zm0 0" fill="#286eb0" data-color="1"></path>
        </g>
        <g clip-path="url(#c6183383-4dea-4481-aa8a-f17648a19374_comp-lj8bnt34)">
            <path d="M191.176 432.215c0 .527-.028 1.05-.078 1.574-.051.524-.13 1.043-.235 1.563a15.87 15.87 0 0 1-.914 3.011 15.815 15.815 0 0 1-2.426 4.047 15.77 15.77 0 0 1-1.058 1.168 15.77 15.77 0 0 1-1.168 1.059c-.406.336-.828.648-1.27.941a16.37 16.37 0 0 1-2.777 1.484 15.946 15.946 0 0 1-4.578 1.145 15.04 15.04 0 0 1-1.574.078h-64.309a16.114 16.114 0 0 1-6.148-1.223 15.919 15.919 0 0 1-2.782-1.484 15.62 15.62 0 0 1-1.265-.941 15.828 15.828 0 0 1-2.23-2.227 16.599 16.599 0 0 1-.942-1.265 16.32 16.32 0 0 1-2.016-4.266 15.87 15.87 0 0 1-.613-3.09 15.117 15.117 0 0 1-.078-1.574c0-.527.023-1.05.078-1.574a16.016 16.016 0 0 1 3.57-8.621c.336-.407.688-.797 1.059-1.168a15.881 15.881 0 0 1 2.437-2c.438-.293.891-.563 1.352-.813.465-.246.941-.473 1.43-.672.484-.203.98-.379 1.484-.531a15.662 15.662 0 0 1 1.531-.383c.516-.105 1.035-.18 1.559-.234a16.33 16.33 0 0 1 1.574-.074h64.309c.527 0 1.05.023 1.574.074.527.054 1.047.129 1.562.234a15.947 15.947 0 0 1 3.016.914c.484.2.96.426 1.426.672.465.25.914.52 1.351.813.442.293.864.605 1.27.937.406.336.797.688 1.168 1.063.37.37.726.761 1.058 1.168a15.654 15.654 0 0 1 1.754 2.617 16.333 16.333 0 0 1 1.203 2.914c.153.5.282 1.012.383 1.527.106.516.184 1.035.235 1.563.05.523.078 1.046.078 1.574Zm0 0" fill="#286eb0" data-color="1"></path>
        </g>
        <g clip-path="url(#0883192f-d855-4cbf-832f-1ad811f213eb_comp-lj8bnt34)">
            <path d="M191.176 496.5c0 .527-.028 1.05-.078 1.574-.051.524-.13 1.047-.235 1.563a15.87 15.87 0 0 1-.914 3.011c-.199.489-.426.965-.672 1.426a15.62 15.62 0 0 1-1.754 2.621 15.77 15.77 0 0 1-1.058 1.168c-.371.375-.762.727-1.168 1.059-.406.336-.828.648-1.27.941-.437.293-.886.563-1.351.809-.465.25-.942.476-1.426.676a15.947 15.947 0 0 1-4.578 1.145c-.524.054-1.047.077-1.574.077h-64.309c-.523 0-1.05-.023-1.574-.078a14.989 14.989 0 0 1-1.559-.23 15.57 15.57 0 0 1-1.531-.383c-.504-.152-1-.328-1.484-.531-.489-.2-.965-.426-1.43-.676a15.832 15.832 0 0 1-2.617-1.75 15.03 15.03 0 0 1-1.172-1.059 16.688 16.688 0 0 1-1.059-1.168 16.599 16.599 0 0 1-.941-1.265 16.32 16.32 0 0 1-2.016-4.266 15.87 15.87 0 0 1-.613-3.09 15.117 15.117 0 0 1-.078-1.574 16.375 16.375 0 0 1 .309-3.137 15.87 15.87 0 0 1 .913-3.011 16.32 16.32 0 0 1 1.484-2.781 16.544 16.544 0 0 1 2.001-2.434 15.03 15.03 0 0 1 1.172-1.059 15.62 15.62 0 0 1 2.617-1.75c.465-.25.941-.476 1.43-.676.484-.203.98-.379 1.484-.53a15.662 15.662 0 0 1 1.531-.384c.516-.105 1.035-.18 1.559-.23.523-.055 1.05-.078 1.574-.078h64.309c.527 0 1.05.023 1.574.078a15.947 15.947 0 0 1 6.004 1.82c.465.246.914.516 1.351.809.442.293.864.605 1.27.941.406.332.797.684 1.168 1.059.37.37.726.761 1.058 1.168a15.62 15.62 0 0 1 1.754 2.62c.246.462.473.938.672 1.427.203.484.38.98.531 1.484.153.504.282 1.012.383 1.527.106.52.184 1.04.235 1.563.05.523.078 1.047.078 1.574Zm0 0" fill="#286eb0" data-color="1"></path>
        </g>
        <g clip-path="url(#bf119337-bdc6-4643-a83f-40b3266eb0f9_comp-lj8bnt34)">
            <path d="M191.176 560.785c0 .528-.028 1.05-.078 1.574a15.1 15.1 0 0 1-.235 1.563c-.101.515-.23 1.027-.383 1.527a15.981 15.981 0 0 1-1.203 2.914c-.25.461-.52.914-.812 1.352-.293.437-.606.86-.942 1.265a15.77 15.77 0 0 1-1.058 1.168c-.371.375-.762.727-1.168 1.063-.406.332-.828.644-1.27.937a16.17 16.17 0 0 1-1.351.813 16.333 16.333 0 0 1-2.91 1.203 16.176 16.176 0 0 1-4.668.691h-64.309c-.523 0-1.05-.023-1.574-.074a16.126 16.126 0 0 1-1.559-.234 15.57 15.57 0 0 1-1.531-.383c-.504-.152-1-.328-1.484-.531-.489-.2-.965-.426-1.43-.672a16.55 16.55 0 0 1-2.617-1.75 15.881 15.881 0 0 1-2.23-2.23 16.599 16.599 0 0 1-.942-1.266 16.37 16.37 0 0 1-1.484-2.777 16.86 16.86 0 0 1-.532-1.489 16.016 16.016 0 0 1-.613-3.09 15.117 15.117 0 0 1-.078-1.574 16.375 16.375 0 0 1 .309-3.137 15.87 15.87 0 0 1 .913-3.011 16.32 16.32 0 0 1 1.484-2.781c.294-.438.61-.86.942-1.266a15.828 15.828 0 0 1 2.23-2.227 15.62 15.62 0 0 1 2.618-1.75 15.919 15.919 0 0 1 2.914-1.207 16.114 16.114 0 0 1 4.664-.691h64.309c.527 0 1.05.023 1.574.078a16.016 16.016 0 0 1 7.355 2.629 15.822 15.822 0 0 1 3.496 3.168 15.62 15.62 0 0 1 1.754 2.62c.246.466.473.938.672 1.427.203.484.38.98.531 1.484.153.504.282 1.012.383 1.527.106.52.184 1.04.235 1.563.05.523.078 1.047.078 1.574Zm0 0" fill="#286eb0" data-color="1"></path>
        </g>
        <g clip-path="url(#d400ed56-d65a-4e85-9ef7-d5500f4825c5_comp-lj8bnt34)">
            <path d="M191.176 625.07c0 .528-.028 1.051-.078 1.578a15 15 0 0 1-.235 1.559 15.947 15.947 0 0 1-.914 3.016c-.199.484-.426.96-.672 1.425a16.291 16.291 0 0 1-2.812 3.79 15.882 15.882 0 0 1-2.438 1.996 16.16 16.16 0 0 1-1.351.812 16.333 16.333 0 0 1-4.442 1.59 16.274 16.274 0 0 1-3.137.309H110.79a16.336 16.336 0 0 1-3.133-.31 15.68 15.68 0 0 1-1.531-.386c-.504-.152-1-.328-1.484-.531-.489-.2-.965-.426-1.43-.672-.461-.25-.914-.52-1.352-.812a16.55 16.55 0 0 1-1.265-.938 16.82 16.82 0 0 1-1.172-1.058 16.751 16.751 0 0 1-2-2.438 16.25 16.25 0 0 1-2.016-4.262 15.946 15.946 0 0 1-.613-3.09 15.246 15.246 0 0 1-.078-1.578 16.114 16.114 0 0 1 1.223-6.148 16.25 16.25 0 0 1 1.484-2.777 15.925 15.925 0 0 1 3.172-3.497 15.62 15.62 0 0 1 2.617-1.75 15.919 15.919 0 0 1 2.914-1.207 16.114 16.114 0 0 1 4.664-.691h64.309a16.275 16.275 0 0 1 4.668.691c.504.153.996.332 1.484.532a16.37 16.37 0 0 1 2.777 1.484 15.77 15.77 0 0 1 2.438 2c.37.371.726.762 1.058 1.168a16.291 16.291 0 0 1 1.754 2.621c.246.465.473.938.672 1.426.203.484.38.98.531 1.484.153.504.282 1.012.383 1.532a15 15 0 0 1 .235 1.558c.05.524.078 1.05.078 1.574Zm0 0" fill="#286eb0" data-color="1"></path>
        </g>
    </g>
</svg>