<svg preserveAspectRatio="xMidYMid meet" data-bbox="46.5 46.441 675 675.059" height="1024" viewBox="46.5 46.441 675 675.059" width="1024" xmlns="http://www.w3.org/2000/svg" data-type="color" role="presentation" aria-hidden="true" aria-label="">
    <g>
        <defs>
            <clipPath id="2d762497-3fa7-4b51-9d1f-d80c41cda05a_comp-liedbpbq">
                <path d="M384 384h337.5v337.5H384Zm0 0"></path>
            </clipPath>
            <clipPath id="72ec6ac5-9d48-4cb6-afe7-0e60485bd7ef_comp-liedbpbq">
                <path d="M130 46.5h315V192H130Zm0 0"></path>
            </clipPath>
            <clipPath id="606eb06b-97cb-4b28-a5ee-1fb4ff5c7d66_comp-liedbpbq">
                <path d="M46.5 130H529v580H46.5Zm0 0"></path>
            </clipPath>
        </defs>
        <path d="M552.75 456.32c-1.578 0-3.156.04-4.73.118-1.579.078-3.153.195-4.723.347-1.57.156-3.137.348-4.695.578a98.581 98.581 0 0 0-9.282 1.848c-1.53.383-3.05.805-4.562 1.262a97.261 97.261 0 0 0-8.91 3.188 104.073 104.073 0 0 0-4.328 1.917 101.77 101.77 0 0 0-4.227 2.129c-1.39.746-2.762 1.523-4.117 2.332a94.533 94.533 0 0 0-4 2.535 95.495 95.495 0 0 0-7.598 5.637 93.273 93.273 0 0 0-7.012 6.355 93.273 93.273 0 0 0-6.355 7.012 95.495 95.495 0 0 0-5.637 7.598 94.533 94.533 0 0 0-2.535 4 104.091 104.091 0 0 0-2.332 4.117 101.77 101.77 0 0 0-2.129 4.227 104.073 104.073 0 0 0-1.918 4.328 97.261 97.261 0 0 0-3.187 8.91 97.349 97.349 0 0 0-1.262 4.562 98.581 98.581 0 0 0-1.848 9.281 99.356 99.356 0 0 0-.578 4.696c-.152 1.57-.27 3.144-.348 4.723a95.461 95.461 0 0 0 0 9.46c.079 1.579.196 3.153.348 4.723.156 1.57.348 3.137.578 4.695a98.581 98.581 0 0 0 1.848 9.282c.383 1.53.805 3.05 1.262 4.562a97.261 97.261 0 0 0 3.188 8.91 101.674 101.674 0 0 0 1.917 4.325 99.537 99.537 0 0 0 2.129 4.23c.746 1.39 1.523 2.762 2.332 4.117a97.1 97.1 0 0 0 5.258 7.867 92.784 92.784 0 0 0 2.914 3.73 93.273 93.273 0 0 0 6.355 7.013 93.273 93.273 0 0 0 7.012 6.355 95.495 95.495 0 0 0 7.598 5.637 94.533 94.533 0 0 0 4 2.535c1.355.809 2.726 1.586 4.117 2.332 1.394.742 2.8 1.453 4.227 2.129 1.43.672 2.87 1.312 4.328 1.918a97.261 97.261 0 0 0 8.91 3.187c1.512.457 3.031.88 4.562 1.262a98.581 98.581 0 0 0 9.281 1.848c1.56.23 3.126.422 4.696.578 1.57.152 3.144.27 4.723.347a95.461 95.461 0 0 0 9.46 0c1.579-.078 3.153-.195 4.723-.347a99.356 99.356 0 0 0 4.695-.578 98.581 98.581 0 0 0 9.282-1.848 97.349 97.349 0 0 0 4.562-1.262 97.261 97.261 0 0 0 8.91-3.188 101.674 101.674 0 0 0 4.325-1.917 99.537 99.537 0 0 0 4.23-2.129c1.39-.746 2.762-1.523 4.117-2.332a97.1 97.1 0 0 0 7.867-5.258 92.784 92.784 0 0 0 3.73-2.914 93.273 93.273 0 0 0 7.013-6.355 93.273 93.273 0 0 0 6.355-7.012 95.495 95.495 0 0 0 5.637-7.598 97.1 97.1 0 0 0 2.535-4 104.091 104.091 0 0 0 2.332-4.117 99.537 99.537 0 0 0 2.129-4.23 101.674 101.674 0 0 0 1.918-4.325 97.261 97.261 0 0 0 3.187-8.91 97.349 97.349 0 0 0 1.262-4.562c.383-1.532.73-3.07 1.035-4.617.309-1.547.578-3.102.809-4.665a94.496 94.496 0 0 0 .93-9.418c.078-1.574.117-3.152.117-4.73a95.593 95.593 0 0 0-.125-4.73 95.457 95.457 0 0 0-.938-9.41 98.583 98.583 0 0 0-.812-4.665 93.637 93.637 0 0 0-1.043-4.613 91.507 91.507 0 0 0-1.266-4.559 98.919 98.919 0 0 0-3.191-8.906 97.02 97.02 0 0 0-8.918-16.66 97.213 97.213 0 0 0-5.637-7.594 96.219 96.219 0 0 0-3.09-3.582 100.266 100.266 0 0 0-3.262-3.43 100.266 100.266 0 0 0-3.43-3.261 96.219 96.219 0 0 0-7.308-6 97.213 97.213 0 0 0-3.867-2.727 96.878 96.878 0 0 0-16.66-8.918 98.919 98.919 0 0 0-8.906-3.191 91.507 91.507 0 0 0-4.559-1.266 93.637 93.637 0 0 0-4.613-1.043 98.583 98.583 0 0 0-9.356-1.398 95.457 95.457 0 0 0-4.719-.352 95.593 95.593 0 0 0-4.73-.125Zm0 84.375c1.05.008 2.098.063 3.145.164a34.88 34.88 0 0 1 3.113.434 36.55 36.55 0 0 1 6.063 1.668 35.8 35.8 0 0 1 2.902 1.226 35.434 35.434 0 0 1 5.422 3.18 36.248 36.248 0 0 1 8.809 8.91 36.19 36.19 0 0 1 1.675 2.66 36.393 36.393 0 0 1 4.23 11.797 36.25 36.25 0 0 1 .395 3.121 35.2 35.2 0 0 1 .125 3.145 36.584 36.584 0 0 1-.149 3.14 35.015 35.015 0 0 1-.421 3.122 37.848 37.848 0 0 1-.692 3.07 36.581 36.581 0 0 1-2.168 5.902c-.449.95-.933 1.88-1.46 2.786a35.513 35.513 0 0 1-1.7 2.652 36.133 36.133 0 0 1-6.375 6.926 36.815 36.815 0 0 1-2.5 1.914 36.337 36.337 0 0 1-8.36 4.336v14.222c0 .793-.077 1.578-.234 2.352a11.985 11.985 0 0 1-1.797 4.348 12.054 12.054 0 0 1-18.547 1.824 12.217 12.217 0 0 1-1.5-1.824 11.985 11.985 0 0 1-1.797-4.348 11.855 11.855 0 0 1-.234-2.352v-14.222a35.75 35.75 0 0 1-5.062-2.254 36.004 36.004 0 0 1-8.813-6.672 35.84 35.84 0 0 1-3.543-4.262 35.948 35.948 0 0 1-2.851-4.754 36.063 36.063 0 0 1-3.383-10.523 35.886 35.886 0 0 1-.453-5.528c0-.789.078-1.574.23-2.351a12.08 12.08 0 0 1 .688-2.258c.3-.734.672-1.426 1.113-2.086a11.97 11.97 0 0 1 3.324-3.324c.66-.441 1.356-.813 2.086-1.113a11.996 11.996 0 0 1 4.614-.918 11.91 11.91 0 0 1 4.609.918c.734.3 1.426.672 2.086 1.113a11.97 11.97 0 0 1 3.324 3.324c.441.66.813 1.352 1.113 2.086a11.91 11.91 0 0 1 .918 4.61c0 .792.078 1.578.235 2.351a11.985 11.985 0 0 0 1.797 4.348c.441.656.941 1.265 1.5 1.824a11.604 11.604 0 0 0 1.828 1.5c.656.441 1.351.812 2.082 1.113a11.996 11.996 0 0 0 4.613.918 11.996 11.996 0 0 0 4.613-.918c.73-.3 1.426-.672 2.082-1.113.66-.438 1.27-.938 1.828-1.5a12.217 12.217 0 0 0 1.5-1.824 11.985 11.985 0 0 0 1.797-4.348 11.855 11.855 0 0 0 0-4.703 12.034 12.034 0 0 0-7.207-8.781 11.996 11.996 0 0 0-4.613-.918 35.242 35.242 0 0 1-3.145-.164 35.166 35.166 0 0 1-3.117-.434 36.55 36.55 0 0 1-6.059-1.668 37.097 37.097 0 0 1-2.902-1.226 37.778 37.778 0 0 1-2.78-1.47 35.434 35.434 0 0 1-2.642-1.71 36.248 36.248 0 0 1-8.809-8.91 36.19 36.19 0 0 1-1.675-2.66 36.393 36.393 0 0 1-4.23-11.797 36.232 36.232 0 0 1-.395-3.121 35.2 35.2 0 0 1-.125-3.145 36.66 36.66 0 0 1 .149-3.14c.093-1.048.234-2.087.421-3.122.188-1.031.418-2.054.692-3.07a36.581 36.581 0 0 1 2.168-5.902c.449-.95.933-1.88 1.46-2.786a35.513 35.513 0 0 1 1.7-2.652 36.133 36.133 0 0 1 6.375-6.926 36.815 36.815 0 0 1 2.5-1.914 36.337 36.337 0 0 1 8.36-4.336V480.43c0-.793.077-1.578.234-2.352a11.985 11.985 0 0 1 1.797-4.348 12.054 12.054 0 0 1 18.547-1.824 12.217 12.217 0 0 1 1.5 1.824 11.985 11.985 0 0 1 1.797 4.348c.156.774.234 1.559.234 2.352v14.222a35.75 35.75 0 0 1 5.062 2.254 36.272 36.272 0 0 1 4.664 2.996 36.337 36.337 0 0 1 4.149 3.676 35.84 35.84 0 0 1 3.543 4.262 35.948 35.948 0 0 1 2.851 4.754 36.063 36.063 0 0 1 3.383 10.523c.293 1.832.445 3.672.453 5.528 0 .789-.078 1.574-.23 2.351a12.046 12.046 0 0 1-.688 2.258 11.75 11.75 0 0 1-1.113 2.086 11.754 11.754 0 0 1-1.5 1.824 11.755 11.755 0 0 1-1.824 1.5c-.66.441-1.356.813-2.086 1.113a11.996 11.996 0 0 1-4.614.918 11.91 11.91 0 0 1-4.609-.918 11.75 11.75 0 0 1-2.086-1.113 11.97 11.97 0 0 1-3.324-3.324 11.75 11.75 0 0 1-1.113-2.086 11.91 11.91 0 0 1-.918-4.61c0-.792-.078-1.578-.235-2.351a11.985 11.985 0 0 0-1.797-4.348 12.217 12.217 0 0 0-1.5-1.824 11.604 11.604 0 0 0-1.828-1.5 11.715 11.715 0 0 0-2.082-1.113 11.996 11.996 0 0 0-4.613-.918 11.996 11.996 0 0 0-4.613.918c-.73.3-1.426.672-2.082 1.113-.66.438-1.27.938-1.828 1.5a12.217 12.217 0 0 0-1.5 1.824 11.985 11.985 0 0 0-1.797 4.348 11.855 11.855 0 0 0 0 4.703 12.034 12.034 0 0 0 7.207 8.781 11.996 11.996 0 0 0 4.613.918Zm0 0" fill="#0077b8" data-color="1"></path>
        <g clip-path="url(#2d762497-3fa7-4b51-9d1f-d80c41cda05a_comp-liedbpbq)">
            <path d="M552.75 384c-2.762 0-5.523.066-8.281.203-2.758.137-5.512.34-8.258.61-2.75.269-5.488.609-8.223 1.015-2.73.402-5.453.875-8.16 1.414-2.707.54-5.402 1.145-8.082 1.817a168.412 168.412 0 0 0-23.574 7.785 167.612 167.612 0 0 0-7.57 3.36 165.69 165.69 0 0 0-7.399 3.722 167.41 167.41 0 0 0-7.207 4.082 173.168 173.168 0 0 0-7 4.43 170.091 170.091 0 0 0-13.3 9.867 168.979 168.979 0 0 0-12.27 11.121 168.979 168.979 0 0 0-11.121 12.27 171.273 171.273 0 0 0-5.098 6.53 172.986 172.986 0 0 0-4.77 6.77 173.168 173.168 0 0 0-4.43 7 167.41 167.41 0 0 0-4.081 7.207 165.69 165.69 0 0 0-3.723 7.399 167.612 167.612 0 0 0-8.937 23.164c-.801 2.64-1.54 5.3-2.207 7.98a168.733 168.733 0 0 0-1.817 8.082 164.599 164.599 0 0 0-1.414 8.16 166.31 166.31 0 0 0-1.015 8.223c-.27 2.746-.473 5.5-.61 8.258-.137 2.758-.203 5.52-.203 8.281 0 2.762.066 5.523.203 8.281.137 2.758.34 5.512.61 8.258.269 2.75.609 5.488 1.015 8.223.402 2.73.875 5.449 1.414 8.16.54 2.707 1.145 5.402 1.817 8.082a168.412 168.412 0 0 0 7.785 23.574 167.612 167.612 0 0 0 3.36 7.57 167.825 167.825 0 0 0 7.804 14.606 173.168 173.168 0 0 0 4.43 7 172.986 172.986 0 0 0 4.769 6.77 168.114 168.114 0 0 0 10.508 12.8 168.979 168.979 0 0 0 5.71 6 168.979 168.979 0 0 0 12.27 11.121 171.273 171.273 0 0 0 6.532 5.098 169.032 169.032 0 0 0 20.977 13.281 165.69 165.69 0 0 0 7.398 3.723c2.496 1.183 5.02 2.3 7.57 3.36a168.412 168.412 0 0 0 23.574 7.785c2.68.671 5.375 1.277 8.082 1.816 2.707.539 5.43 1.012 8.16 1.414 2.735.406 5.473.746 8.223 1.015 2.746.27 5.5.473 8.258.61 2.758.137 5.52.203 8.281.203 2.762 0 5.523-.066 8.281-.203 2.758-.137 5.512-.34 8.258-.61 2.75-.269 5.488-.609 8.223-1.015 2.73-.402 5.449-.875 8.16-1.414 2.707-.54 5.402-1.145 8.082-1.817a168.412 168.412 0 0 0 23.574-7.785 167.612 167.612 0 0 0 7.57-3.36 167.825 167.825 0 0 0 14.606-7.804 169.032 169.032 0 0 0 26.57-19.707 168.979 168.979 0 0 0 6-5.71 168.979 168.979 0 0 0 11.121-12.27 168.812 168.812 0 0 0 14.297-20.3 167.825 167.825 0 0 0 7.805-14.605 170.83 170.83 0 0 0 3.36-7.572 168.412 168.412 0 0 0 7.785-23.574c.671-2.68 1.277-5.375 1.816-8.082.539-2.711 1.012-5.43 1.414-8.16a166.31 166.31 0 0 0 1.015-8.223c.27-2.746.473-5.5.61-8.258.137-2.758.203-5.52.203-8.281a172.02 172.02 0 0 0-.21-8.277 173.816 173.816 0 0 0-.618-8.258 166.039 166.039 0 0 0-1.024-8.215 168.615 168.615 0 0 0-8.059-32.074 167.467 167.467 0 0 0-6.344-15.293 169.663 169.663 0 0 0-7.809-14.598 171.545 171.545 0 0 0-4.432-6.996 169.96 169.96 0 0 0-9.863-13.293 165.502 165.502 0 0 0-5.41-6.27 165.571 165.571 0 0 0-5.711-5.996 165.571 165.571 0 0 0-5.997-5.71 168.024 168.024 0 0 0-12.797-10.504 169.96 169.96 0 0 0-6.765-4.77 171.545 171.545 0 0 0-6.996-4.433 169.663 169.663 0 0 0-22.164-11.168 165.091 165.091 0 0 0-7.727-2.985c-2.597-.933-5.219-1.8-7.86-2.601a168.615 168.615 0 0 0-24.215-5.457 166.817 166.817 0 0 0-16.472-1.641 172.02 172.02 0 0 0-8.277-.211Zm0 289.285c-1.973 0-3.945-.047-5.914-.144a124.507 124.507 0 0 1-5.902-.434 122.476 122.476 0 0 1-11.7-1.738 118.128 118.128 0 0 1-5.773-1.297 114.968 114.968 0 0 1-5.7-1.578 116.36 116.36 0 0 1-5.616-1.856 119.04 119.04 0 0 1-10.93-4.527 115.123 115.123 0 0 1-5.285-2.656 123.576 123.576 0 0 1-5.149-2.918 125.135 125.135 0 0 1-4.996-3.164 126.693 126.693 0 0 1-4.84-3.407 120.143 120.143 0 0 1-13.426-11.586 120.143 120.143 0 0 1-18.156-23.262 119.286 119.286 0 0 1-5.578-10.433 121.589 121.589 0 0 1-4.523-10.93 112.449 112.449 0 0 1-1.856-5.617 114.968 114.968 0 0 1-1.578-5.699c-.48-1.914-.914-3.84-1.297-5.773a117.964 117.964 0 0 1-1.011-5.828c-.29-1.954-.532-3.91-.727-5.872a124.507 124.507 0 0 1-.434-5.902 119.394 119.394 0 0 1-.144-5.914 120.195 120.195 0 0 1 3.613-29.289 114.968 114.968 0 0 1 1.578-5.7c.57-1.89 1.188-3.761 1.856-5.616.664-1.86 1.37-3.7 2.129-5.524a119.297 119.297 0 0 1 7.973-15.84 122.45 122.45 0 0 1 6.57-9.836 120.143 120.143 0 0 1 11.586-13.426 120.143 120.143 0 0 1 23.262-18.156 119.286 119.286 0 0 1 10.433-5.578c1.781-.84 3.586-1.64 5.406-2.394a116.678 116.678 0 0 1 5.524-2.13 116.616 116.616 0 0 1 5.617-1.855 114.968 114.968 0 0 1 5.699-1.578c1.914-.48 3.84-.914 5.773-1.297a122.517 122.517 0 0 1 11.7-1.738 120.195 120.195 0 0 1 11.816-.578 120.195 120.195 0 0 1 29.289 3.613c1.914.477 3.813 1.004 5.7 1.578 1.89.57 3.761 1.192 5.616 1.856 1.86.664 3.7 1.37 5.52 2.129a119.297 119.297 0 0 1 15.844 7.973 122.45 122.45 0 0 1 9.836 6.57 120.143 120.143 0 0 1 13.426 11.586 120.905 120.905 0 0 1 7.945 8.761 126.643 126.643 0 0 1 3.64 4.664c1.172 1.586 2.309 3.2 3.407 4.84a125.135 125.135 0 0 1 3.164 4.996 123.576 123.576 0 0 1 2.918 5.149c.93 1.738 1.816 3.5 2.656 5.285a119.04 119.04 0 0 1 4.527 10.93 116.616 116.616 0 0 1 1.856 5.617 114.968 114.968 0 0 1 1.578 5.699c.48 1.914.914 3.84 1.297 5.773a122.517 122.517 0 0 1 1.738 11.7 120.195 120.195 0 0 1 .578 11.816 124.202 124.202 0 0 1-.152 5.91 124 124 0 0 1-.446 5.899 123.35 123.35 0 0 1-.73 5.867 121.774 121.774 0 0 1-2.32 11.594 124.269 124.269 0 0 1-1.586 5.699 117.963 117.963 0 0 1-1.86 5.613 116.449 116.449 0 0 1-2.132 5.516 118.896 118.896 0 0 1-5.063 10.683 119.15 119.15 0 0 1-2.918 5.145 125.134 125.134 0 0 1-3.164 4.996 122.278 122.278 0 0 1-7.047 9.492 120.647 120.647 0 0 1-12.226 12.84 120.647 120.647 0 0 1-45.922 26.047 124.269 124.269 0 0 1-5.7 1.586 121.774 121.774 0 0 1-11.594 2.32c-1.948.29-3.905.535-5.866.73a124 124 0 0 1-5.899.446c-1.969.097-3.937.148-5.91.152Zm0 0" fill="#0077b8" data-color="1"></path>
        </g>
        <g clip-path="url(#72ec6ac5-9d48-4cb6-afe7-0e60485bd7ef_comp-liedbpbq)">
            <path d="M408.105 94.715h-61.472a57.847 57.847 0 0 0-1.242-5.008 59.956 59.956 0 0 0-6.22-14.137 59.834 59.834 0 0 0-6.062-8.34 58.545 58.545 0 0 0-3.546-3.753 59.5 59.5 0 0 0-3.852-3.434 59.748 59.748 0 0 0-8.512-5.816 60.31 60.31 0 0 0-9.379-4.285 60.466 60.466 0 0 0-15.093-3.282 59.76 59.76 0 0 0-5.157-.219 59.893 59.893 0 0 0-10.273.88 60.411 60.411 0 0 0-14.754 4.562 59.108 59.108 0 0 0-4.598 2.344c-1.5.843-2.96 1.753-4.382 2.726a59.82 59.82 0 0 0-7.985 6.524 58.485 58.485 0 0 0-3.543 3.753 59.164 59.164 0 0 0-3.21 4.04 58.55 58.55 0 0 0-2.852 4.3 60.327 60.327 0 0 0-7.465 19.145h-61.473c-1.183 0-2.363.058-3.543.172a36.77 36.77 0 0 0-6.953 1.383 35.056 35.056 0 0 0-3.34 1.199 35.923 35.923 0 0 0-6.254 3.34 36.58 36.58 0 0 0-2.851 2.113 37.04 37.04 0 0 0-2.63 2.383 37.954 37.954 0 0 0-2.382 2.629 37.606 37.606 0 0 0-2.113 2.851c-.656.985-1.266 2-1.824 3.043a36.37 36.37 0 0 0-2.711 6.55 36.031 36.031 0 0 0-1.559 10.497v24.105c0 1.188.059 2.368.176 3.547.113 1.18.289 2.348.52 3.508a36.137 36.137 0 0 0 5.398 13.035 36.105 36.105 0 0 0 9.976 9.977c.985.66 2 1.27 3.043 1.828a37.04 37.04 0 0 0 3.211 1.516 36.137 36.137 0 0 0 13.836 2.754h241.07a35.82 35.82 0 0 0 3.547-.176 36.108 36.108 0 0 0 10.293-2.578 36.966 36.966 0 0 0 3.207-1.516 35.248 35.248 0 0 0 3.043-1.828 34.921 34.921 0 0 0 2.852-2.113 35.275 35.275 0 0 0 2.629-2.383 35.275 35.275 0 0 0 2.383-2.63 34.26 34.26 0 0 0 2.113-2.85c.66-.985 1.27-1.997 1.824-3.044a35.885 35.885 0 0 0 2.715-6.547 35.817 35.817 0 0 0 1.383-6.953c.117-1.18.176-2.359.176-3.547v-24.105a36.575 36.575 0 0 0-.695-7.055 36.626 36.626 0 0 0-2.059-6.785 36.405 36.405 0 0 0-5.457-9.101 36.069 36.069 0 0 0-7.864-7.125 36.225 36.225 0 0 0-9.59-4.54 36.69 36.69 0 0 0-6.953-1.383 37.046 37.046 0 0 0-3.547-.171Zm0 0" fill="#0077b8" data-color="1"></path>
        </g>
        <path d="M142.93 359.895h48.226v48.21H142.93Zm0 0" fill="#0077b8" data-color="1"></path>
        <path d="M263.465 323.73h48.226v84.375h-48.226Zm0 0" fill="#0077b8" data-color="1"></path>
        <path d="M432.215 275.52v126.8c-2.29 1.809-4.582 3.739-6.75 5.785H384V275.52Zm0 0" fill="#0077b8" data-color="1"></path>
        <g clip-path="url(#606eb06b-97cb-4b28-a5ee-1fb4ff5c7d66_comp-liedbpbq)">
            <path d="M468.375 130.875v24.105c0 1.977-.098 3.946-.29 5.91a61.329 61.329 0 0 1-.866 5.848 61.29 61.29 0 0 1-1.438 5.739 60.936 60.936 0 0 1-1.992 5.57 60.698 60.698 0 0 1-5.57 10.418 60.348 60.348 0 0 1-16.629 16.629 59.446 59.446 0 0 1-5.074 3.039 61.23 61.23 0 0 1-5.344 2.531 60.936 60.936 0 0 1-5.57 1.992 61.29 61.29 0 0 1-5.739 1.438 61.329 61.329 0 0 1-5.847.867 61.04 61.04 0 0 1-5.91.289h-241.07c-1.974 0-3.942-.098-5.907-.29a61.594 61.594 0 0 1-5.852-.866 61.907 61.907 0 0 1-5.738-1.438 61.28 61.28 0 0 1-5.566-1.992 60.686 60.686 0 0 1-10.422-5.57 61.449 61.449 0 0 1-4.75-3.524 62.03 62.03 0 0 1-4.383-3.972 59.407 59.407 0 0 1-3.969-4.383 60.518 60.518 0 0 1-6.566-9.824 59.57 59.57 0 0 1-2.528-5.344 60.936 60.936 0 0 1-1.992-5.57 60.096 60.096 0 0 1-2.304-11.586 59.69 59.69 0 0 1-.29-5.91v-24.106c-1.976 0-3.945.098-5.91.29a61.329 61.329 0 0 0-5.847.866 61.29 61.29 0 0 0-5.739 1.438 60.936 60.936 0 0 0-5.57 1.992 60.698 60.698 0 0 0-10.418 5.57 60.348 60.348 0 0 0-16.629 16.629 60.698 60.698 0 0 0-5.57 10.418 60.936 60.936 0 0 0-1.992 5.57 61.29 61.29 0 0 0-1.438 5.739 61.329 61.329 0 0 0-.867 5.847 60.903 60.903 0 0 0-.289 5.91V649.18a60.704 60.704 0 0 0 1.156 11.757 61.518 61.518 0 0 0 1.438 5.735 60.936 60.936 0 0 0 1.992 5.57 61.303 61.303 0 0 0 2.531 5.348 59.992 59.992 0 0 0 6.563 9.82 60.348 60.348 0 0 0 13.105 11.88 59.446 59.446 0 0 0 5.074 3.038 59.604 59.604 0 0 0 10.914 4.524 60.096 60.096 0 0 0 11.586 2.304 59.69 59.69 0 0 0 5.91.29h333.762a193.774 193.774 0 0 1-7.82-5.887 192.615 192.615 0 0 1-14.691-12.934 192.732 192.732 0 0 1-13.301-14.36 191.948 191.948 0 0 1-17.055-23.878 192.464 192.464 0 0 1-9.262-17.242 190.53 190.53 0 0 1-7.464-18.094 190.177 190.177 0 0 1-3.032-9.309 192.679 192.679 0 0 1-2.558-9.449 194.94 194.94 0 0 1-2.07-9.57 192.068 192.068 0 0 1-2.673-19.387 191.21 191.21 0 0 1-.593-9.774 190.181 190.181 0 0 1-.098-9.789c.05-3.265.188-6.523.402-9.78.22-3.259.516-6.509.899-9.75a192.7 192.7 0 0 1 1.394-9.688 191.407 191.407 0 0 1 1.883-9.61 190.258 190.258 0 0 1 5.219-18.863 191.394 191.394 0 0 1 3.32-9.207 198.49 198.49 0 0 1 3.785-9.031 194.583 194.583 0 0 1 4.243-8.824 190.401 190.401 0 0 1 4.683-8.594 187.737 187.737 0 0 1 5.113-8.348 186.652 186.652 0 0 1 5.532-8.078c1.91-2.645 3.89-5.242 5.933-7.785H384a23.803 23.803 0 0 1-2.36-.125 24.226 24.226 0 0 1-8.992-2.742 25.252 25.252 0 0 1-2.023-1.22 22.957 22.957 0 0 1-1.898-1.41 24.053 24.053 0 0 1-4.75-5.234 24.183 24.183 0 0 1-1.215-2.027 23.752 23.752 0 0 1-1.016-2.137c-.3-.726-.57-1.468-.8-2.222a24.304 24.304 0 0 1-.93-4.63 23.877 23.877 0 0 1-.121-2.363V275.52a23.877 23.877 0 0 1 .472-4.7c.156-.773.348-1.539.578-2.293a24.39 24.39 0 0 1 3.032-6.386 24.053 24.053 0 0 1 3-3.648 23.215 23.215 0 0 1 1.75-1.587 23.019 23.019 0 0 1 1.898-1.41 25.252 25.252 0 0 1 2.023-1.219 24.234 24.234 0 0 1 6.653-2.39 23.637 23.637 0 0 1 2.34-.352 24.14 24.14 0 0 1 2.359-.125h48.215c.789.004 1.574.043 2.36.125a24.225 24.225 0 0 1 8.988 2.742c.695.375 1.37.782 2.027 1.22.656.437 1.289.905 1.898 1.41a24.053 24.053 0 0 1 4.75 5.234 24.03 24.03 0 0 1 1.215 2.027 23.752 23.752 0 0 1 1.813 4.36c.23.753.425 1.519.582 2.292a23.913 23.913 0 0 1 .472 4.7v110.41a187.352 187.352 0 0 1 34.907-15.95 187.242 187.242 0 0 1 37.418-8.52V191.146c0-1.977-.098-3.946-.293-5.91a58.935 58.935 0 0 0-.868-5.848 58.947 58.947 0 0 0-1.437-5.739 59.79 59.79 0 0 0-1.992-5.57 59.571 59.571 0 0 0-2.528-5.344 59.487 59.487 0 0 0-3.043-5.074 58.789 58.789 0 0 0-3.523-4.75 59.407 59.407 0 0 0-3.969-4.383 62.03 62.03 0 0 0-4.383-3.972 61.449 61.449 0 0 0-4.75-3.524 59.446 59.446 0 0 0-5.074-3.039 61.303 61.303 0 0 0-5.348-2.531 61.28 61.28 0 0 0-5.566-1.992c-1.89-.57-3.8-1.051-5.738-1.438a61.594 61.594 0 0 0-5.852-.867 60.883 60.883 0 0 0-5.906-.289ZM239.355 323.73c.004-.789.043-1.574.125-2.359a24.304 24.304 0 0 1 .93-4.629 24.153 24.153 0 0 1 1.817-4.359 23.877 23.877 0 0 1 2.625-3.926c.5-.61 1.03-1.191 1.585-1.75a24.058 24.058 0 0 1 1.754-1.586c.61-.504 1.243-.973 1.899-1.41a23.541 23.541 0 0 1 4.16-2.23c.727-.305 1.469-.57 2.223-.801a24.863 24.863 0 0 1 4.633-.934c.78-.078 1.57-.117 2.359-.121h48.215c.789.004 1.574.043 2.36.121a24.782 24.782 0 0 1 4.628.934 24.011 24.011 0 0 1 4.36 1.812 24.225 24.225 0 0 1 5.675 4.215 23.83 23.83 0 0 1 2.996 3.648 23.72 23.72 0 0 1 2.23 4.164 24.323 24.323 0 0 1 1.383 4.516 23.798 23.798 0 0 1 .473 4.695v84.375a23.877 23.877 0 0 1-.473 4.7 24.323 24.323 0 0 1-5.019 10.578 24.984 24.984 0 0 1-1.59 1.75 24 24 0 0 1-1.75 1.586 23.19 23.19 0 0 1-1.898 1.41 24.162 24.162 0 0 1-11.016 3.96c-.785.083-1.57.122-2.36.126h-48.214a23.74 23.74 0 0 1-2.36-.125 23.637 23.637 0 0 1-2.34-.352 24.61 24.61 0 0 1-2.292-.578 23.537 23.537 0 0 1-2.223-.8 24.365 24.365 0 0 1-2.137-1.012 24.58 24.58 0 0 1-3.922-2.63 24.348 24.348 0 0 1-1.754-1.585 24.928 24.928 0 0 1-1.585-1.75 23.876 23.876 0 0 1-2.625-3.926 23.752 23.752 0 0 1-1.016-2.137c-.3-.726-.57-1.468-.8-2.222a24.304 24.304 0 0 1-1.056-6.993Zm-12.05 168.75h36.16c.789 0 1.574.079 2.351.235a11.985 11.985 0 0 1 4.344 1.797 12.054 12.054 0 0 1-6.695 22.078h-36.16a12.15 12.15 0 0 1-2.352-.23 12.29 12.29 0 0 1-2.262-.688 12.429 12.429 0 0 1-2.086-1.113 12.054 12.054 0 0 1-1.824-18.547 12.217 12.217 0 0 1 1.824-1.5 11.985 11.985 0 0 1 4.348-1.797 11.855 11.855 0 0 1 2.352-.235ZM118.82 359.895c.004-.79.043-1.579.125-2.364a24.303 24.303 0 0 1 .93-4.629c.23-.754.496-1.496.8-2.222.305-.73.641-1.442 1.013-2.137.374-.695.78-1.371 1.218-2.027a23.999 23.999 0 0 1 4.75-5.234c.61-.505 1.242-.973 1.895-1.41a23.72 23.72 0 0 1 4.164-2.23 23.079 23.079 0 0 1 2.222-.802 24.303 24.303 0 0 1 6.993-1.055h48.215c.789.004 1.574.043 2.359.125a24.303 24.303 0 0 1 4.629.93c.754.23 1.496.496 2.222.8a23.72 23.72 0 0 1 4.165 2.231c.656.438 1.289.906 1.898 1.41a24 24 0 0 1 1.75 1.586 23.83 23.83 0 0 1 2.996 3.648 23.72 23.72 0 0 1 2.23 4.164c.305.727.57 1.47.801 2.223a24.782 24.782 0 0 1 .934 4.629 25.2 25.2 0 0 1 .121 2.364v48.21a25.2 25.2 0 0 1-.121 2.364 24.782 24.782 0 0 1-.934 4.629c-.23.754-.496 1.496-.8 2.222a23.72 23.72 0 0 1-2.23 4.164 23.83 23.83 0 0 1-4.747 5.235 23.19 23.19 0 0 1-1.898 1.41 23.72 23.72 0 0 1-4.164 2.23c-.727.305-1.47.57-2.223.801a24.303 24.303 0 0 1-6.988 1.055H142.93a23.881 23.881 0 0 1-2.364-.125 24.303 24.303 0 0 1-4.629-.93 23.537 23.537 0 0 1-2.222-.8 23.72 23.72 0 0 1-4.164-2.231 23.572 23.572 0 0 1-1.895-1.41 23.999 23.999 0 0 1-3.34-3.336c-.5-.61-.972-1.242-1.41-1.899a25.324 25.324 0 0 1-1.219-2.027 24.834 24.834 0 0 1-1.011-2.137 23.538 23.538 0 0 1-.801-2.222 24.303 24.303 0 0 1-1.055-6.993Zm0 132.585h72.325c.789 0 1.574.079 2.351.235a12.034 12.034 0 0 1 8.781 7.207 11.996 11.996 0 0 1 .918 4.613 11.996 11.996 0 0 1-.918 4.613c-.3.73-.672 1.426-1.113 2.082a11.58 11.58 0 0 1-1.5 1.829 12.217 12.217 0 0 1-1.824 1.5 12.28 12.28 0 0 1-2.086 1.113c-.73.3-1.484.531-2.258.687a12.15 12.15 0 0 1-2.351.23H118.82a12.15 12.15 0 0 1-2.351-.23 12.475 12.475 0 0 1-2.262-.687 12.243 12.243 0 0 1-2.082-1.113 12.248 12.248 0 0 1-1.828-1.5 11.8 11.8 0 0 1-1.496-1.829 11.992 11.992 0 0 1-1.117-2.082 11.935 11.935 0 0 1-.684-2.261 11.88 11.88 0 0 1-.23-2.352c0-.789.074-1.574.23-2.351a11.923 11.923 0 0 1 1.801-4.344 11.8 11.8 0 0 1 1.496-1.828 12.248 12.248 0 0 1 1.828-1.5 12.243 12.243 0 0 1 2.082-1.114 12.16 12.16 0 0 1 4.613-.918Zm0 60.27h24.11c.789 0 1.574.078 2.351.23.774.157 1.528.383 2.262.688.73.3 1.426.672 2.082 1.113.66.442 1.266.942 1.828 1.5a12.17 12.17 0 0 1 2.613 3.91c.301.73.532 1.485.684 2.262.156.774.23 1.559.23 2.352 0 .789-.074 1.574-.23 2.351a12.16 12.16 0 0 1-.684 2.262 12.18 12.18 0 0 1-2.613 3.91 11.987 11.987 0 0 1-1.828 1.496 11.913 11.913 0 0 1-4.344 1.801 11.91 11.91 0 0 1-2.351.23h-24.11a11.92 11.92 0 0 1-2.351-.23 12.16 12.16 0 0 1-2.262-.684 11.992 11.992 0 0 1-2.082-1.117 11.987 11.987 0 0 1-1.828-1.496 12.18 12.18 0 0 1-2.613-3.91 12.16 12.16 0 0 1-.684-2.262 11.91 11.91 0 0 1-.23-2.351c0-.793.074-1.578.23-2.352a11.985 11.985 0 0 1 1.8-4.348c.438-.656.938-1.265 1.497-1.824a12.248 12.248 0 0 1 1.828-1.5 11.715 11.715 0 0 1 2.082-1.113 12.173 12.173 0 0 1 2.262-.688 12.23 12.23 0 0 1 2.351-.23Zm72.325 84.375H118.82a12.23 12.23 0 0 1-2.351-.23 12.173 12.173 0 0 1-2.262-.688 11.96 11.96 0 0 1-2.082-1.113 12.248 12.248 0 0 1-1.828-1.5 12.17 12.17 0 0 1-2.613-3.91 11.945 11.945 0 0 1-.684-2.262 11.852 11.852 0 0 1-.23-2.352c0-.789.074-1.574.23-2.351a12.16 12.16 0 0 1 .684-2.262c.304-.73.675-1.426 1.117-2.082.437-.66.937-1.266 1.496-1.828a11.987 11.987 0 0 1 1.828-1.496 11.992 11.992 0 0 1 2.082-1.117 12.16 12.16 0 0 1 2.262-.684 11.91 11.91 0 0 1 2.351-.23h72.325a12.034 12.034 0 0 1 11.133 7.438 11.937 11.937 0 0 1 .917 4.612 11.996 11.996 0 0 1-.918 4.613 11.88 11.88 0 0 1-1.113 2.087 12.217 12.217 0 0 1-3.324 3.324c-.66.437-1.352.812-2.086 1.113-.73.305-1.484.531-2.258.688a12.23 12.23 0 0 1-2.351.23Zm144.64 0h-108.48a11.996 11.996 0 0 1-4.613-.918c-.731-.3-1.426-.676-2.087-1.113a12.217 12.217 0 0 1-3.324-3.324 11.886 11.886 0 0 1-1.113-2.086 11.996 11.996 0 0 1-.918-4.614c0-.789.078-1.574.23-2.351.157-.774.383-1.528.688-2.262.3-.73.672-1.426 1.113-2.082.442-.66.942-1.266 1.5-1.828a12.17 12.17 0 0 1 3.91-2.613c.73-.301 1.485-.532 2.262-.684.774-.156 1.559-.23 2.352-.23h108.48c.793 0 1.574.074 2.352.23a11.935 11.935 0 0 1 4.343 1.801 11.8 11.8 0 0 1 1.829 1.496 12.248 12.248 0 0 1 1.5 1.828c.437.656.808 1.352 1.113 2.082.3.734.531 1.488.687 2.262a12.15 12.15 0 0 1 0 4.703 12.29 12.29 0 0 1-.687 2.262c-.305.73-.676 1.425-1.113 2.086a12.054 12.054 0 0 1-10.023 5.355Zm0-60.27H179.09a11.88 11.88 0 0 1-2.352-.23 11.985 11.985 0 0 1-2.261-.684 11.992 11.992 0 0 1-2.082-1.117 11.8 11.8 0 0 1-1.829-1.496 12.45 12.45 0 0 1-1.5-1.828 12.243 12.243 0 0 1-1.113-2.082 12.173 12.173 0 0 1-.687-2.262 12.15 12.15 0 0 1 0-4.703c.156-.777.382-1.531.687-2.262.305-.73.676-1.425 1.113-2.086a12.054 12.054 0 0 1 10.023-5.355h156.696a11.996 11.996 0 0 1 4.613.918 12.054 12.054 0 0 1 3.91 19.66 11.8 11.8 0 0 1-1.828 1.496 11.877 11.877 0 0 1-4.343 1.801 11.88 11.88 0 0 1-2.352.23Zm0 0" fill="#0077b8" data-color="1"></path>
        </g>
    </g>
</svg>