<svg preserveAspectRatio="xMidYMid meet" data-bbox="46.5 46.5 675 675" height="1024" viewBox="46.5 46.5 675 675" width="1024" xmlns="http://www.w3.org/2000/svg" data-type="color" role="presentation" aria-hidden="true" aria-label="">
    <g>
        <defs>
            <clipPath id="2157dc95-6fcb-4117-bda5-3163eacd9f34_comp-lieemog22">
                <path d="M46.5 275H698v423H46.5Zm0 0"></path>
            </clipPath>
            <clipPath id="95d14ae1-8012-44be-a767-c317ea19ec8d_comp-lieemog22">
                <path d="M275 46.5h97V180h-97Zm0 0"></path>
            </clipPath>
            <clipPath id="a9c82314-4b3f-410c-b559-c16e8a337227_comp-lieemog22">
                <path d="M142 46.5h98V180h-98Zm0 0"></path>
            </clipPath>
            <clipPath id="69652777-57c4-4bd1-bcb4-2caf74273e20_comp-lieemog22">
                <path d="M408 46.5h97V180h-97Zm0 0"></path>
            </clipPath>
            <clipPath id="ed767a96-193f-49a0-a7f8-8f486a865aed_comp-lieemog22">
                <path d="M540 46.5h98V180h-98Zm0 0"></path>
            </clipPath>
            <clipPath id="5373a6d2-5419-4b26-a5cd-81f9a1399f56_comp-lieemog22">
                <path d="M46.5 94H698v146H46.5Zm0 0"></path>
            </clipPath>
            <clipPath id="bd0380dc-1473-446e-b396-89376ee64c31_comp-lieemog22">
                <path d="M408 408h313.5v313.5H408Zm0 0"></path>
            </clipPath>
        </defs>
        <path d="M142.93 576.855h48.215v48.215H142.93Zm0 0" fill="#007050" data-color="1"></path>
        <path d="M275.52 456.32h48.21v48.215h-48.21Zm0 0" fill="#007050" data-color="1"></path>
        <path d="M275.52 576.855h48.21v48.215h-48.21Zm0 0" fill="#007050" data-color="1"></path>
        <g clip-path="url(#2157dc95-6fcb-4117-bda5-3163eacd9f34_comp-lieemog22)">
            <path d="M685.34 275.52H58.555c-.793 0-1.578.074-2.352.23a11.985 11.985 0 0 0-4.348 1.8c-.656.438-1.265.938-1.824 1.497a12.248 12.248 0 0 0-1.5 1.828 11.715 11.715 0 0 0-1.113 2.082 12.173 12.173 0 0 0-.688 2.262 12.23 12.23 0 0 0-.23 2.351v349.555a60.688 60.688 0 0 0 1.156 11.758 61.597 61.597 0 0 0 1.438 5.738 61.28 61.28 0 0 0 1.992 5.567 61.303 61.303 0 0 0 2.531 5.347 60.06 60.06 0 0 0 10.535 14.207 59.407 59.407 0 0 0 4.383 3.969 58.789 58.789 0 0 0 4.75 3.523 59.487 59.487 0 0 0 5.074 3.043c1.739.93 3.52 1.774 5.344 2.528a59.79 59.79 0 0 0 5.57 1.992 58.772 58.772 0 0 0 5.739 1.437c1.933.387 3.883.676 5.847.868 1.965.195 3.934.293 5.91.293h335.329a188.069 188.069 0 0 1-6.516-6.336 184.477 184.477 0 0 1-6.187-6.657 180.515 180.515 0 0 1-5.848-6.957 182.699 182.699 0 0 1-10.606-14.754 186.82 186.82 0 0 1-4.734-7.757 181.192 181.192 0 0 1-14.867-33.113 181.21 181.21 0 0 1-6.633-26.419 183.933 183.933 0 0 1-1.316-8.992 185.104 185.104 0 0 1-.864-9.05c-.21-3.02-.343-6.048-.406-9.079a185.42 185.42 0 0 1 .05-9.086 179.896 179.896 0 0 1 2.89-27.09c.548-2.98 1.17-5.945 1.865-8.894a181.155 181.155 0 0 1 8.246-25.96 183.263 183.263 0 0 1 3.605-8.345 181.148 181.148 0 0 1 8.45-16.086 180.308 180.308 0 0 1 15.59-22.34 184.126 184.126 0 0 1 5.921-6.894 184.583 184.583 0 0 1 6.266-6.586 184.53 184.53 0 0 1 6.582-6.262 182.62 182.62 0 0 1 14.074-11.492 180.308 180.308 0 0 1 23.098-14.445c2.683-1.41 5.398-2.75 8.148-4.024a182.49 182.49 0 0 1 16.855-6.79 181.155 181.155 0 0 1 17.45-5.061 181.504 181.504 0 0 1 17.871-3.281 179.896 179.896 0 0 1 18.113-1.473 183.5 183.5 0 0 1 9.086-.05c3.032.062 6.059.194 9.078.405 3.024.215 6.04.5 9.051.864 3.008.363 6.004.804 8.992 1.316a179.346 179.346 0 0 1 17.727 3.98 179.902 179.902 0 0 1 17.242 5.742 181.192 181.192 0 0 1 24.563 11.777 186.82 186.82 0 0 1 7.757 4.735 182.699 182.699 0 0 1 14.754 10.605 183.556 183.556 0 0 1 13.614 12.036 188.069 188.069 0 0 1 6.336 6.516V287.57a12.16 12.16 0 0 0-.918-4.613 12.243 12.243 0 0 0-1.114-2.082 11.987 11.987 0 0 0-3.328-3.324 11.992 11.992 0 0 0-2.082-1.117 12.072 12.072 0 0 0-4.613-.914Zm-556.996 62.796a12.068 12.068 0 0 1-3.54-8.554c0-.797.079-1.582.235-2.36a12.072 12.072 0 0 1 3.313-6.195 12.062 12.062 0 0 1 3.922-2.621 12.172 12.172 0 0 1 2.269-.691 12.235 12.235 0 0 1 4.723 0c.777.152 1.535.382 2.27.687a12.206 12.206 0 0 1 3.925 2.617l21.574 21.7 21.578-21.7a12.11 12.11 0 0 1 6.196-3.312 12.225 12.225 0 0 1 4.722 0 12.172 12.172 0 0 1 6.196 3.312 12.097 12.097 0 0 1 3.313 6.2 11.963 11.963 0 0 1 0 4.722 11.874 11.874 0 0 1-.688 2.27 12.076 12.076 0 0 1-2.625 3.925l-21.696 21.579 21.696 21.574a12.311 12.311 0 0 1 1.5 1.836 12.294 12.294 0 0 1 1.796 4.363 12.205 12.205 0 0 1 0 4.719 12.16 12.16 0 0 1-.687 2.27c-.3.73-.672 1.429-1.11 2.09a12.343 12.343 0 0 1-1.5 1.839 12.195 12.195 0 0 1-6.203 3.266 12.22 12.22 0 0 1-2.355.23 12.281 12.281 0 0 1-4.621-.91 11.899 11.899 0 0 1-2.094-1.102 12.04 12.04 0 0 1-1.84-1.484l-21.578-21.7-21.574 21.7c-.566.555-1.18 1.05-1.844 1.484-.66.438-1.36.805-2.094 1.102a12.22 12.22 0 0 1-4.621.91 12.22 12.22 0 0 1-4.62-.91 11.763 11.763 0 0 1-2.095-1.102 12.034 12.034 0 0 1-1.843-1.484 12.079 12.079 0 0 1-1.496-1.84 11.92 11.92 0 0 1-1.114-2.09c-.3-.734-.53-1.492-.683-2.27a11.992 11.992 0 0 1 0-4.718 12.148 12.148 0 0 1 3.293-6.2l21.695-21.573Zm86.906 298.809a11.996 11.996 0 0 1-.918 4.613 12.054 12.054 0 0 1-11.137 7.441h-72.32c-.793 0-1.574-.077-2.352-.234a11.985 11.985 0 0 1-4.343-1.797 12.054 12.054 0 0 1-5.36-10.023v-72.32c0-.793.078-1.578.235-2.352a11.985 11.985 0 0 1 1.797-4.348 12.054 12.054 0 0 1 10.023-5.355h72.32a11.996 11.996 0 0 1 4.613.918c.731.3 1.426.672 2.087 1.113a12.217 12.217 0 0 1 3.324 3.324c.441.66.812 1.356 1.113 2.086a11.996 11.996 0 0 1 .918 4.614Zm0-120.535c0 .789-.078 1.574-.23 2.351a12.084 12.084 0 0 1-5.125 7.672 11.985 11.985 0 0 1-4.348 1.797c-.774.156-1.559.235-2.352.235h-72.32c-.793 0-1.574-.079-2.352-.235a11.985 11.985 0 0 1-4.343-1.797 12.054 12.054 0 0 1-5.36-10.023v-72.32c0-.793.078-1.579.235-2.352a11.985 11.985 0 0 1 1.797-4.348c.441-.656.941-1.265 1.5-1.824a11.604 11.604 0 0 1 1.828-1.5 11.715 11.715 0 0 1 2.082-1.113 11.996 11.996 0 0 1 4.613-.918h72.32a11.996 11.996 0 0 1 4.613.918c.731.3 1.426.672 2.087 1.113a12.217 12.217 0 0 1 3.324 3.324c.441.66.812 1.352 1.113 2.086a11.996 11.996 0 0 1 .918 4.614Zm132.59 120.535c0 .793-.078 1.574-.23 2.352a12.29 12.29 0 0 1-.688 2.261 12.054 12.054 0 0 1-11.137 7.441h-72.32c-.793 0-1.574-.077-2.352-.234a11.985 11.985 0 0 1-4.343-1.797 12.054 12.054 0 0 1-5.36-10.023v-72.32a11.996 11.996 0 0 1 .918-4.613c.305-.731.676-1.426 1.113-2.087a12.054 12.054 0 0 1 10.023-5.355h72.321a11.996 11.996 0 0 1 4.613.918 12.054 12.054 0 0 1 7.441 11.137Zm0-120.535c0 .789-.078 1.574-.23 2.351a12.382 12.382 0 0 1-.688 2.262 12.054 12.054 0 0 1-11.137 7.441h-72.32c-.793 0-1.574-.078-2.352-.234a11.985 11.985 0 0 1-4.343-1.797 12.054 12.054 0 0 1-5.36-10.023v-72.32a11.996 11.996 0 0 1 .918-4.613 12.47 12.47 0 0 1 1.113-2.087c.442-.656.942-1.265 1.5-1.824a11.604 11.604 0 0 1 1.829-1.5 11.715 11.715 0 0 1 2.082-1.113 11.996 11.996 0 0 1 4.613-.918h72.32a11.996 11.996 0 0 1 4.613.918c.73.3 1.426.672 2.082 1.113.66.438 1.27.938 1.829 1.5a12.217 12.217 0 0 1 1.5 1.824c.437.66.808 1.352 1.113 2.086.3.73.531 1.485.687 2.262a12.1 12.1 0 0 1 .23 2.352Zm0-120.535c0 .789-.078 1.574-.23 2.351a12.475 12.475 0 0 1-.688 2.262c-.305.73-.676 1.426-1.113 2.082a12.45 12.45 0 0 1-1.5 1.828 11.8 11.8 0 0 1-1.829 1.496 11.877 11.877 0 0 1-4.343 1.801 11.88 11.88 0 0 1-2.352.23h-72.32a11.88 11.88 0 0 1-2.352-.23 11.985 11.985 0 0 1-2.261-.684 11.992 11.992 0 0 1-2.082-1.117 11.8 11.8 0 0 1-1.829-1.496 12.45 12.45 0 0 1-1.5-1.828 12.243 12.243 0 0 1-1.113-2.082 12.173 12.173 0 0 1-.687-2.262 12.211 12.211 0 0 1-.23-2.351V323.73a12.004 12.004 0 0 1 .917-4.609 12.28 12.28 0 0 1 1.113-2.086 12.45 12.45 0 0 1 1.5-1.828 11.8 11.8 0 0 1 1.829-1.496 11.715 11.715 0 0 1 2.082-1.113 11.996 11.996 0 0 1 4.613-.918h72.32a11.996 11.996 0 0 1 4.613.918c.73.3 1.426.672 2.082 1.113a11.8 11.8 0 0 1 1.829 1.496 12.45 12.45 0 0 1 1.5 1.828c.437.66.808 1.352 1.113 2.086.3.73.531 1.484.687 2.258.153.777.23 1.562.23 2.351Zm0 0" fill="#007050" data-color="1"></path>
        </g>
        <path d="M142.93 456.32h48.215v48.215H142.93Zm0 0" fill="#007050" data-color="1"></path>
        <path d="M275.52 335.785h48.21V384h-48.21Zm0 0" fill="#007050" data-color="1"></path>
        <g clip-path="url(#95d14ae1-8012-44be-a767-c317ea19ec8d_comp-lieemog22)">
            <path d="M287.57 179.09a12.23 12.23 0 0 1-2.351-.23 12.173 12.173 0 0 1-2.262-.688 12.243 12.243 0 0 1-2.082-1.113 12.248 12.248 0 0 1-1.828-1.5 11.8 11.8 0 0 1-1.496-1.829 11.992 11.992 0 0 1-1.117-2.082 11.935 11.935 0 0 1-.684-2.261 11.88 11.88 0 0 1-.23-2.352v-72.32a47.743 47.743 0 0 1 .925-9.406 48.715 48.715 0 0 1 1.149-4.59 47.638 47.638 0 0 1 1.594-4.457 48.54 48.54 0 0 1 2.023-4.278 48.408 48.408 0 0 1 2.434-4.054 47.07 47.07 0 0 1 2.816-3.801 48.307 48.307 0 0 1 10.484-9.504 49.553 49.553 0 0 1 4.059-2.434 48.732 48.732 0 0 1 8.73-3.617 48.514 48.514 0 0 1 9.273-1.844 49.011 49.011 0 0 1 4.723-.23c1.582 0 3.157.078 4.727.23a48.255 48.255 0 0 1 13.727 3.442 48.506 48.506 0 0 1 4.277 2.02 49.553 49.553 0 0 1 4.059 2.433 48.539 48.539 0 0 1 7.304 5.996 48.307 48.307 0 0 1 3.18 3.508 47.07 47.07 0 0 1 2.816 3.8 48.408 48.408 0 0 1 2.434 4.055 49.68 49.68 0 0 1 2.023 4.278 49.98 49.98 0 0 1 1.594 4.457 48.646 48.646 0 0 1 1.844 9.27c.152 1.57.23 3.148.23 4.726v12.055a11.91 11.91 0 0 1-.918 4.609 11.75 11.75 0 0 1-1.113 2.086 11.97 11.97 0 0 1-3.324 3.324 11.75 11.75 0 0 1-2.086 1.113 11.91 11.91 0 0 1-4.61.918 11.996 11.996 0 0 1-4.613-.918c-.73-.3-1.426-.672-2.086-1.113a11.97 11.97 0 0 1-3.324-3.324 11.75 11.75 0 0 1-1.113-2.086 12.046 12.046 0 0 1-.688-2.258 12.211 12.211 0 0 1-.23-2.351V94.715c0-.79-.04-1.578-.117-2.363a23.626 23.626 0 0 0-.348-2.34 23.493 23.493 0 0 0-.574-2.297 25.172 25.172 0 0 0-.797-2.227c-.3-.73-.64-1.441-1.012-2.136a23.638 23.638 0 0 0-2.625-3.93c-.5-.61-1.031-1.195-1.59-1.754a24.984 24.984 0 0 0-1.75-1.59 24.48 24.48 0 0 0-1.902-1.406 23.217 23.217 0 0 0-2.027-1.219 25.65 25.65 0 0 0-2.141-1.012 25.21 25.21 0 0 0-2.227-.796 24.363 24.363 0 0 0-4.636-.922 23.814 23.814 0 0 0-4.723 0 24.284 24.284 0 0 0-6.863 1.719c-.73.304-1.445.64-2.14 1.011-.696.371-1.372.777-2.028 1.219a24.29 24.29 0 0 0-1.902 1.406 24.135 24.135 0 0 0-1.75 1.59 24.111 24.111 0 0 0-7.063 17.047v72.32a11.996 11.996 0 0 1-.918 4.613 12.054 12.054 0 0 1-11.137 7.441Zm0 0" fill="#007050" data-color="1"></path>
        </g>
        <g clip-path="url(#a9c82314-4b3f-410c-b559-c16e8a337227_comp-lieemog22)">
            <path d="M154.98 179.09a12.23 12.23 0 0 1-2.351-.23 12.046 12.046 0 0 1-2.258-.688 12.28 12.28 0 0 1-2.086-1.113 12.45 12.45 0 0 1-1.828-1.5 11.8 11.8 0 0 1-1.496-1.829 11.715 11.715 0 0 1-1.113-2.082 11.996 11.996 0 0 1-.918-4.613v-72.32c0-1.578.078-3.156.23-4.727a48.435 48.435 0 0 1 1.844-9.27 49.98 49.98 0 0 1 1.594-4.456 49.68 49.68 0 0 1 2.023-4.278 48.408 48.408 0 0 1 2.434-4.054 47.07 47.07 0 0 1 2.816-3.801 48.307 48.307 0 0 1 10.484-9.504 49.553 49.553 0 0 1 4.06-2.434 48.808 48.808 0 0 1 8.734-3.617 48.348 48.348 0 0 1 13.996-2.074c1.578 0 3.152.078 4.722.23a48.514 48.514 0 0 1 9.274 1.844 49.155 49.155 0 0 1 8.73 3.617 49.553 49.553 0 0 1 4.059 2.434 48.54 48.54 0 0 1 7.304 5.996 48.307 48.307 0 0 1 3.18 3.508 47.07 47.07 0 0 1 2.816 3.8 48.408 48.408 0 0 1 2.434 4.055 48.54 48.54 0 0 1 2.024 4.278 47.638 47.638 0 0 1 1.593 4.457 48.647 48.647 0 0 1 1.844 9.27c.156 1.57.23 3.148.23 4.726v12.055a12.034 12.034 0 0 1-7.438 11.133c-.733.304-1.487.53-2.26.687a11.91 11.91 0 0 1-2.352.23 11.996 11.996 0 0 1-4.613-.918 11.956 11.956 0 0 1-3.91-2.61 12.45 12.45 0 0 1-1.5-1.827 11.75 11.75 0 0 1-1.114-2.086 12.046 12.046 0 0 1-.688-2.258 12.211 12.211 0 0 1-.23-2.351V94.715c0-.79-.04-1.578-.117-2.363a23.625 23.625 0 0 0-.348-2.34 23.493 23.493 0 0 0-.574-2.297 22.902 22.902 0 0 0-.797-2.227c-.3-.73-.637-1.441-1.012-2.136a23.638 23.638 0 0 0-2.625-3.93c-.5-.61-1.03-1.195-1.59-1.754a24.135 24.135 0 0 0-1.75-1.59 24.48 24.48 0 0 0-1.902-1.406 23.217 23.217 0 0 0-2.027-1.219c-.7-.371-1.41-.707-2.14-1.012a24.284 24.284 0 0 0-6.863-1.719 23.795 23.795 0 0 0-4.724 0 24.363 24.363 0 0 0-4.637.922 25.64 25.64 0 0 0-2.226.797 25.63 25.63 0 0 0-2.14 1.012c-.696.371-1.372.777-2.028 1.219a24.29 24.29 0 0 0-1.902 1.406 24.984 24.984 0 0 0-1.75 1.59 24.111 24.111 0 0 0-7.063 17.047v72.32a11.996 11.996 0 0 1-.918 4.613c-.3.73-.672 1.426-1.113 2.082-.438.66-.938 1.27-1.5 1.829a12.217 12.217 0 0 1-1.824 1.5 12.5 12.5 0 0 1-2.086 1.113 11.996 11.996 0 0 1-4.614.918Zm0 0" fill="#007050" data-color="1"></path>
        </g>
        <path d="M179.09 179.09c0 .789-.04 1.578-.117 2.363a23.626 23.626 0 0 1-.348 2.34 23.215 23.215 0 0 1-.574 2.293c-.23.758-.496 1.5-.797 2.23a24.234 24.234 0 0 1-3.637 6.067 24.111 24.111 0 0 1-30 5.969 24.224 24.224 0 0 1-2.027-1.22 23.694 23.694 0 0 1-1.903-1.41 24.111 24.111 0 0 1-8.695-20.996c.078-.785.192-1.566.348-2.34.152-.773.344-1.538.574-2.296.227-.754.492-1.496.797-2.227.3-.73.637-1.441 1.012-2.136a23.638 23.638 0 0 1 2.625-3.93c.5-.61 1.03-1.195 1.59-1.754a24.135 24.135 0 0 1 1.75-1.59 24.183 24.183 0 0 1 6.07-3.637 24.74 24.74 0 0 1 2.226-.796c.754-.23 1.52-.422 2.293-.575a24.92 24.92 0 0 1 2.344-.347 23.795 23.795 0 0 1 4.723 0 24.84 24.84 0 0 1 2.34.347c.777.153 1.539.344 2.296.575.754.23 1.497.496 2.227.796a24.183 24.183 0 0 1 6.07 3.637 24.64 24.64 0 0 1 1.75 1.59 24.111 24.111 0 0 1 7.063 17.047Zm0 0" fill="#007050" data-color="1"></path>
        <path d="M311.68 179.09c0 .789-.04 1.578-.118 2.363a23.626 23.626 0 0 1-.347 2.34 23.215 23.215 0 0 1-.574 2.293c-.23.758-.496 1.5-.797 2.23a24.234 24.234 0 0 1-3.637 6.067c-.5.61-1.031 1.195-1.59 1.754a23.272 23.272 0 0 1-1.754 1.586 23.19 23.19 0 0 1-1.898 1.41c-.656.437-1.332.844-2.031 1.219-.696.37-1.407.707-2.137 1.011-.73.301-1.473.567-2.227.797-.757.227-1.52.418-2.297.574a24.84 24.84 0 0 1-2.34.348c-.785.074-1.574.113-2.363.113-.789 0-1.574-.039-2.363-.113a25.03 25.03 0 0 1-2.34-.348 25.544 25.544 0 0 1-2.293-.574 24.31 24.31 0 0 1-4.367-1.808 24.225 24.225 0 0 1-2.027-1.22 23.017 23.017 0 0 1-1.903-1.41 24.348 24.348 0 0 1-1.754-1.585 24.99 24.99 0 0 1-1.586-1.754 22.956 22.956 0 0 1-1.41-1.899 24.899 24.899 0 0 1-1.214-2.03 23.285 23.285 0 0 1-1.012-2.138c-.305-.73-.57-1.472-.797-2.23a23.615 23.615 0 0 1-.922-4.633 23.873 23.873 0 0 1 0-4.726 23.615 23.615 0 0 1 .922-4.637c.226-.754.492-1.496.797-2.227.3-.73.637-1.441 1.012-2.136a23.638 23.638 0 0 1 2.625-3.93 24.99 24.99 0 0 1 1.585-1.754 25.045 25.045 0 0 1 1.754-1.59 24.183 24.183 0 0 1 8.297-4.434c.754-.23 1.52-.421 2.293-.574a23.932 23.932 0 0 1 9.406 0c.778.153 1.54.344 2.297.575.754.23 1.496.496 2.227.796.73.305 1.441.641 2.137 1.012a23.638 23.638 0 0 1 3.93 2.625 24.196 24.196 0 0 1 4.753 5.242c.438.657.844 1.332 1.215 2.032a23.814 23.814 0 0 1 1.809 4.363c.23.758.421 1.523.574 2.297a23.873 23.873 0 0 1 .465 4.703Zm0 0" fill="#007050" data-color="1"></path>
        <g clip-path="url(#69652777-57c4-4bd1-bcb4-2caf74273e20_comp-lieemog22)">
            <path d="M420.16 179.09a11.996 11.996 0 0 1-4.613-.918 12.054 12.054 0 0 1-7.441-11.137v-72.32c0-1.578.078-3.156.234-4.727a47.35 47.35 0 0 1 .695-4.68 47.66 47.66 0 0 1 1.149-4.59 47.638 47.638 0 0 1 1.593-4.456 48.54 48.54 0 0 1 2.024-4.278 47.38 47.38 0 0 1 2.433-4.054 47.07 47.07 0 0 1 2.817-3.801 48.307 48.307 0 0 1 14.543-11.938 47.478 47.478 0 0 1 4.277-2.02 48.317 48.317 0 0 1 4.453-1.597 48.616 48.616 0 0 1 9.27-1.844 49.023 49.023 0 0 1 4.726-.23c1.582 0 3.157.078 4.727.23a48.435 48.435 0 0 1 9.27 1.844 48.808 48.808 0 0 1 8.734 3.617 50.221 50.221 0 0 1 4.058 2.434 48.539 48.539 0 0 1 7.305 5.996 47.369 47.369 0 0 1 3.176 3.508 48.408 48.408 0 0 1 5.254 7.855 49.68 49.68 0 0 1 2.023 4.278 49.98 49.98 0 0 1 1.594 4.457 48.647 48.647 0 0 1 1.844 9.27c.152 1.57.23 3.148.23 4.726v12.055c0 .789-.078 1.574-.23 2.351a12.046 12.046 0 0 1-.688 2.258 11.75 11.75 0 0 1-1.113 2.086 11.97 11.97 0 0 1-3.324 3.324c-.66.441-1.356.813-2.086 1.113a11.996 11.996 0 0 1-4.614.918 11.91 11.91 0 0 1-4.609-.918 11.75 11.75 0 0 1-2.086-1.113 12.18 12.18 0 0 1-1.828-1.496 12.18 12.18 0 0 1-1.496-1.828 11.75 11.75 0 0 1-1.113-2.086 11.91 11.91 0 0 1-.918-4.61V94.716c0-.79-.04-1.578-.118-2.363a23.626 23.626 0 0 0-.347-2.34 23.493 23.493 0 0 0-.574-2.297 25.173 25.173 0 0 0-.797-2.227c-.301-.73-.64-1.441-1.012-2.136a23.637 23.637 0 0 0-2.625-3.93 24.111 24.111 0 0 0-30-5.969c-.695.371-1.371.777-2.027 1.219a23.893 23.893 0 0 0-3.657 2.996 24.057 24.057 0 0 0-1.586 1.754 23.638 23.638 0 0 0-2.625 3.93c-.375.695-.71 1.406-1.011 2.136a22.89 22.89 0 0 0-.797 2.227 23.615 23.615 0 0 0-.922 4.637 23.873 23.873 0 0 0-.117 2.363v72.32c0 .793-.078 1.574-.23 2.352a12.29 12.29 0 0 1-.688 2.261 12.054 12.054 0 0 1-11.137 7.441Zm0 0" fill="#007050" data-color="1"></path>
        </g>
        <path d="M444.27 179.09c0 .789-.04 1.578-.118 2.363a24.84 24.84 0 0 1-.347 2.34 23.22 23.22 0 0 1-.575 2.293c-.23.758-.496 1.5-.796 2.23a23.878 23.878 0 0 1-2.23 4.168 23.83 23.83 0 0 1-4.75 5.239 23.05 23.05 0 0 1-1.9 1.41c-.656.437-1.331.844-2.03 1.219-.696.37-1.407.707-2.137 1.011-.73.301-1.473.567-2.227.797-.758.227-1.523.418-2.297.574a24.84 24.84 0 0 1-2.34.348c-.785.074-1.574.113-2.363.113-.789 0-1.578-.039-2.363-.113a24.84 24.84 0 0 1-2.34-.348 25.544 25.544 0 0 1-2.293-.574 24.81 24.81 0 0 1-2.23-.797 25.399 25.399 0 0 1-2.137-1.011 24.943 24.943 0 0 1-2.031-1.22 22.956 22.956 0 0 1-1.899-1.41c-.61-.5-1.195-1.027-1.754-1.585a24.057 24.057 0 0 1-1.586-1.754 22.956 22.956 0 0 1-1.41-1.899 24.943 24.943 0 0 1-1.219-2.03 25.399 25.399 0 0 1-1.011-2.138 24.81 24.81 0 0 1-.797-2.23 25.544 25.544 0 0 1-.574-2.293 24.84 24.84 0 0 1-.348-2.34 25.121 25.121 0 0 1-.113-2.363c0-.79.039-1.578.113-2.363a24.84 24.84 0 0 1 .348-2.34c.156-.774.347-1.54.574-2.297.23-.754.496-1.496.797-2.227.304-.73.64-1.441 1.011-2.136.375-.7.778-1.375 1.22-2.032.437-.656.905-1.289 1.41-1.898.5-.61 1.027-1.195 1.585-1.754a25.045 25.045 0 0 1 1.754-1.59c.61-.5 1.242-.969 1.899-1.41.66-.438 1.336-.844 2.03-1.215a25.591 25.591 0 0 1 2.138-1.012c.73-.3 1.472-.566 2.23-.796.754-.23 1.52-.422 2.293-.575a24.84 24.84 0 0 1 2.34-.347 23.873 23.873 0 0 1 4.726 0 24.84 24.84 0 0 1 2.34.347c.774.153 1.54.344 2.297.575.754.23 1.496.496 2.227.796.73.305 1.441.641 2.136 1.012a23.638 23.638 0 0 1 3.93 2.625c.61.504 1.195 1.031 1.754 1.59a23.83 23.83 0 0 1 2.996 3.652c.442.657.848 1.332 1.219 2.032.371.695.707 1.406 1.012 2.136.3.73.566 1.473.796 2.227.23.758.422 1.523.575 2.297a24.527 24.527 0 0 1 .465 4.703Zm0 0" fill="#007050" data-color="1"></path>
        <g clip-path="url(#ed767a96-193f-49a0-a7f8-8f486a865aed_comp-lieemog22)">
            <path d="M552.75 179.09a11.996 11.996 0 0 1-4.613-.918 12.054 12.054 0 0 1-7.441-11.137v-72.32c0-1.578.077-3.156.234-4.727a47.495 47.495 0 0 1 1.844-9.27 47.638 47.638 0 0 1 1.593-4.456 48.54 48.54 0 0 1 4.453-8.332 48.065 48.065 0 0 1 2.82-3.801c1-1.223 2.063-2.39 3.176-3.508a47.369 47.369 0 0 1 3.508-3.176 47.817 47.817 0 0 1 3.801-2.82 48.902 48.902 0 0 1 4.059-2.434 47.478 47.478 0 0 1 4.277-2.02 48.317 48.317 0 0 1 4.453-1.597 48.616 48.616 0 0 1 9.27-1.844 49.023 49.023 0 0 1 4.726-.23c1.578 0 3.156.078 4.727.23a48.435 48.435 0 0 1 9.27 1.844 48.808 48.808 0 0 1 8.73 3.617 48.902 48.902 0 0 1 4.058 2.434 47.116 47.116 0 0 1 3.801 2.82c1.223 1 2.39 2.059 3.508 3.176a47.369 47.369 0 0 1 3.176 3.508 47.116 47.116 0 0 1 2.82 3.8 49.482 49.482 0 0 1 2.434 4.055 48.506 48.506 0 0 1 4.765 13.325c.309 1.546.54 3.109.696 4.68.152 1.57.23 3.148.23 4.726v12.055c0 .789-.078 1.574-.23 2.351a12.046 12.046 0 0 1-.688 2.258 12.008 12.008 0 0 1-4.437 5.41c-.66.441-1.356.813-2.086 1.113a11.996 11.996 0 0 1-4.614.918 11.92 11.92 0 0 1-2.351-.23 12.173 12.173 0 0 1-2.262-.688c-.73-.3-1.426-.672-2.082-1.113a11.987 11.987 0 0 1-1.828-1.496 12.18 12.18 0 0 1-2.613-3.914 12.034 12.034 0 0 1-.914-4.61V94.716c0-.79-.04-1.578-.118-2.363a24.84 24.84 0 0 0-.347-2.34 24.667 24.667 0 0 0-.575-2.297 25.173 25.173 0 0 0-.796-2.227 24.967 24.967 0 0 0-1.012-2.136c-.371-.7-.777-1.375-1.219-2.032a23.83 23.83 0 0 0-2.996-3.652 23.83 23.83 0 0 0-3.652-2.996 22.715 22.715 0 0 0-2.032-1.219 24.834 24.834 0 0 0-2.136-1.012 25.21 25.21 0 0 0-2.227-.796 24.667 24.667 0 0 0-2.297-.575 24.84 24.84 0 0 0-2.34-.347 23.873 23.873 0 0 0-4.726 0 24.285 24.285 0 0 0-6.863 1.719 23.878 23.878 0 0 0-4.168 2.23 23.83 23.83 0 0 0-5.239 4.75 23.19 23.19 0 0 0-1.41 1.898 23.676 23.676 0 0 0-1.219 2.032 24.834 24.834 0 0 0-1.011 2.136c-.301.73-.567 1.473-.797 2.227a25.963 25.963 0 0 0-.574 2.297 24.84 24.84 0 0 0-.348 2.34 25.121 25.121 0 0 0-.113 2.363v72.32c0 .793-.078 1.574-.235 2.352a11.985 11.985 0 0 1-1.797 4.343 12.054 12.054 0 0 1-10.023 5.36Zm0 0" fill="#007050" data-color="1"></path>
        </g>
        <path d="M576.855 179.09a23.87 23.87 0 0 1-1.035 6.996c-.23.758-.496 1.5-.797 2.23a25.4 25.4 0 0 1-1.011 2.137 24.943 24.943 0 0 1-1.219 2.031 23.83 23.83 0 0 1-4.75 5.239 23.19 23.19 0 0 1-1.898 1.41c-.657.437-1.336.844-2.032 1.219-.695.37-1.41.707-2.136 1.011-.73.301-1.473.567-2.23.797-.755.227-1.52.418-2.294.574a24.84 24.84 0 0 1-2.34.348c-.785.074-1.574.113-2.363.113-.79 0-1.578-.039-2.363-.113a24.84 24.84 0 0 1-2.34-.348 25.544 25.544 0 0 1-2.293-.574 24.81 24.81 0 0 1-2.23-.797 25.398 25.398 0 0 1-2.137-1.011 24.293 24.293 0 0 1-5.684-4.215 23.83 23.83 0 0 1-2.996-3.652 24.943 24.943 0 0 1-1.219-2.032 25.4 25.4 0 0 1-1.011-2.137 24.81 24.81 0 0 1-.797-2.23 25.544 25.544 0 0 1-.575-2.293 23.87 23.87 0 0 1-.46-4.703 23.87 23.87 0 0 1 1.035-7c.23-.754.496-1.496.797-2.227.304-.73.64-1.441 1.011-2.136.375-.7.778-1.375 1.219-2.032a23.83 23.83 0 0 1 2.996-3.652 25.045 25.045 0 0 1 1.754-1.59c.61-.5 1.242-.969 1.898-1.41a24.252 24.252 0 0 1 8.692-3.598 24.84 24.84 0 0 1 2.34-.347 23.873 23.873 0 0 1 4.726 0 24.84 24.84 0 0 1 2.34.347c.774.153 1.54.344 2.293.575.758.23 1.5.496 2.23.796a24.252 24.252 0 0 1 4.168 2.227c.657.441 1.29.91 1.899 1.41.61.504 1.195 1.031 1.754 1.59a23.83 23.83 0 0 1 2.996 3.652c.441.657.844 1.332 1.219 2.032.37.695.707 1.406 1.011 2.136.301.73.567 1.473.797 2.227.227.758.418 1.523.575 2.297a23.87 23.87 0 0 1 .46 4.703Zm0 0" fill="#007050" data-color="1"></path>
        <g clip-path="url(#5373a6d2-5419-4b26-a5cd-81f9a1399f56_comp-lieemog22)">
            <path d="M637.125 94.715H106.77c-1.977 0-3.946.097-5.91.289a61.328 61.328 0 0 0-5.848.867 61.29 61.29 0 0 0-5.739 1.438 59.604 59.604 0 0 0-10.914 4.523 59.447 59.447 0 0 0-5.074 3.04 59.732 59.732 0 0 0-4.75 3.523 60.348 60.348 0 0 0-14.918 18.176 61.303 61.303 0 0 0-2.531 5.347 60.936 60.936 0 0 0-1.992 5.57 61.71 61.71 0 0 0-1.438 5.735 61.594 61.594 0 0 0-.867 5.851 60.883 60.883 0 0 0-.289 5.906v72.325c0 .789.078 1.574.23 2.351.157.774.383 1.528.688 2.262.3.73.672 1.426 1.113 2.082.442.66.942 1.266 1.5 1.828a12.17 12.17 0 0 0 3.91 2.613c.73.301 1.485.532 2.262.684.774.156 1.559.23 2.352.23H685.34a12.072 12.072 0 0 0 4.613-.914c.73-.304 1.426-.675 2.082-1.117a11.987 11.987 0 0 0 4.442-5.406 12.16 12.16 0 0 0 .918-4.613V154.98c0-1.972-.098-3.94-.293-5.906a60.314 60.314 0 0 0-4.297-17.156 60.155 60.155 0 0 0-2.528-5.348 60.033 60.033 0 0 0-3.043-5.07 58.789 58.789 0 0 0-3.523-4.75 59.407 59.407 0 0 0-3.969-4.383 60.451 60.451 0 0 0-9.133-7.496 60.06 60.06 0 0 0-5.074-3.039 60.19 60.19 0 0 0-16.652-5.96 61.594 61.594 0 0 0-5.852-.868 60.883 60.883 0 0 0-5.906-.29ZM70.605 215.25v-60.27c.004-1.183.067-2.363.188-3.539a35.57 35.57 0 0 1 .527-3.507c.235-1.16.524-2.305.868-3.438a37.71 37.71 0 0 1 1.199-3.336 36.96 36.96 0 0 1 3.347-6.242 36.094 36.094 0 0 1 4.496-5.473 36.094 36.094 0 0 1 8.512-6.32 36.369 36.369 0 0 1 3.203-1.523 36.051 36.051 0 0 1 6.777-2.066 36.449 36.449 0 0 1 3.505-.532 37.047 37.047 0 0 1 3.543-.184h530.355a37.04 37.04 0 0 1 3.543.184 36.635 36.635 0 0 1 6.941 1.398 35.848 35.848 0 0 1 6.54 2.723 35.142 35.142 0 0 1 3.038 1.824 35.792 35.792 0 0 1 2.848 2.114 36.04 36.04 0 0 1 5.008 5.008 35.839 35.839 0 0 1 3.941 5.886 36.504 36.504 0 0 1 3.59 9.977c.23 1.16.41 2.332.528 3.507a35.67 35.67 0 0 1 .183 3.54v60.269Zm0 0" fill="#007050" data-color="1"></path>
        </g>
        <g clip-path="url(#bd0380dc-1473-446e-b396-89376ee64c31_comp-lieemog22)">
            <path d="M564.805 408.105a157.801 157.801 0 0 0-15.36.758c-2.554.25-5.097.563-7.633.942a155.072 155.072 0 0 0-15.082 3c-2.488.62-4.96 1.304-7.414 2.05a154.882 154.882 0 0 0-14.476 5.18c-2.371.98-4.715 2.02-7.031 3.117a154.662 154.662 0 0 0-13.563 7.25 154.19 154.19 0 0 0-12.785 8.543 153.977 153.977 0 0 0-11.887 9.754 151.913 151.913 0 0 0-5.57 5.305 151.913 151.913 0 0 0-5.305 5.57 154.53 154.53 0 0 0-9.754 11.887 154.19 154.19 0 0 0-8.543 12.785 154.662 154.662 0 0 0-7.25 13.563 152.531 152.531 0 0 0-3.117 7.03 154.882 154.882 0 0 0-5.18 14.477 151.929 151.929 0 0 0-2.05 7.414 154.133 154.133 0 0 0-3 15.082 151.299 151.299 0 0 0-.942 7.633 157.801 157.801 0 0 0-.758 15.36 157.764 157.764 0 0 0 .758 15.36c.25 2.55.563 5.093.942 7.632a155.172 155.172 0 0 0 3 15.082 153.007 153.007 0 0 0 2.05 7.41 155.03 155.03 0 0 0 5.18 14.48 156.359 156.359 0 0 0 6.574 13.899 159.14 159.14 0 0 0 3.793 6.695c1.317 2.2 2.688 4.364 4.114 6.496a156.795 156.795 0 0 0 19.488 23.746 151.807 151.807 0 0 0 5.57 5.301 154.53 154.53 0 0 0 5.82 5.024 154.073 154.073 0 0 0 6.067 4.734 159.576 159.576 0 0 0 6.285 4.43 156.492 156.492 0 0 0 13.191 7.902 154.732 154.732 0 0 0 13.903 6.574 150.27 150.27 0 0 0 7.176 2.77c2.414.863 4.847 1.668 7.3 2.414 2.454.742 4.926 1.426 7.414 2.05a158.829 158.829 0 0 0 15.082 3c2.536.376 5.079.688 7.633.942 2.551.25 5.11.438 7.668.567a157.798 157.798 0 0 0 15.38 0c2.562-.13 5.116-.317 7.671-.567a162.38 162.38 0 0 0 7.633-.941 160.81 160.81 0 0 0 7.578-1.317 159.93 159.93 0 0 0 7.504-1.683 162.504 162.504 0 0 0 7.41-2.051c2.453-.746 4.89-1.55 7.305-2.414a153.56 153.56 0 0 0 7.176-2.77c2.367-.98 4.71-2.02 7.03-3.113a159.06 159.06 0 0 0 13.563-7.25c2.2-1.32 4.364-2.691 6.496-4.113a159.708 159.708 0 0 0 6.29-4.43 156.894 156.894 0 0 0 11.886-9.758 155.021 155.021 0 0 0 10.871-10.87 157.806 157.806 0 0 0 9.758-11.888 159.708 159.708 0 0 0 4.43-6.289 162.436 162.436 0 0 0 4.113-6.496 159.06 159.06 0 0 0 7.25-13.562 160.844 160.844 0 0 0 3.113-7.031 153.56 153.56 0 0 0 2.77-7.176 159.736 159.736 0 0 0 2.414-7.305 162.504 162.504 0 0 0 2.05-7.41 159.93 159.93 0 0 0 1.684-7.504c.5-2.516.938-5.043 1.317-7.578.375-2.54.687-5.082.941-7.633.25-2.555.438-5.11.567-7.672.125-2.562.187-5.125.187-7.687a157.52 157.52 0 0 0-.195-7.688c-.13-2.562-.32-5.117-.575-7.668-.25-2.55-.566-5.094-.945-7.629a155.208 155.208 0 0 0-1.32-7.578c-.5-2.512-1.067-5.012-1.688-7.5a157.701 157.701 0 0 0-4.472-14.707 162.796 162.796 0 0 0-2.77-7.176 156.752 156.752 0 0 0-6.582-13.895 158.778 158.778 0 0 0-3.789-6.687 157.922 157.922 0 0 0-4.117-6.496 159.578 159.578 0 0 0-4.43-6.285 154.53 154.53 0 0 0-9.754-11.883 155.189 155.189 0 0 0-10.871-10.871 158.197 158.197 0 0 0-5.82-5.023 157.642 157.642 0 0 0-18.84-13.274 156.57 156.57 0 0 0-13.559-7.254 154.28 154.28 0 0 0-7.027-3.117 151.754 151.754 0 0 0-7.172-2.77 154.981 154.981 0 0 0-14.71-4.472 157.65 157.65 0 0 0-7.5-1.691c-2.516-.5-5.04-.942-7.575-1.32a160.884 160.884 0 0 0-7.633-.946 152.3 152.3 0 0 0-7.668-.57 157.487 157.487 0 0 0-7.683-.2Zm11.207 222.149v12.898c0 .735-.07 1.465-.215 2.188-.14.719-.356 1.422-.637 2.101a11.21 11.21 0 0 1-21.566-4.29v-12.897a39.822 39.822 0 0 1-4.95-1.84 39.441 39.441 0 0 1-8.937-5.586 39.157 39.157 0 0 1-3.828-3.637 39.816 39.816 0 0 1-3.3-4.12 39.106 39.106 0 0 1-4.809-9.379 39.463 39.463 0 0 1-1.418-5.09 11.02 11.02 0 0 1-.153-2.157 11.211 11.211 0 0 1 .93-4.203 11.24 11.24 0 0 1 6.027-5.918 11.365 11.365 0 0 1 4.215-.855 11.384 11.384 0 0 1 4.23.793 11.339 11.339 0 0 1 3.626 2.324c.523.5.996 1.043 1.414 1.633a11.333 11.333 0 0 1 1.77 3.926 16.849 16.849 0 0 0 2.386 5.777 16.754 16.754 0 0 0 13.14 7.555 16.62 16.62 0 0 0 3.137-.133 16.41 16.41 0 0 0 3.059-.715 16.82 16.82 0 0 0 2.87-1.274 16.805 16.805 0 0 0 4.786-4.027 16.637 16.637 0 0 0 2.973-5.5c.32-1.004.543-2.027.668-3.07a16.87 16.87 0 0 0 .082-3.14 16.917 16.917 0 0 0-.508-3.098 16.49 16.49 0 0 0-1.078-2.954 16.47 16.47 0 0 0-1.606-2.695 16.574 16.574 0 0 0-2.086-2.351 16.85 16.85 0 0 0-2.484-1.918 16.846 16.846 0 0 0-2.8-1.422 16.575 16.575 0 0 0-3.02-.871 16.446 16.446 0 0 0-3.125-.297c-1.164 0-2.325-.051-3.485-.153a39.495 39.495 0 0 1-3.457-.464 39.127 39.127 0 0 1-21.195-11.309 39.252 39.252 0 0 1-8.984-14.781 38.16 38.16 0 0 1-.961-3.352 39.233 39.233 0 0 1-1.008-6.894 38.469 38.469 0 0 1-.04-3.489 39.26 39.26 0 0 1 .848-6.914 40.42 40.42 0 0 1 .883-3.375 39.57 39.57 0 0 1 2.645-6.445 39.274 39.274 0 0 1 8.472-10.992A39.03 39.03 0 0 1 550.3 500.5a39.572 39.572 0 0 1 3.294-1.148v-12.895a11.281 11.281 0 0 1 .852-4.293 11.41 11.41 0 0 1 1.038-1.937c.407-.61.871-1.176 1.395-1.7.52-.52 1.086-.984 1.695-1.394a11.39 11.39 0 0 1 1.938-1.035 11.37 11.37 0 0 1 2.105-.637 11.08 11.08 0 0 1 2.188-.215 11.242 11.242 0 0 1 4.289.852 11.21 11.21 0 0 1 6.918 10.36v12.894a39.284 39.284 0 0 1 13.89 7.425 39.155 39.155 0 0 1 3.825 3.641 39.024 39.024 0 0 1 6.023 8.648c.805 1.57 1.5 3.188 2.086 4.852a38.357 38.357 0 0 1 1.418 5.086c.121.715.172 1.433.152 2.156a11.058 11.058 0 0 1-.926 4.203 11.298 11.298 0 0 1-2.437 3.547 11.244 11.244 0 0 1-5.66 3.005c-.707.144-1.426.218-2.149.222a11.368 11.368 0 0 1-2.152-.192 11.296 11.296 0 0 1-5.703-2.922c-.524-.5-.992-1.046-1.41-1.636a11.162 11.162 0 0 1-1.774-3.922 16.479 16.479 0 0 0-.922-3.004 16.254 16.254 0 0 0-1.464-2.777 16.443 16.443 0 0 0-1.957-2.454 16.52 16.52 0 0 0-2.383-2.046 16.674 16.674 0 0 0-5.692-2.594 16.69 16.69 0 0 0-3.105-.457 16.885 16.885 0 0 0-3.14.129 16.888 16.888 0 0 0-5.93 1.992 16.973 16.973 0 0 0-2.582 1.785c-.805.68-1.54 1.426-2.204 2.238a16.736 16.736 0 0 0-3.636 8.575 16.193 16.193 0 0 0-.082 3.136 16.677 16.677 0 0 0 1.582 6.051 16.808 16.808 0 0 0 3.691 5.047 16.706 16.706 0 0 0 8.305 4.215 16.84 16.84 0 0 0 3.129.293c1.164 0 2.324.05 3.484.156 1.156.102 2.309.258 3.453.465a38.933 38.933 0 0 1 6.723 1.84 39.252 39.252 0 0 1 6.285 3 39.825 39.825 0 0 1 5.656 4.07 40.737 40.737 0 0 1 2.535 2.395 39.554 39.554 0 0 1 4.38 5.421c.648.965 1.25 1.957 1.808 2.977a38.667 38.667 0 0 1 1.539 3.129 37.757 37.757 0 0 1 1.254 3.254 39.146 39.146 0 0 1 1.617 6.777 36.78 36.78 0 0 1 .352 3.469 38.65 38.65 0 0 1 .039 3.488 36.983 36.983 0 0 1-.27 3.477c-.14 1.156-.332 2.3-.578 3.437a36.918 36.918 0 0 1-.883 3.375 38.548 38.548 0 0 1-2.644 6.446 38.952 38.952 0 0 1-3.746 5.875 38.377 38.377 0 0 1-4.727 5.117 38.436 38.436 0 0 1-2.687 2.222 38.146 38.146 0 0 1-2.872 1.977c-.988.617-2 1.187-3.039 1.71a38.578 38.578 0 0 1-6.473 2.582Zm0 0" fill="#007050" data-color="1"></path>
        </g>
    </g>
</svg>