<svg preserveAspectRatio="xMidYMid meet" data-bbox="54.516 47.457 659.249 658.92" height="1024" viewBox="54.516 47.457 659.249 658.92" width="1024" xmlns="http://www.w3.org/2000/svg" data-type="color" role="presentation" aria-hidden="true" aria-label=""><defs><style>#comp-lijrviu64__item-lhr8mxfi svg [data-color="1"] {fill: rgb(154, 204, 231);}</style></defs>
    <g>
        <defs>
            <clipPath id="9fce7883-ad45-46ec-9e83-cfe3ac3ef3d0_comp-lijrviu64__item-lhr8mxfi">
                <path d="M462 47h251.766v315H462Zm0 0"></path>
            </clipPath>
            <clipPath id="1546bcbe-ff79-4533-85c0-3f8951257974_comp-lijrviu64__item-lhr8mxfi">
                <path d="M54.516 220H353v252H54.516Zm0 0"></path>
            </clipPath>
        </defs>
        <path d="M603.89 172.973c0 1.03-.1 2.05-.3 3.062a15.777 15.777 0 0 1-2.344 5.656 15.82 15.82 0 0 1-4.332 4.328 15.739 15.739 0 0 1-8.719 2.645c-1.03 0-2.05-.101-3.062-.3a15.816 15.816 0 0 1-5.66-2.344 15.82 15.82 0 0 1-2.38-1.954 15.573 15.573 0 0 1-1.948-2.375 15.634 15.634 0 0 1-2.344-5.656 15.51 15.51 0 0 1 0-6.12 15.516 15.516 0 0 1 2.344-5.657 15.37 15.37 0 0 1 1.949-2.38 16.062 16.062 0 0 1 2.379-1.952 15.897 15.897 0 0 1 2.715-1.45 15.516 15.516 0 0 1 2.945-.89c1.012-.203 2.031-.3 3.062-.3 1.032 0 2.051.097 3.063.3a15.739 15.739 0 0 1 5.656 2.34 16.062 16.062 0 0 1 2.379 1.953 15.704 15.704 0 0 1 4.598 11.094Zm0 0" fill= "rgb(154, 204, 231)" data-color="1"></path>
        <g clip-path="url(#9fce7883-ad45-46ec-9e83-cfe3ac3ef3d0_comp-lijrviu64__item-lhr8mxfi)">
            <path d="M588.195 47.457a124.564 124.564 0 0 0-12.304.617c-2.043.203-4.082.453-6.114.758a126.084 126.084 0 0 0-12.082 2.414 124.786 124.786 0 0 0-17.535 5.8c-1.894.79-3.773 1.622-5.629 2.5a124.907 124.907 0 0 0-16.066 9.106 128.445 128.445 0 0 0-5.04 3.547 129.52 129.52 0 0 0-4.855 3.79 127.032 127.032 0 0 0-4.664 4.023 127.088 127.088 0 0 0-8.71 8.707 130.48 130.48 0 0 0-4.028 4.664 126.409 126.409 0 0 0-10.637 15.094 122.488 122.488 0 0 0-3.039 5.355 127.04 127.04 0 0 0-2.773 5.5 129.093 129.093 0 0 0-2.5 5.629 131.165 131.165 0 0 0-2.223 5.746 127.974 127.974 0 0 0-3.582 11.781A125.927 125.927 0 0 0 464 154.563a124.095 124.095 0 0 0-1.219 12.254c-.105 2.05-.156 4.101-.16 6.156 0 63.78 95.906 188.277 125.574 188.277 29.664 0 125.57-124.496 125.57-188.277a129.374 129.374 0 0 0-.156-6.157c-.105-2.05-.257-4.097-.46-6.14a123.767 123.767 0 0 0-.762-6.113 122.848 122.848 0 0 0-1.059-6.067 121.325 121.325 0 0 0-1.355-6.008 124.633 124.633 0 0 0-5.805-17.527 126.967 126.967 0 0 0-5.27-11.129 131.12 131.12 0 0 0-3.039-5.355 124.265 124.265 0 0 0-3.3-5.204 125.451 125.451 0 0 0-7.34-9.89 130.372 130.372 0 0 0-4.024-4.664 127.195 127.195 0 0 0-4.25-4.457 127.142 127.142 0 0 0-4.46-4.25 127.154 127.154 0 0 0-9.524-7.813 125.451 125.451 0 0 0-15.602-9.883 126.966 126.966 0 0 0-11.132-5.27 126.335 126.335 0 0 0-11.598-4.155 127.014 127.014 0 0 0-11.945-3c-2.016-.403-4.04-.754-6.07-1.059a122.927 122.927 0 0 0-6.118-.758 123.91 123.91 0 0 0-12.3-.617Zm0 172.586a46.725 46.725 0 0 1-9.187-.906 46.721 46.721 0 0 1-4.485-1.121 48.056 48.056 0 0 1-4.351-1.555 47.36 47.36 0 0 1-11.852-7.102 47.665 47.665 0 0 1-3.422-3.101 46.87 46.87 0 0 1-3.105-3.426 48.174 48.174 0 0 1-2.754-3.707 47.904 47.904 0 0 1-2.375-3.965 47.953 47.953 0 0 1-1.976-4.176 47.144 47.144 0 0 1-1.555-4.347 46.665 46.665 0 0 1-1.801-9.051 46.647 46.647 0 0 1-.227-4.613 47.375 47.375 0 0 1 .902-9.184 47.027 47.027 0 0 1 1.126-4.48 47.98 47.98 0 0 1 1.554-4.348 47.198 47.198 0 0 1 7.105-11.848 46.813 46.813 0 0 1 3.106-3.422 46.759 46.759 0 0 1 3.422-3.101 46.276 46.276 0 0 1 3.711-2.754 47.903 47.903 0 0 1 3.965-2.375 47.325 47.325 0 0 1 8.527-3.531 47.387 47.387 0 0 1 9.055-1.8 47.95 47.95 0 0 1 4.617-.228c1.543 0 3.078.078 4.614.227a47.386 47.386 0 0 1 9.054 1.8 47.661 47.661 0 0 1 8.528 3.532 47.246 47.246 0 0 1 3.964 2.375 46.276 46.276 0 0 1 3.711 2.754 46.818 46.818 0 0 1 6.528 6.523 47.197 47.197 0 0 1 7.105 11.848 46.82 46.82 0 0 1 1.555 4.348 46.665 46.665 0 0 1 1.8 9.05 46.71 46.71 0 0 1 .231 4.614 46.65 46.65 0 0 1-.23 4.613 46.665 46.665 0 0 1-1.8 9.05 46.84 46.84 0 0 1-3.531 8.523 47.903 47.903 0 0 1-2.376 3.966 46.213 46.213 0 0 1-2.754 3.707 46.817 46.817 0 0 1-3.102 3.426 47.19 47.19 0 0 1-15.277 10.203 47.635 47.635 0 0 1-4.352 1.555c-1.476.449-2.968.82-4.484 1.12a46.646 46.646 0 0 1-9.184.906Zm0 0" fill="rgb(154, 204, 231)" data-color="1"></path>
        </g>
        <g clip-path="url(#1546bcbe-ff79-4533-85c0-3f8951257974_comp-lijrviu64__item-lhr8mxfi)">
            <path d="M321.355 471.078H64.406a314.64 314.64 0 0 1-9.89-78.45 311.754 311.754 0 0 1 20.516-111.742 310.692 310.692 0 0 1 8.929-21.027 312.244 312.244 0 0 1 22.352-39.816h167.953c1.027.004 2.05.055 3.074.16a31.172 31.172 0 0 1 6.027 1.21 31.612 31.612 0 0 1 8.317 3.946c.855.57 1.68 1.184 2.472 1.836a31.67 31.67 0 0 1 4.348 4.344 30.678 30.678 0 0 1 1.836 2.473c.57.851 1.098 1.73 1.586 2.636a31.71 31.71 0 0 1 1.316 2.782 31.124 31.124 0 0 1 1.797 5.875c.203 1.007.356 2.023.461 3.043.102 1.023.156 2.047.16 3.074a31.042 31.042 0 0 1-.176 3.07 30.615 30.615 0 0 1-.468 3.035 30.217 30.217 0 0 1-.762 2.977 31.487 31.487 0 0 1-5.793 10.762 31.67 31.67 0 0 1-2.066 2.277 29.959 29.959 0 0 1-2.278 2.062 31.26 31.26 0 0 1-5.097 3.422 31.487 31.487 0 0 1-8.645 3.133 30.87 30.87 0 0 1-3.04.469 30.97 30.97 0 0 1-3.07.172h-47.09c-2.054 0-4.105.101-6.152.304-2.046.2-4.078.5-6.097.903a63.033 63.033 0 0 0-5.977 1.496 62.977 62.977 0 0 0-11.371 4.707 62.788 62.788 0 0 0-10.234 6.836 63.513 63.513 0 0 0-8.703 8.7 62.725 62.725 0 0 0-6.836 10.23 63.526 63.526 0 0 0-2.637 5.566 62.66 62.66 0 0 0-3.57 11.773 62.78 62.78 0 0 0-.907 6.094 63.355 63.355 0 0 0 0 12.3 62.78 62.78 0 0 0 2.403 12.067 63.218 63.218 0 0 0 2.074 5.801 63.526 63.526 0 0 0 2.637 5.567 61.711 61.711 0 0 0 3.168 5.28 62.073 62.073 0 0 0 7.808 9.512 63.514 63.514 0 0 0 4.563 4.137 62.789 62.789 0 0 0 10.234 6.836 64.102 64.102 0 0 0 5.57 2.633 64.06 64.06 0 0 0 5.801 2.074 63.033 63.033 0 0 0 5.977 1.496c2.02.403 4.05.703 6.097.903 2.047.203 4.098.304 6.153.304h94.18c1.027.004 2.05.055 3.074.16a31.172 31.172 0 0 1 6.027 1.21 31.612 31.612 0 0 1 8.316 3.947c.856.57 1.68 1.183 2.473 1.836.793.648 1.555 1.34 2.281 2.066a30.858 30.858 0 0 1 2.067 2.277 31.64 31.64 0 0 1 1.836 2.473 30.97 30.97 0 0 1 1.582 2.637 31.094 31.094 0 0 1 2.363 5.676 31.392 31.392 0 0 1 1.371 9.097 30.959 30.959 0 0 1-.172 3.067 30.516 30.516 0 0 1-.469 3.039 31.487 31.487 0 0 1-6.555 13.738 31.616 31.616 0 0 1-4.344 4.34 31.26 31.26 0 0 1-5.1 3.422c-.903.484-1.829.925-2.774 1.324-.945.394-1.91.742-2.89 1.047-.981.3-1.973.554-2.977.762-1.008.203-2.02.363-3.04.468a32.274 32.274 0 0 1-3.07.172Zm0 0" fill="rgb(154, 204, 231)" data-color="1"></path>
        </g>
        <path d="M517.559 486.77h150.375a311.394 311.394 0 0 1-15.926 40.53 310.653 310.653 0 0 1-21.434 37.915H517.56a39.43 39.43 0 0 1-3.844-.188 37.764 37.764 0 0 1-3.809-.566 39.596 39.596 0 0 1-3.738-.934 39.292 39.292 0 0 1-10.41-4.922 40.06 40.06 0 0 1-3.094-2.293 39.681 39.681 0 0 1-5.437-5.437 38.302 38.302 0 0 1-2.293-3.09 38.692 38.692 0 0 1-1.98-3.305 39.253 39.253 0 0 1-1.65-3.476 39.61 39.61 0 0 1-1.296-3.625 39.518 39.518 0 0 1-1.5-7.543 39.442 39.442 0 0 1 0-7.688 39.518 39.518 0 0 1 1.5-7.543 39.61 39.61 0 0 1 1.297-3.625 39.24 39.24 0 0 1 8.508-12.723c.91-.91 1.859-1.769 2.851-2.585a39.308 39.308 0 0 1 9.879-5.918 38.477 38.477 0 0 1 3.625-1.297 38.432 38.432 0 0 1 3.738-.934 37.764 37.764 0 0 1 3.809-.566 39.442 39.442 0 0 1 3.844-.187Zm0 0" fill="rgb(154, 204, 231)" data-color="1"></path>
        <path d="M682.371 392.629a316.75 316.75 0 0 1-6.277 62.758H517.559a71.63 71.63 0 0 0-6.922.34 73.215 73.215 0 0 0-3.442.425 67.019 67.019 0 0 0-3.414.594 66.123 66.123 0 0 0-3.383.758 71.879 71.879 0 0 0-6.632 2.012c-1.09.39-2.168.804-3.235 1.246a67.46 67.46 0 0 0-3.172 1.406 67.505 67.505 0 0 0-3.097 1.559 69.426 69.426 0 0 0-5.946 3.562 68.25 68.25 0 0 0-2.832 1.992 69.053 69.053 0 0 0-5.36 4.398 72.288 72.288 0 0 0-2.51 2.387 76.305 76.305 0 0 0-2.391 2.512 68.952 68.952 0 0 0-2.262 2.625c-.734.89-1.445 1.8-2.133 2.73a67.253 67.253 0 0 0-1.996 2.833 67.246 67.246 0 0 0-1.855 2.93 73.855 73.855 0 0 0-1.711 3.015 76.338 76.338 0 0 0-1.559 3.094 73.635 73.635 0 0 0-1.402 3.168 68.896 68.896 0 0 0-2.336 6.523 70.409 70.409 0 0 0-.926 3.34 67.068 67.068 0 0 0-.758 3.383 67.02 67.02 0 0 0-.594 3.414 68.55 68.55 0 0 0-.68 6.895 68.37 68.37 0 0 0-.085 3.464c0 1.156.027 2.309.086 3.465a68.55 68.55 0 0 0 .68 6.895 67.02 67.02 0 0 0 .593 3.414 70.41 70.41 0 0 0 1.684 6.723 68.896 68.896 0 0 0 2.336 6.523c.441 1.066.91 2.12 1.402 3.168a76.339 76.339 0 0 0 1.559 3.093 73.855 73.855 0 0 0 1.71 3.016 68.174 68.174 0 0 0 1.856 2.93c.64.96 1.305 1.902 1.996 2.832.688.93 1.399 1.84 2.133 2.73.73.895 1.488 1.77 2.262 2.625a76.305 76.305 0 0 0 2.39 2.512 72.29 72.29 0 0 0 5.137 4.652c.895.73 1.805 1.442 2.734 2.133a68.247 68.247 0 0 0 2.832 1.992 69.425 69.425 0 0 0 5.945 3.563 67.503 67.503 0 0 0 3.098 1.558 67.46 67.46 0 0 0 3.172 1.407 71.763 71.763 0 0 0 6.524 2.332 71.88 71.88 0 0 0 3.343.925c1.122.282 2.247.536 3.383.758a67.02 67.02 0 0 0 3.414.594c1.145.168 2.293.313 3.442.426 1.152.113 2.304.195 3.457.254 1.156.054 2.308.086 3.465.086h89.312a316.158 316.158 0 0 1-13.73 15.027 314.683 314.683 0 0 1-30.246 27.23 314.307 314.307 0 0 1-33.516 23.094 314.837 314.837 0 0 1-36.223 18.563 312.921 312.921 0 0 1-18.937 7.48 313.539 313.539 0 0 1-59.156 14.89 313.859 313.859 0 0 1-60.922 3.173 312.833 312.833 0 0 1-40.457-4.473 311.624 311.624 0 0 1-19.926-4.191 312.34 312.34 0 0 1-19.613-5.477 311.752 311.752 0 0 1-19.22-6.734 313.354 313.354 0 0 1-36.921-17.13 314.496 314.496 0 0 1-17.55-10.32 315.054 315.054 0 0 1-32.911-23.945 316.05 316.05 0 0 1-15.223-13.52 314.702 314.702 0 0 1-27.656-29.855 313.547 313.547 0 0 1-12.316-16.207 313.36 313.36 0 0 1-30.309-52.922 314.269 314.269 0 0 1-7.746-18.824h247.062c2.055 0 4.106-.102 6.153-.3a63.037 63.037 0 0 0 17.875-4.477 62.388 62.388 0 0 0 10.855-5.8 62.605 62.605 0 0 0 9.512-7.805 62.742 62.742 0 0 0 4.14-4.563 63.715 63.715 0 0 0 3.669-4.946 61.778 61.778 0 0 0 3.168-5.285 62.388 62.388 0 0 0 2.632-5.566 62.434 62.434 0 0 0 3.575-11.774 62.88 62.88 0 0 0 .906-6.09 63.203 63.203 0 0 0 0-12.304 62.958 62.958 0 0 0-2.402-12.067 62.434 62.434 0 0 0-2.079-5.796 61.95 61.95 0 0 0-2.632-5.57 61.711 61.711 0 0 0-3.168-5.282 62.801 62.801 0 0 0-22.605-20.48 62.977 62.977 0 0 0-17.349-6.207c-2.02-.399-4.05-.7-6.097-.903a62.259 62.259 0 0 0-6.153-.3h-94.18a32.274 32.274 0 0 1-3.07-.172 32.096 32.096 0 0 1-6.015-1.235c-.98-.3-1.945-.648-2.89-1.047a31.05 31.05 0 0 1-5.41-2.91 31.212 31.212 0 0 1-4.743-3.898 31.61 31.61 0 0 1-2.067-2.274 32.327 32.327 0 0 1-1.835-2.469 31.992 31.992 0 0 1-2.91-5.406 31.412 31.412 0 0 1-1.81-5.867 30.615 30.615 0 0 1-.468-3.035 30.97 30.97 0 0 1-.172-3.07 31.018 31.018 0 0 1 .617-6.114 31.469 31.469 0 0 1 4.7-11.297 31.73 31.73 0 0 1 3.902-4.75 31.73 31.73 0 0 1 4.754-3.902 31.594 31.594 0 0 1 5.418-2.902 30.663 30.663 0 0 1 2.898-1.04c.98-.3 1.977-.554 2.985-.753a32.135 32.135 0 0 1 3.043-.461 32.341 32.341 0 0 1 3.074-.16h47.09a62.2 62.2 0 0 0 6.152-.301 64.258 64.258 0 0 0 6.098-.902 63.052 63.052 0 0 0 5.976-1.5 60.981 60.981 0 0 0 5.801-2.075 62.459 62.459 0 0 0 5.57-2.632 63.393 63.393 0 0 0 5.285-3.165 63.828 63.828 0 0 0 4.95-3.671 61.75 61.75 0 0 0 4.562-4.133 61.914 61.914 0 0 0 4.14-4.567 62.01 62.01 0 0 0 3.669-4.945 62.321 62.321 0 0 0 3.168-5.281 63.6 63.6 0 0 0 2.636-5.57 63.56 63.56 0 0 0 2.075-5.797 61.867 61.867 0 0 0 1.496-5.977 62.88 62.88 0 0 0 .906-6.09 63.218 63.218 0 0 0 0-12.304 62.88 62.88 0 0 0-.906-6.09 61.867 61.867 0 0 0-1.496-5.977 63.56 63.56 0 0 0-2.075-5.797 63.6 63.6 0 0 0-2.636-5.57 62.321 62.321 0 0 0-3.168-5.281 62.01 62.01 0 0 0-3.668-4.946 61.914 61.914 0 0 0-4.14-4.566 61.75 61.75 0 0 0-4.563-4.133 63.828 63.828 0 0 0-4.95-3.672 63.393 63.393 0 0 0-5.285-3.164 62.459 62.459 0 0 0-5.57-2.633 60.981 60.981 0 0 0-5.8-2.074 63.052 63.052 0 0 0-5.977-1.5 64.382 64.382 0 0 0-6.098-.902c-2.043-.2-4.098-.3-6.152-.3h-144.25a314.353 314.353 0 0 1 7.414-8.376 314.547 314.547 0 0 1 15.703-15.93c2.71-2.558 5.469-5.07 8.27-7.53a306.64 306.64 0 0 1 8.53-7.235 312.313 312.313 0 0 1 17.813-13.531 312.736 312.736 0 0 1 48.348-27.984 313.888 313.888 0 0 1 10.222-4.54c3.438-1.45 6.899-2.84 10.383-4.168a312.556 312.556 0 0 1 42.813-12.898c3.64-.817 7.293-1.57 10.957-2.258a312.018 312.018 0 0 1 22.121-3.34 313.02 313.02 0 0 1 11.137-1.078 313.995 313.995 0 0 1 66.977 1.922 313.125 313.125 0 0 1 22.042 3.816c3.649.77 7.285 1.602 10.906 2.496a323.8 323.8 0 0 1 10.809 2.883 155.02 155.02 0 0 0-10.05 19.102 154.718 154.718 0 0 0-7.31 20.304 155.082 155.082 0 0 0-5.87 42.653c0 68.093 100.144 219.656 156.964 219.656 24.64 0 57.606-28.711 86.957-66.68a310.156 310.156 0 0 1 7.22 66.68Zm0 0" fill="rgb(154, 204, 231)" data-color="1"></path>
    </g>
</svg>