<svg preserveAspectRatio="xMidYMid meet" data-bbox="46.5 126.855 675 514.383" height="1024" viewBox="46.5 126.855 675 514.383" width="1024" xmlns="http://www.w3.org/2000/svg" data-type="color" role="presentation" aria-hidden="true" aria-label=""><defs><style>#comp-lijrviu64__item1 svg [data-color="1"] {fill: rgb(154, 204, 231);}</style></defs>
    <g>
        <defs>
            <clipPath id="b2944818-62dd-4c3a-880a-9ca36b8f37bb_comp-lijrviu64__item1">
                <path d="M46.5 126.797h675v514.5h-675Zm0 0"></path>
            </clipPath>
        </defs>
        <g clip-path="url(#b2944818-62dd-4c3a-880a-9ca36b8f37bb_comp-lijrviu64__item1)">
            <path d="M609 126.855H159c-1.84.004-3.68.051-5.52.145-1.835.09-3.671.227-5.503.41-1.832.184-3.657.41-5.477.68a114.122 114.122 0 0 0-10.824 2.164 112.564 112.564 0 0 0-25.684 9.926 113.982 113.982 0 0 0-4.8 2.726 111.544 111.544 0 0 0-13.528 9.531 114.707 114.707 0 0 0-4.18 3.606 114.975 114.975 0 0 0-3.996 3.809 111.691 111.691 0 0 0-7.414 8.18 111.005 111.005 0 0 0-3.394 4.35 110.198 110.198 0 0 0-3.18 4.513 115.824 115.824 0 0 0-2.957 4.664 118.414 118.414 0 0 0-2.723 4.8 116.459 116.459 0 0 0-2.484 4.934 116.462 116.462 0 0 0-2.238 5.047 109.39 109.39 0 0 0-1.989 5.148c-.62 1.73-1.199 3.48-1.738 5.242a108.218 108.218 0 0 0-1.473 5.32 110.414 110.414 0 0 0-1.214 5.384c-.36 1.804-.676 3.62-.95 5.441a112.631 112.631 0 0 0-1.234 16.504v289.336c.004 1.844.05 3.683.14 5.52.094 1.84.231 3.675.415 5.507.18 1.832.406 3.656.68 5.477.273 1.82.59 3.636.949 5.441.359 1.805.765 3.598 1.214 5.383a108.95 108.95 0 0 0 1.473 5.32c.54 1.762 1.117 3.512 1.738 5.242a111.218 111.218 0 0 0 4.227 10.196 114.018 114.018 0 0 0 5.207 9.734c.95 1.578 1.934 3.133 2.957 4.664a110.198 110.198 0 0 0 3.18 4.512 111.005 111.005 0 0 0 7 8.531c1.238 1.367 2.507 2.7 3.808 4a115.91 115.91 0 0 0 3.996 3.809 114.098 114.098 0 0 0 8.531 7.004 111.544 111.544 0 0 0 9.176 6.133c1.579.949 3.18 1.855 4.801 2.726 1.625.867 3.266 1.695 4.93 2.484a113.87 113.87 0 0 0 10.195 4.23c1.735.622 3.48 1.2 5.238 1.735a114.1 114.1 0 0 0 5.32 1.477c1.786.45 3.583.851 5.387 1.215 1.805.36 3.618.675 5.438.949 1.82.27 3.645.496 5.477.68a114.255 114.255 0 0 0 11.023.554h450c1.84-.004 3.68-.05 5.52-.144 1.835-.094 3.671-.23 5.503-.41A112.08 112.08 0 0 0 625.5 640c1.82-.273 3.633-.59 5.438-.95 1.804-.359 3.601-.765 5.386-1.214a112.715 112.715 0 0 0 10.559-3.21 112.87 112.87 0 0 0 33.449-18.974 114.292 114.292 0 0 0 8.176-7.414c1.3-1.3 2.57-2.633 3.804-4a111 111 0 0 0 3.606-4.18c1.168-1.421 2.3-2.87 3.398-4.351a111.545 111.545 0 0 0 6.133-9.176c.95-1.578 1.856-3.18 2.723-4.8a113.937 113.937 0 0 0 4.727-9.977c.703-1.7 1.367-3.418 1.988-5.149a118.65 118.65 0 0 0 1.738-5.242 114.1 114.1 0 0 0 1.477-5.32 111.357 111.357 0 0 0 2.16-10.824 112.08 112.08 0 0 0 1.238-16.504V239.379c-.004-1.844-.05-3.684-.14-5.52a112.786 112.786 0 0 0-2.048-16.422 115.349 115.349 0 0 0-1.21-5.386 114.1 114.1 0 0 0-1.477-5.32 117.601 117.601 0 0 0-1.738-5.243 114.614 114.614 0 0 0-1.989-5.148 113.937 113.937 0 0 0-4.726-9.977 109.722 109.722 0 0 0-2.723-4.8 111.545 111.545 0 0 0-9.531-13.528 111 111 0 0 0-3.606-4.18 111.415 111.415 0 0 0-3.804-4 108.87 108.87 0 0 0-4-3.804 110.986 110.986 0 0 0-8.528-7.008 111.546 111.546 0 0 0-9.176-6.133 108.105 108.105 0 0 0-4.8-2.722c-1.621-.872-3.266-1.7-4.93-2.485a113.789 113.789 0 0 0-5.043-2.242 117.628 117.628 0 0 0-5.148-1.992 112.715 112.715 0 0 0-10.559-3.211c-1.785-.45-3.582-.856-5.386-1.215a116.29 116.29 0 0 0-5.438-.95c-1.82-.273-3.645-.5-5.477-.683a114.256 114.256 0 0 0-11.023-.555Zm23.512 342.547a16.042 16.042 0 0 1 2.016 2.477 15.718 15.718 0 0 1 1.488 2.824c.199.496.375 1 .527 1.512a16.56 16.56 0 0 1 .59 3.137c.043.53.062 1.066.058 1.597a16.784 16.784 0 0 1-.101 1.598 15.62 15.62 0 0 1-.258 1.578c-.113.52-.25 1.035-.414 1.543a15.69 15.69 0 0 1-.566 1.496c-.211.488-.45.965-.711 1.43-.262.469-.543.918-.848 1.355a16.247 16.247 0 0 1-3.293 3.469 15.978 15.978 0 0 1-4.164 2.344 15.685 15.685 0 0 1-3.082.836c-.524.086-1.055.148-1.586.183a15.59 15.59 0 0 1-1.598.024 16.643 16.643 0 0 1-1.593-.133 17.645 17.645 0 0 1-1.57-.293 17.26 17.26 0 0 1-1.536-.445 16.305 16.305 0 0 1-4.238-2.219c-.43-.313-.844-.649-1.238-1.004-.399-.36-.778-.734-1.137-1.125L503.457 380.672l-52.922 38.82a112.861 112.861 0 0 1-7.367 4.992 111.981 111.981 0 0 1-24.148 11.273 112.06 112.06 0 0 1-8.56 2.446 112.705 112.705 0 0 1-17.565 2.813 112.675 112.675 0 0 1-17.79 0 112.705 112.705 0 0 1-17.566-2.813 112.418 112.418 0 0 1-32.707-13.719 112.861 112.861 0 0 1-7.367-4.992L271.5 385.801 170.637 491.586c-.364.379-.746.742-1.145 1.086-.398.344-.812.668-1.242.969a15.37 15.37 0 0 1-1.336.843 15.802 15.802 0 0 1-4.398 1.696 16.319 16.319 0 0 1-3.129.387c-.528.011-1.051 0-1.578-.04a15.856 15.856 0 0 1-3.102-.543 15.673 15.673 0 0 1-1.5-.496 14.84 14.84 0 0 1-1.441-.64 15.832 15.832 0 0 1-2.66-1.688 15.647 15.647 0 0 1-3.25-3.418c-.305-.43-.586-.875-.844-1.332a15.872 15.872 0 0 1-1.696-4.402 16.318 16.318 0 0 1-.387-3.129 16.103 16.103 0 0 1 1.078-6.18 15.842 15.842 0 0 1 1.418-2.812c.282-.446.583-.875.907-1.29a15.09 15.09 0 0 1 1.031-1.195l98.035-102.78L133.43 284.5a16.582 16.582 0 0 1-2.344-2.105 14.923 14.923 0 0 1-1.004-1.215 15.826 15.826 0 0 1-1.633-2.691 15.697 15.697 0 0 1-1.078-2.962 15.882 15.882 0 0 1-.48-3.113 16.277 16.277 0 0 1 .136-3.144 15.98 15.98 0 0 1 .75-3.063 16.322 16.322 0 0 1 2.195-4.168c.313-.426.645-.836.993-1.226a16.552 16.552 0 0 1 2.32-2.129 15.759 15.759 0 0 1 2.691-1.637 16.59 16.59 0 0 1 2.958-1.083 17.507 17.507 0 0 1 1.546-.316 15.1 15.1 0 0 1 1.567-.164 15.38 15.38 0 0 1 1.578-.011 16.116 16.116 0 0 1 7.484 2.215c.454.269.895.554 1.317.867l184.05 135.023a79.779 79.779 0 0 0 16.555 9.402 80.725 80.725 0 0 0 5.953 2.227 80.842 80.842 0 0 0 6.118 1.742c2.058.504 4.136.922 6.23 1.258 2.098.336 4.2.586 6.316.754 2.114.168 4.23.254 6.352.254 2.121 0 4.238-.086 6.352-.254a79.798 79.798 0 0 0 6.316-.754 78.509 78.509 0 0 0 6.23-1.258 80.842 80.842 0 0 0 6.118-1.742 80.725 80.725 0 0 0 11.714-4.918 79.779 79.779 0 0 0 10.793-6.71L615.56 258.554c.421-.313.863-.602 1.316-.871a15.85 15.85 0 0 1 2.855-1.336 16.048 16.048 0 0 1 7.79-.73c.52.077 1.035.183 1.546.312a16.832 16.832 0 0 1 2.965 1.078 16.323 16.323 0 0 1 2.7 1.637c.421.316.824.652 1.214 1.007.39.356.758.73 1.11 1.125.355.391.687.801.996 1.227.312.422.601.863.87 1.316.27.453.516.918.74 1.399.222.476.421.965.597 1.46a17 17 0 0 1 .449 1.516c.125.512.223 1.028.3 1.551a16.287 16.287 0 0 1 .138 3.152 17.43 17.43 0 0 1-.165 1.57 17.47 17.47 0 0 1-.316 1.548 16.447 16.447 0 0 1-1.082 2.964 15.895 15.895 0 0 1-3.77 5.024c-.394.351-.8.683-1.226.996l-104.98 77.043Zm0 0" fill="rgb(154, 204, 231)" data-color="1"></path>
        </g>
    </g>
</svg>