<svg preserveAspectRatio="xMidYMid meet" data-bbox="97.389 56.786 594.604 655.511" height="1024" viewBox="97.389 56.786 594.604 655.511" width="1024" xmlns="http://www.w3.org/2000/svg" data-type="color" role="presentation" aria-hidden="true" aria-label=""><defs><style>#comp-lijrviu64__item-lhr8mvyq svg [data-color="1"] {fill: rgb(154, 204, 231);}</style></defs>
    <g>
        <defs>
            <clipPath id="3ed26f75-6965-4d65-9a4d-fa54f4371f4d_comp-lijrviu64__item-lhr8mvyq">
                <path d="M456 79h234.797v381H456Zm0 0"></path>
            </clipPath>
        </defs>
        <path d="M546.41 503.555a81.096 81.096 0 0 0-8.453-11.989 80.219 80.219 0 0 0-3.285-3.628 82.608 82.608 0 0 0-3.496-3.426 82.37 82.37 0 0 0-3.7-3.207 81.828 81.828 0 0 0-7.945-5.715 81.683 81.683 0 0 0-8.578-4.711 78.716 78.716 0 0 0-4.488-1.957 80.796 80.796 0 0 0-14.055-4.203 81.265 81.265 0 0 0-9.691-1.355 78.502 78.502 0 0 0-4.89-.235 78.699 78.699 0 0 0-4.895.058c-1.63.07-3.258.188-4.883.356a81.672 81.672 0 0 0-9.656 1.594c-1.59.363-3.168.773-4.735 1.234a79.923 79.923 0 0 0-9.21 3.313 80.223 80.223 0 0 0-8.743 4.398 81.898 81.898 0 0 0-8.145 5.426 80.196 80.196 0 0 0-7.43 6.367 80.44 80.44 0 0 0-6.605 7.219 34.774 34.774 0 0 1-5.523 5.402 34.862 34.862 0 0 1-6.57 4.059 34.758 34.758 0 0 1-7.301 2.515 34.12 34.12 0 0 1-3.817.64c-1.28.145-2.57.216-3.863.216-1.289 0-2.578-.07-3.86-.215a34.12 34.12 0 0 1-3.816-.64 34.758 34.758 0 0 1-10.7-4.363 35.472 35.472 0 0 1-3.175-2.212 35.302 35.302 0 0 1-5.52-5.402 520.326 520.326 0 0 1-52.144-73.27 523.822 523.822 0 0 1-37.332-81.89 35.407 35.407 0 0 1-2.035-15.426 35.436 35.436 0 0 1 4.766-14.816 33.67 33.67 0 0 1 4.547-6.153 33.827 33.827 0 0 1 12.59-8.531 33.875 33.875 0 0 1 7.402-1.938c1.61-.261 3.207-.57 4.797-.925a81.446 81.446 0 0 0 9.383-2.71 81.175 81.175 0 0 0 13.293-6.133 78.947 78.947 0 0 0 8.152-5.383 79.575 79.575 0 0 0 7.445-6.321 82.328 82.328 0 0 0 3.422-3.489 81.519 81.519 0 0 0 8.918-11.61 82.465 82.465 0 0 0 2.488-4.202 84.361 84.361 0 0 0 2.227-4.348 78.423 78.423 0 0 0 1.96-4.476 83.628 83.628 0 0 0 1.692-4.582 81.521 81.521 0 0 0 3.363-14.246c.23-1.614.41-3.235.543-4.856.13-1.625.211-3.25.246-4.879a84.936 84.936 0 0 0-.046-4.887 81.286 81.286 0 0 0-.98-9.718 80.404 80.404 0 0 0-.93-4.793 79.322 79.322 0 0 0-1.215-4.735 81.486 81.486 0 0 0-3.278-9.199 82.842 82.842 0 0 0-2.05-4.433 82.894 82.894 0 0 0-2.313-4.305l-42.516-73.606a79.576 79.576 0 0 0-2.398-3.898 81.012 81.012 0 0 0-15.055-17.117 81.116 81.116 0 0 0-11.133-8 79.542 79.542 0 0 0-3.992-2.23 79.79 79.79 0 0 0-4.11-2.005 80.716 80.716 0 0 0-8.531-3.297 78.273 78.273 0 0 0-4.39-1.277 79.178 79.178 0 0 0-4.457-1.031 80.943 80.943 0 0 0-22.762-1.309c-1.52.13-3.035.301-4.547.512a84.172 84.172 0 0 0-4.507.77c-1.497.3-2.98.64-4.458 1.023a81.806 81.806 0 0 0-8.71 2.793 79.55 79.55 0 0 0-4.223 1.762 76.71 76.71 0 0 0-4.113 1.996 79.956 79.956 0 0 0-3.996 2.226 76.593 76.593 0 0 0-3.864 2.45 80.362 80.362 0 0 0-10.676 8.597l-14.539 13.895a230.96 230.96 0 0 0-6.324 6.203 242.638 242.638 0 0 0-6.082 6.437 236.473 236.473 0 0 0-11.426 13.536 234.08 234.08 0 0 0-10.375 14.355 225.672 225.672 0 0 0-4.777 7.46 229.715 229.715 0 0 0-4.496 7.634 230.318 230.318 0 0 0-8.113 15.742 237.244 237.244 0 0 0-6.914 16.309 232.512 232.512 0 0 0-2.993 8.335 237.69 237.69 0 0 0-5.035 16.98 235.27 235.27 0 0 0-3.75 17.309 237.84 237.84 0 0 0-1.386 8.75 237.7 237.7 0 0 0-1.782 17.622c-.187 2.949-.32 5.898-.394 8.847a230.994 230.994 0 0 0-.063 8.86 237.483 237.483 0 0 0 .871 17.691 235.684 235.684 0 0 0 2.2 17.574 227.398 227.398 0 0 0 1.59 8.711 233.832 233.832 0 0 0 4.156 17.219 229.976 229.976 0 0 0 2.558 8.48 238.026 238.026 0 0 0 2.875 8.38 240.232 240.232 0 0 0 3.188 8.261 1125.684 1125.684 0 0 0 66.992 138.508 1122.377 1122.377 0 0 0 88.008 129.215 240.576 240.576 0 0 0 8.664 10.336 238.765 238.765 0 0 0 19.012 19.129 235.458 235.458 0 0 0 10.28 8.73 236.704 236.704 0 0 0 10.759 8.137 237.268 237.268 0 0 0 11.199 7.52 242.122 242.122 0 0 0 11.605 6.874 239.299 239.299 0 0 0 24.281 11.734 239.456 239.456 0 0 0 51.738 14.941 240.235 240.235 0 0 0 26.802 3.013c4.488.25 8.984.37 13.484.37 23.457.013 46.402-3.413 68.832-10.276l17.516-5.426a81.18 81.18 0 0 0 12.582-5.098 81.023 81.023 0 0 0 11.55-7.129 79.526 79.526 0 0 0 3.563-2.797 79.843 79.843 0 0 0 9.676-9.52 78.9 78.9 0 0 0 5.504-7.191 77.845 77.845 0 0 0 2.441-3.812 81.547 81.547 0 0 0 4.223-8.012 79.81 79.81 0 0 0 3.3-8.43 83.916 83.916 0 0 0 1.29-4.343 77.49 77.49 0 0 0 1.043-4.407 78.25 78.25 0 0 0 .796-4.457c.227-1.492.407-2.992.547-4.496a79.527 79.527 0 0 0 .328-9.047 75.876 75.876 0 0 0-.214-4.523 78.86 78.86 0 0 0-.47-4.504 78.346 78.346 0 0 0-.718-4.473 81.98 81.98 0 0 0-.969-4.425 80.072 80.072 0 0 0-1.218-4.36 77.984 77.984 0 0 0-1.457-4.289 81.31 81.31 0 0 0-1.7-4.199 79.787 79.787 0 0 0-4.082-8.078Zm0 0" fill="rgb(154, 204, 231)" data-color="1"></path>
        <path d="M543.863 439.543c-1.191 0-2.379-.094-3.558-.273a22.67 22.67 0 0 1-2.211-.461 21.86 21.86 0 0 1-2.157-.672 22.073 22.073 0 0 1-2.078-.88 22.128 22.128 0 0 1-1.984-1.081 23.107 23.107 0 0 1-1.871-1.266 23.656 23.656 0 0 1-3.32-3.055 23.629 23.629 0 0 1-2.66-3.644 22.658 22.658 0 0 1-1.051-2 22.489 22.489 0 0 1-.848-2.09c-.25-.71-.465-1.433-.64-2.168a22.929 22.929 0 0 1-.617-6.723c.042-.753.12-1.503.234-2.246a171.58 171.58 0 0 0 2.18-26.836 161.479 161.479 0 0 0-1.75-23.59 159.332 159.332 0 0 0-2.169-11.636 160.563 160.563 0 0 0-6.86-22.637 161.089 161.089 0 0 0-23.215-41.078 160.571 160.571 0 0 0-7.608-9.07 159.47 159.47 0 0 0-8.25-8.485 161.129 161.129 0 0 0-28.16-21.527 160.932 160.932 0 0 0-10.352-5.738 162.08 162.08 0 0 0-10.75-4.961 22.911 22.911 0 0 1-7.512-5.004 22.984 22.984 0 0 1-1.523-1.68 22.73 22.73 0 0 1-3.488-5.828 24.421 24.421 0 0 1-.758-2.14 22.675 22.675 0 0 1-.871-4.45 23.162 23.162 0 0 1 .363-6.781c.152-.742.34-1.477.562-2.2a23.227 23.227 0 0 1 2.946-6.116c.425-.625.883-1.23 1.367-1.813a23.123 23.123 0 0 1 5.074-4.516 22.253 22.253 0 0 1 1.957-1.144 23.177 23.177 0 0 1 4.21-1.691 22.632 22.632 0 0 1 2.212-.524 21.92 21.92 0 0 1 2.25-.305 21.995 21.995 0 0 1 2.27-.082 22.915 22.915 0 0 1 4.508.508 22.847 22.847 0 0 1 4.32 1.379 206.161 206.161 0 0 1 13.804 6.379 206.865 206.865 0 0 1 26.02 15.7 205.218 205.218 0 0 1 12.078 9.241 206.75 206.75 0 0 1 31.73 32.66 206.618 206.618 0 0 1 23.828 38.8 205.958 205.958 0 0 1 10.906 28.363 206.58 206.58 0 0 1 6.64 29.656 205.502 205.502 0 0 1 1.673 15.115c.371 5.059.559 10.121.559 15.195a217.25 217.25 0 0 1-2.73 33.918 22.782 22.782 0 0 1-.973 3.95 22.895 22.895 0 0 1-3.934 7.078 22.464 22.464 0 0 1-2.84 2.91 22.754 22.754 0 0 1-3.308 2.367 23.052 23.052 0 0 1-7.594 2.813c-1.34.238-2.691.359-4.05.359Zm0 0" fill="rgb(154, 204, 231)" data-color="1"></path>
        <g clip-path="url(#3ed26f75-6965-4d65-9a4d-fa54f4371f4d_comp-lijrviu64__item-lhr8mvyq)">
            <path d="M664.723 459.48a23.706 23.706 0 0 1-3.864-.34 22.209 22.209 0 0 1-2.207-.484 23.946 23.946 0 0 1-2.144-.699 22.16 22.16 0 0 1-2.07-.91 24.317 24.317 0 0 1-1.97-1.102 23.157 23.157 0 0 1-1.85-1.297 24.104 24.104 0 0 1-1.716-1.464 24.591 24.591 0 0 1-1.562-1.63 24.474 24.474 0 0 1-1.395-1.777 22.418 22.418 0 0 1-1.215-1.902 22.617 22.617 0 0 1-1.843-4.117 23.256 23.256 0 0 1-1.004-4.395 24 24 0 0 1-.176-2.25c-.02-.754-.004-1.508.047-2.258.055-.753.144-1.5.27-2.242a278.142 278.142 0 0 0 3.956-46.465 281.495 281.495 0 0 0-1.675-31.242c-.375-3.46-.82-6.91-1.325-10.351a283.626 283.626 0 0 0-9.086-40.7 282.416 282.416 0 0 0-19.605-48.27 283.628 283.628 0 0 0-15.906-26.941 281.4 281.4 0 0 0-12.223-16.91 278.152 278.152 0 0 0-6.57-8.109 284.632 284.632 0 0 0-6.863-7.86 285.275 285.275 0 0 0-14.575-14.93 273.51 273.51 0 0 0-7.691-7.05 279.116 279.116 0 0 0-16.137-13.23 281.485 281.485 0 0 0-17.066-12.004 283.718 283.718 0 0 0-17.906-10.715 284.606 284.606 0 0 0-18.649-9.363 276.404 276.404 0 0 0-9.57-4.157 24.287 24.287 0 0 1-2.121-.918 23.18 23.18 0 0 1-2.02-1.128 21.883 21.883 0 0 1-1.894-1.32 22.283 22.283 0 0 1-1.754-1.509 21.5 21.5 0 0 1-1.594-1.675 22.856 22.856 0 0 1-1.418-1.829 22.498 22.498 0 0 1-1.227-1.957 23.21 23.21 0 0 1-2.425-6.472 23.753 23.753 0 0 1-.36-2.285 22.737 22.737 0 0 1 .305-6.907c.148-.754.336-1.504.559-2.242a22.948 22.948 0 0 1 1.78-4.258c.368-.68.77-1.34 1.204-1.976a23.047 23.047 0 0 1 2.965-3.54 23.766 23.766 0 0 1 1.734-1.527 23.134 23.134 0 0 1 3.883-2.5 23.724 23.724 0 0 1 2.113-.945c.719-.277 1.45-.52 2.196-.726a22.337 22.337 0 0 1 2.253-.504 23.924 23.924 0 0 1 2.297-.278c.77-.05 1.54-.066 2.313-.043a23.517 23.517 0 0 1 4.578.61 24.4 24.4 0 0 1 2.219.644c.73.254 1.445.543 2.144.867a329.599 329.599 0 0 1 22.055 10.079 333.886 333.886 0 0 1 10.73 5.644 322.297 322.297 0 0 1 10.52 6.035 332.568 332.568 0 0 1 10.289 6.418 332.796 332.796 0 0 1 10.043 6.797 323.228 323.228 0 0 1 9.785 7.16 326.611 326.611 0 0 1 18.746 15.38 328.42 328.42 0 0 1 8.938 8.194c2.926 2.79 5.8 5.63 8.625 8.524a316.556 316.556 0 0 1 8.304 8.832 327.729 327.729 0 0 1 15.61 18.555 331.954 331.954 0 0 1 14.195 19.656 325.197 325.197 0 0 1 6.543 10.207 322.402 322.402 0 0 1 6.164 10.445 314.949 314.949 0 0 1 5.774 10.66 331.164 331.164 0 0 1 5.379 10.868 329.547 329.547 0 0 1 4.972 11.058 330.741 330.741 0 0 1 8.703 22.629 330.764 330.764 0 0 1 7.012 23.211c1.023 3.91 1.977 7.84 2.855 11.785a315.056 315.056 0 0 1 2.422 11.88 326.11 326.11 0 0 1 3.524 23.987 329.092 329.092 0 0 1 1.742 24.184c.14 4.039.207 8.082.2 12.121a321.43 321.43 0 0 1-4.63 54.164 23.065 23.065 0 0 1-7.836 13.684 22.917 22.917 0 0 1-3.285 2.312 22.842 22.842 0 0 1-3.637 1.707 22.577 22.577 0 0 1-3.878 1.047c-1.325.238-2.66.356-4.004.36Zm0 0" fill="rgb(154, 204, 231)" data-color="1"></path>
        </g>
    </g>
</svg>