<svg preserveAspectRatio="xMidYMid meet" data-bbox="44.931 107.723 675 549.511" height="1024" viewBox="44.931 107.723 675 549.511" width="1024" xmlns="http://www.w3.org/2000/svg" data-type="color" role="presentation" aria-hidden="true" aria-label="">
    <g>
        <defs>
            <clipPath id="3b230152-4669-41f2-b1fd-6c8cdeef42e2_comp-lki1gair4">
                <path d="M46.5 107.672H563V658H46.5Zm0 0"></path>
            </clipPath>
        </defs>
        <path d="M688.816 209.773a54.814 54.814 0 0 0-7.164-2.87 55.35 55.35 0 0 0-7.496-1.833 54.646 54.646 0 0 0-15.387-.426 54.46 54.46 0 0 0-7.585 1.41 54.74 54.74 0 0 0-7.313 2.47 54.193 54.193 0 0 0-6.894 3.468 54.92 54.92 0 0 0-6.336 4.406L524.684 301.18a23.36 23.36 0 0 0-3.73 3.75 23.382 23.382 0 0 0-2.798 4.488 23.38 23.38 0 0 0-1.726 5 23.34 23.34 0 0 0-.57 5.258v125.601a23.514 23.514 0 0 0 2.324 10.188 23.304 23.304 0 0 0 2.789 4.457 23.415 23.415 0 0 0 3.71 3.726l105.958 84.782a55.642 55.642 0 0 0 6.34 4.386 55.093 55.093 0 0 0 14.199 5.91 54.837 54.837 0 0 0 22.953.997 54.889 54.889 0 0 0 27.45-13.195 54.407 54.407 0 0 0 5.374-5.528 54.253 54.253 0 0 0 4.55-6.223 54.58 54.58 0 0 0 3.634-6.8 55.521 55.521 0 0 0 2.648-7.239 55.241 55.241 0 0 0 1.606-7.543c.359-2.55.539-5.113.535-7.691V259.418a54.159 54.159 0 0 0-.496-7.711 54.217 54.217 0 0 0-4.207-14.824 54.509 54.509 0 0 0-3.63-6.817 53.542 53.542 0 0 0-4.554-6.238 54.6 54.6 0 0 0-5.387-5.535 54.92 54.92 0 0 0-6.117-4.715 54.73 54.73 0 0 0-6.723-3.805Zm0 0" fill="#2196f3" data-color="1"></path>
        <g clip-path="url(#3b230152-4669-41f2-b1fd-6c8cdeef42e2_comp-lki1gair4)">
            <path d="M162.664 107.723h282.559c1.925 0 3.851.047 5.773.14 1.926.094 3.848.235 5.766.426 1.918.188 3.828.422 5.734.707 1.906.281 3.805.613 5.692.988a116.355 116.355 0 0 1 11.21 2.809c1.844.559 3.672 1.164 5.485 1.812a118.054 118.054 0 0 1 20.863 9.867 119.557 119.557 0 0 1 9.61 6.423 117.69 117.69 0 0 1 8.93 7.332 118.354 118.354 0 0 1 11.945 12.547 117.69 117.69 0 0 1 6.882 9.28 119.47 119.47 0 0 1 3.09 4.883 113.71 113.71 0 0 1 2.848 5.028 119.922 119.922 0 0 1 4.941 10.445c.738 1.781 1.43 3.578 2.078 5.395a118.638 118.638 0 0 1 3.355 11.059c.47 1.866.891 3.745 1.266 5.636a117.954 117.954 0 0 1 2.262 22.973V539.48a118.8 118.8 0 0 1-.14 5.778 118.452 118.452 0 0 1-1.133 11.5 122.153 122.153 0 0 1-.989 5.695c-.375 1.89-.796 3.77-1.265 5.637a118.637 118.637 0 0 1-5.434 16.453 117.91 117.91 0 0 1-2.344 5.281 115.946 115.946 0 0 1-2.597 5.164 113.71 113.71 0 0 1-2.848 5.028 116.851 116.851 0 0 1-6.418 9.609 120.886 120.886 0 0 1-3.555 4.559 117.902 117.902 0 0 1-7.761 8.558 118.632 118.632 0 0 1-4.184 3.988 118.302 118.302 0 0 1-8.93 7.329 119.644 119.644 0 0 1-9.609 6.421 117.799 117.799 0 0 1-20.863 9.868c-1.813.652-3.64 1.254-5.485 1.816a117.364 117.364 0 0 1-11.21 2.805c-1.887.379-3.786.707-5.692.988-1.906.285-3.816.52-5.734.707a118.521 118.521 0 0 1-11.54.57H162.665a118.558 118.558 0 0 1-17.277-1.277c-1.907-.281-3.801-.61-5.692-.988-1.89-.375-3.77-.797-5.64-1.266a119.77 119.77 0 0 1-5.567-1.539 117.144 117.144 0 0 1-5.488-1.816 115.34 115.34 0 0 1-5.39-2.078 118.053 118.053 0 0 1-15.473-7.79 116.696 116.696 0 0 1-9.605-6.422 117.818 117.818 0 0 1-4.56-3.554 121.6 121.6 0 0 1-4.374-3.774 122.14 122.14 0 0 1-4.184-3.988 117.9 117.9 0 0 1-7.762-8.559 125.066 125.066 0 0 1-3.554-4.558 117.904 117.904 0 0 1-3.325-4.727 116.933 116.933 0 0 1-8.539-15.074c-.824-1.742-1.605-3.5-2.343-5.281a120.02 120.02 0 0 1-2.078-5.395 118.637 118.637 0 0 1-3.355-11.059 118.014 118.014 0 0 1-1.267-5.636c-.375-1.89-.703-3.789-.988-5.695a122.835 122.835 0 0 1-.707-5.735 123.57 123.57 0 0 1-.426-5.765 118.8 118.8 0 0 1-.14-5.778V225.473c0-1.926.047-3.852.14-5.778.098-1.925.239-3.847.426-5.761a123 123 0 0 1 .707-5.739c.285-1.906.613-3.804.988-5.695.375-1.89.801-3.77 1.266-5.637a118.638 118.638 0 0 1 5.434-16.453 119.92 119.92 0 0 1 4.941-10.445 117.797 117.797 0 0 1 29.14-35.516 117.817 117.817 0 0 1 4.56-3.554 116.696 116.696 0 0 1 9.605-6.422 122.193 122.193 0 0 1 5.027-2.848 118.053 118.053 0 0 1 10.445-4.941 117.094 117.094 0 0 1 10.879-3.89 116.355 116.355 0 0 1 11.207-2.809 117.051 117.051 0 0 1 11.426-1.696c1.918-.191 3.84-.332 5.766-.426 1.922-.093 3.847-.14 5.777-.14Zm0 0" fill="#29b3ff" data-color="2"></path>
        </g>
        <path d="m391.473 337.227-94.563-47.29a55.404 55.404 0 0 0-3.172-1.46 54.969 54.969 0 0 0-3.258-1.262 54.884 54.884 0 0 0-3.332-1.047 52.988 52.988 0 0 0-3.39-.836 53.644 53.644 0 0 0-3.438-.617 51.777 51.777 0 0 0-3.468-.399 54.733 54.733 0 0 0-3.489-.18 57.843 57.843 0 0 0-3.492.048 54.458 54.458 0 0 0-10.36 1.46 54.944 54.944 0 0 0-13.027 4.945 54.17 54.17 0 0 0-3.027 1.743 53.608 53.608 0 0 0-2.91 1.93 58.525 58.525 0 0 0-2.785 2.11 54.57 54.57 0 0 0-5.133 4.734 54.452 54.452 0 0 0-2.332 2.597 56.047 56.047 0 0 0-4.145 5.621 55.161 55.161 0 0 0-3.394 6.098 54.025 54.025 0 0 0-2.598 6.484 54.928 54.928 0 0 0-2.637 13.684 54.86 54.86 0 0 0-.105 3.492v110.309a55.16 55.16 0 0 0 .488 7.398 55.394 55.394 0 0 0 1.485 7.262 55.379 55.379 0 0 0 2.449 6.996 54.78 54.78 0 0 0 7.594 12.695 54.625 54.625 0 0 0 10.703 10.203 54.403 54.403 0 0 0 6.285 3.93 54.75 54.75 0 0 0 13.86 5.16c2.413.543 4.855.922 7.323 1.133a54.553 54.553 0 0 0 14.77-.723 54.83 54.83 0 0 0 20.469-8.336l94.562-63.02a54.923 54.923 0 0 0 2.918-2.085c.95-.73 1.875-1.488 2.774-2.277a53.41 53.41 0 0 0 2.62-2.45 53.445 53.445 0 0 0 2.454-2.613 53.396 53.396 0 0 0 2.281-2.773 54.864 54.864 0 0 0 2.094-2.91 55.7 55.7 0 0 0 5.082-9.473 55.088 55.088 0 0 0 3.14-10.277c.235-1.172.434-2.352.594-3.54.157-1.183.278-2.375.36-3.57.082-1.191.125-2.387.129-3.586 0-1.195-.036-2.39-.11-3.586a54.882 54.882 0 0 0-7.144-23.851 54.231 54.231 0 0 0-3.957-5.98 55.286 55.286 0 0 0-2.262-2.782 55.37 55.37 0 0 0-7.809-7.387 56.56 56.56 0 0 0-2.906-2.101 52.14 52.14 0 0 0-3.039-1.91 51.095 51.095 0 0 0-3.152-1.708Zm0 0" fill="#ffffff" data-color="3"></path>
    </g>
</svg>