<svg preserveAspectRatio="xMidYMid meet" data-bbox="54.176 54.207 656.594 656.573" height="1024" viewBox="54.176 54.207 656.594 656.573" width="1024" xmlns="http://www.w3.org/2000/svg" data-type="color" role="presentation" aria-hidden="true" aria-label="">
    <g>
        <path d="M651.25 285.895a43.693 43.693 0 0 1-5.41-6.637 44.055 44.055 0 0 1-6.523-15.75 44.265 44.265 0 0 1-.864-8.52v-39.035c0-1.465-.039-2.93-.113-4.39a91.303 91.303 0 0 0-.328-4.38 90.952 90.952 0 0 0-1.297-8.683 88.281 88.281 0 0 0-.969-4.285 91.414 91.414 0 0 0-2.555-8.402 91.287 91.287 0 0 0-3.367-8.11 94.398 94.398 0 0 0-1.976-3.922 92.182 92.182 0 0 0-2.168-3.82 94.054 94.054 0 0 0-2.352-3.707 88.542 88.542 0 0 0-2.531-3.59 89.705 89.705 0 0 0-5.57-6.785 89.614 89.614 0 0 0-3.032-3.18 89.423 89.423 0 0 0-13.559-11.129 91.397 91.397 0 0 0-3.71-2.351 91.505 91.505 0 0 0-3.82-2.164 92.022 92.022 0 0 0-3.922-1.977 92.168 92.168 0 0 0-4.016-1.781 96.205 96.205 0 0 0-4.094-1.582 91.414 91.414 0 0 0-8.402-2.555 90.273 90.273 0 0 0-8.613-1.719 90.16 90.16 0 0 0-13.125-.98H509.96a43.43 43.43 0 0 1-16.73-3.297 43.31 43.31 0 0 1-7.56-4.031 43.323 43.323 0 0 1-6.62-5.438l-33.293-33.324a89.216 89.216 0 0 0-6.512-5.887 88.55 88.55 0 0 0-7.059-5.222 94.103 94.103 0 0 0-3.71-2.348 91.948 91.948 0 0 0-7.746-4.133 94.24 94.24 0 0 0-4.016-1.777 91.255 91.255 0 0 0-4.098-1.574 86.841 86.841 0 0 0-8.406-2.547 89.25 89.25 0 0 0-21.738-2.676c-1.465 0-2.926.035-4.391.106a91.29 91.29 0 0 0-8.738.859A90.087 90.087 0 0 0 356.5 58.05c-1.402.426-2.79.883-4.168 1.379a91.406 91.406 0 0 0-4.102 1.574 94.239 94.239 0 0 0-4.015 1.777 91.948 91.948 0 0 0-7.746 4.133 91.314 91.314 0 0 0-7.305 4.871 88.55 88.55 0 0 0-3.465 2.7 89.214 89.214 0 0 0-6.512 5.886l-33.292 33.324a43.383 43.383 0 0 1-6.618 5.446 43.898 43.898 0 0 1-7.558 4.043 43.267 43.267 0 0 1-8.203 2.48c-2.817.559-5.66.832-8.528.828h-39.004c-1.464 0-2.93.04-4.39.113-1.465.07-2.922.18-4.38.325a90.273 90.273 0 0 0-12.973 2.262 90.254 90.254 0 0 0-8.397 2.555 85.26 85.26 0 0 0-4.098 1.581 94.308 94.308 0 0 0-4.016 1.781 87.647 87.647 0 0 0-3.921 1.977 92.098 92.098 0 0 0-3.82 2.164 91.277 91.277 0 0 0-7.3 4.879 89.705 89.705 0 0 0-18.57 18.566 92.61 92.61 0 0 0-2.533 3.59 91.259 91.259 0 0 0-2.352 3.707 92.099 92.099 0 0 0-2.164 3.82 87.648 87.648 0 0 0-1.976 3.922 87.746 87.746 0 0 0-3.367 8.11 88.207 88.207 0 0 0-2.559 8.402 90.3 90.3 0 0 0-1.723 8.61 96.225 96.225 0 0 0-.543 4.359 90.925 90.925 0 0 0-.328 4.379 91.363 91.363 0 0 0-.113 4.39v39.004a43.9 43.9 0 0 1-.856 8.512 43.462 43.462 0 0 1-2.484 8.184 44.067 44.067 0 0 1-9.426 14.184l-33.355 33.32a89.214 89.214 0 0 0-5.887 6.512 92.472 92.472 0 0 0-2.7 3.464 91.314 91.314 0 0 0-4.87 7.305 94.149 94.149 0 0 0-2.16 3.824 94.317 94.317 0 0 0-1.973 3.922 87.705 87.705 0 0 0-1.773 4.02 85.207 85.207 0 0 0-1.579 4.097 86.646 86.646 0 0 0-1.375 4.168 88.186 88.186 0 0 0-2.132 8.52 90.087 90.087 0 0 0-.75 4.324 90.91 90.91 0 0 0-.86 8.738 91.483 91.483 0 0 0 0 8.781 91.29 91.29 0 0 0 .86 8.739 89.25 89.25 0 0 0 2.882 12.843 86.792 86.792 0 0 0 1.375 4.172 86.822 86.822 0 0 0 1.579 4.098 89.486 89.486 0 0 0 1.773 4.015 89.696 89.696 0 0 0 1.973 3.922 94.15 94.15 0 0 0 2.16 3.825 94.103 94.103 0 0 0 2.347 3.71 88.493 88.493 0 0 0 5.223 7.06 89.216 89.216 0 0 0 5.887 6.51l33.355 33.294a43.885 43.885 0 0 1 5.41 6.637 44.055 44.055 0 0 1 6.523 15.75 44.25 44.25 0 0 1 .864 8.523v39.031c0 1.465.04 2.93.113 4.39a90.237 90.237 0 0 0 .872 8.74 90.3 90.3 0 0 0 4.277 17.01 92.168 92.168 0 0 0 3.367 8.11 96.856 96.856 0 0 0 1.977 3.922 92.182 92.182 0 0 0 2.168 3.82 91.26 91.26 0 0 0 2.351 3.707 92.61 92.61 0 0 0 2.531 3.59 85.69 85.69 0 0 0 2.704 3.461 86.246 86.246 0 0 0 2.87 3.324 86.225 86.225 0 0 0 3.028 3.184 92.994 92.994 0 0 0 3.18 3.027 93.144 93.144 0 0 0 3.328 2.868 89.354 89.354 0 0 0 7.05 5.23 91.397 91.397 0 0 0 3.712 2.352 87.282 87.282 0 0 0 3.82 2.164 87.648 87.648 0 0 0 3.922 1.976 92.168 92.168 0 0 0 4.015 1.781 85.262 85.262 0 0 0 4.098 1.582c1.375.497 2.766.954 4.168 1.38a89.357 89.357 0 0 0 8.516 2.14 90.273 90.273 0 0 0 8.683 1.297c1.457.144 2.918.254 4.383.324 1.46.074 2.926.113 4.387.113h38.976c2.867-.004 5.711.27 8.528.828a43.267 43.267 0 0 1 8.203 2.481 43.898 43.898 0 0 1 7.558 4.043 43.383 43.383 0 0 1 6.618 5.445l33.293 33.324a86.118 86.118 0 0 0 3.183 3.024 89.318 89.318 0 0 0 14.098 10.437 89.627 89.627 0 0 0 3.82 2.164 92.095 92.095 0 0 0 3.926 1.973 89.533 89.533 0 0 0 16.516 5.902 90.337 90.337 0 0 0 8.613 1.711c1.449.215 2.902.395 4.36.536 1.456.144 2.917.253 4.378.324a91.482 91.482 0 0 0 8.781 0 86.88 86.88 0 0 0 4.38-.324 90.245 90.245 0 0 0 12.973-2.246 88.036 88.036 0 0 0 4.23-1.172 89.533 89.533 0 0 0 37.313-22.328l33.292-33.325a43.574 43.574 0 0 1 6.617-5.445 43.898 43.898 0 0 1 7.559-4.043 43.267 43.267 0 0 1 8.203-2.48 43.438 43.438 0 0 1 8.53-.829h39c1.466 0 2.93-.039 4.392-.113 1.464-.07 2.925-.18 4.382-.324a90.792 90.792 0 0 0 8.684-1.297 89.357 89.357 0 0 0 8.516-2.14 86.696 86.696 0 0 0 4.168-1.38 85.262 85.262 0 0 0 4.097-1.582 94.308 94.308 0 0 0 4.016-1.78 87.649 87.649 0 0 0 3.922-1.977 92.096 92.096 0 0 0 3.82-2.164 91.277 91.277 0 0 0 7.3-4.879 92.44 92.44 0 0 0 6.79-5.57 92.995 92.995 0 0 0 3.18-3.028 89.448 89.448 0 0 0 3.027-3.184 86.246 86.246 0 0 0 2.871-3.324 85.69 85.69 0 0 0 2.703-3.46 92.61 92.61 0 0 0 2.531-3.59 87.822 87.822 0 0 0 4.516-7.527 92.097 92.097 0 0 0 1.98-3.923 92.168 92.168 0 0 0 1.782-4.015 85.12 85.12 0 0 0 1.582-4.094 88.207 88.207 0 0 0 2.558-8.403 90.301 90.301 0 0 0 1.723-8.61c.215-1.448.398-2.901.543-4.358a90.419 90.419 0 0 0 .441-8.77V509.96a44.01 44.01 0 0 1 .852-8.52 44.106 44.106 0 0 1 2.492-8.187 43.915 43.915 0 0 1 4.031-7.55 44.075 44.075 0 0 1 5.422-6.622l33.324-33.324a89.216 89.216 0 0 0 5.887-6.512 88.55 88.55 0 0 0 5.223-7.059 91.312 91.312 0 0 0 2.347-3.71 89.686 89.686 0 0 0 2.16-3.825 89.696 89.696 0 0 0 1.973-3.922 89.486 89.486 0 0 0 1.774-4.015 86.822 86.822 0 0 0 1.578-4.098 86.841 86.841 0 0 0 2.547-8.406 89.25 89.25 0 0 0 2.676-21.738c0-1.465-.036-2.926-.106-4.391a91.288 91.288 0 0 0-.86-8.738 90.087 90.087 0 0 0-2.878-12.844 86.695 86.695 0 0 0-1.38-4.168 85.207 85.207 0 0 0-1.577-4.098 87.705 87.705 0 0 0-1.774-4.02 94.317 94.317 0 0 0-1.972-3.921 89.685 89.685 0 0 0-2.16-3.824 91.314 91.314 0 0 0-4.871-7.305 88.55 88.55 0 0 0-2.7-3.465 89.214 89.214 0 0 0-5.887-6.512Zm0 0" fill="#2196f3" data-color="1"></path>
        <path d="M588.637 382.473c0 3.375-.082 6.746-.246 10.117a207.114 207.114 0 0 1-1.985 20.133 205.26 205.26 0 0 1-1.73 9.972 208.088 208.088 0 0 1-2.215 9.871 210.716 210.716 0 0 1-2.7 9.754c-.98 3.227-2.038 6.43-3.175 9.61a208.989 208.989 0 0 1-3.64 9.437 205.735 205.735 0 0 1-13.64 27.098 211.237 211.237 0 0 1-5.411 8.547 210.028 210.028 0 0 1-5.829 8.273 205.013 205.013 0 0 1-6.226 7.977 205.584 205.584 0 0 1-20.914 21.968 205.584 205.584 0 0 1-7.664 6.61 205.984 205.984 0 0 1-16.25 12.055 205.217 205.217 0 0 1-17.352 10.398 203.61 203.61 0 0 1-9.039 4.55 210.053 210.053 0 0 1-9.254 4.102 207.354 207.354 0 0 1-19.047 6.817c-3.23.976-6.48 1.879-9.754 2.699-3.273.82-6.562 1.559-9.87 2.215a205.352 205.352 0 0 1-20.016 2.969c-3.356.332-6.723.578-10.09.746a208.059 208.059 0 0 1-20.235 0 207.476 207.476 0 0 1-20.132-1.985c-3.34-.496-6.66-1.07-9.973-1.73a203.363 203.363 0 0 1-9.871-2.215 210.716 210.716 0 0 1-9.754-2.7 207.691 207.691 0 0 1-19.047-6.816 210.053 210.053 0 0 1-9.254-4.101 201.362 201.362 0 0 1-9.035-4.551 203.005 203.005 0 0 1-8.805-4.984 205.984 205.984 0 0 1-24.8-17.469 205.584 205.584 0 0 1-21.97-20.914 205.584 205.584 0 0 1-6.609-7.664 205.014 205.014 0 0 1-12.05-16.25 207.093 207.093 0 0 1-5.414-8.547 205.735 205.735 0 0 1-17.281-36.535 209.403 209.403 0 0 1-3.176-9.61c-.977-3.23-1.88-6.48-2.7-9.754a208.088 208.088 0 0 1-2.214-9.87 205.353 205.353 0 0 1-2.97-20.016 207.112 207.112 0 0 1-.745-10.09 208.059 208.059 0 0 1 0-20.235 207.839 207.839 0 0 1 1.984-20.132 207.165 207.165 0 0 1 3.945-19.844c.82-3.274 1.723-6.524 2.7-9.754A207.689 207.689 0 0 1 192 303.578a205.594 205.594 0 0 1 8.652-18.29c1.59-2.976 3.254-5.91 4.989-8.804a205.891 205.891 0 0 1 11.238-16.824 208.016 208.016 0 0 1 12.836-15.64 205.833 205.833 0 0 1 21.969-20.915 208.549 208.549 0 0 1 7.976-6.226 205.891 205.891 0 0 1 16.824-11.238 203.08 203.08 0 0 1 8.805-4.989A205.594 205.594 0 0 1 303.58 192a207.356 207.356 0 0 1 19.046-6.816 205.89 205.89 0 0 1 9.754-2.696 205.353 205.353 0 0 1 29.887-5.188c3.355-.331 6.722-.577 10.09-.745a208.059 208.059 0 0 1 20.234 0 207.475 207.475 0 0 1 20.133 1.984 205.353 205.353 0 0 1 19.843 3.95c3.274.816 6.524 1.718 9.754 2.695A207.688 207.688 0 0 1 461.367 192a210.054 210.054 0 0 1 9.254 4.102 205.295 205.295 0 0 1 17.84 9.54 205.891 205.891 0 0 1 16.824 11.238 205.014 205.014 0 0 1 7.977 6.225 205.584 205.584 0 0 1 21.968 20.915 208.015 208.015 0 0 1 12.836 15.64 210.028 210.028 0 0 1 5.829 8.274 208.676 208.676 0 0 1 10.398 17.355 205.594 205.594 0 0 1 8.652 18.29 207.354 207.354 0 0 1 6.817 19.046c.976 3.23 1.879 6.48 2.699 9.754a207.165 207.165 0 0 1 5.184 29.887c.332 3.359.578 6.722.746 10.09.164 3.37.246 6.742.246 10.117Zm0 0" fill="#29b3ff" data-color="2"></path>
        <path d="M351.93 466.465a22.663 22.663 0 0 1-12.727-3.86 22.442 22.442 0 0 1-3.46-2.859l-61.087-61.086c-.5-.535-.972-1.094-1.418-1.676a22.24 22.24 0 0 1-1.254-1.808 23.597 23.597 0 0 1-1.074-1.918 23.065 23.065 0 0 1-2.055-6.242 22.764 22.764 0 0 1-.199-6.567 22.393 22.393 0 0 1 .914-4.297c.22-.699.473-1.386.758-2.062.29-.672.606-1.332.957-1.977a23.153 23.153 0 0 1 2.453-3.64c.469-.567.961-1.11 1.48-1.625a22.468 22.468 0 0 1 3.387-2.793 23.595 23.595 0 0 1 3.855-2.098 23.168 23.168 0 0 1 2.063-.758 22.393 22.393 0 0 1 4.293-.914 22.926 22.926 0 0 1 8.715.684 22.851 22.851 0 0 1 4.098 1.57 22.942 22.942 0 0 1 5.402 3.746l44.899 44.867L457.914 305.2a23.124 23.124 0 0 1 3.484-2.672 23.597 23.597 0 0 1 1.918-1.074 23.065 23.065 0 0 1 6.243-2.055 22.764 22.764 0 0 1 6.57-.199 22.394 22.394 0 0 1 4.293.914c.7.219 1.387.473 2.062.758.672.29 1.332.606 1.977.957a23.152 23.152 0 0 1 3.64 2.453c.567.469 1.11.961 1.626 1.48a22.467 22.467 0 0 1 2.793 3.387 23.595 23.595 0 0 1 2.098 3.855c.284.677.538 1.364.757 2.063a22.394 22.394 0 0 1 .914 4.297 22.854 22.854 0 0 1-1.371 10.797 23.065 23.065 0 0 1-.883 2.012 23.598 23.598 0 0 1-1.074 1.918 21.3 21.3 0 0 1-1.254 1.808 22.22 22.22 0 0 1-1.418 1.676L368.117 459.746a22.442 22.442 0 0 1-3.46 2.86 22.663 22.663 0 0 1-12.727 3.86Zm0 0" fill="#ffffff" data-color="3"></path>
    </g>
</svg>