<svg preserveAspectRatio="xMidYMid meet" data-bbox="44.93 107.722 675.25 549.637" height="1024" viewBox="44.93 107.722 675.25 549.637" width="1024" xmlns="http://www.w3.org/2000/svg" data-type="color" role="presentation" aria-hidden="true" aria-label="">
    <g>
        <defs>
            <clipPath id="840fd723-3097-4066-a0ba-4509c26c3ef2_comp-lki1gaiy2">
                <path d="M46.5 348H375v225H46.5Zm0 0"></path>
            </clipPath>
            <clipPath id="d04ecb66-025c-412e-a0d4-3fbe6b63df8c_comp-lki1gaiy2">
                <path d="M358 107.672h300V407H358Zm0 0"></path>
            </clipPath>
        </defs>
        <g clip-path="url(#840fd723-3097-4066-a0ba-4509c26c3ef2_comp-lki1gaiy2)">
            <path d="M216.035 348.344h-12.558c-2.594.004-5.184.07-7.778.199a159.506 159.506 0 0 0-23.137 2.879 156.516 156.516 0 0 0-7.585 1.71 155.4 155.4 0 0 0-7.497 2.083c-2.48.754-4.945 1.566-7.386 2.441a165.6 165.6 0 0 0-7.254 2.805 162.483 162.483 0 0 0-7.11 3.156 158.193 158.193 0 0 0-6.945 3.504 153.514 153.514 0 0 0-6.765 3.836 152.691 152.691 0 0 0-6.57 4.164 156.44 156.44 0 0 0-6.36 4.48 154.541 154.541 0 0 0-6.133 4.786 161.985 161.985 0 0 0-5.89 5.082 162.213 162.213 0 0 0-5.633 5.363 158.72 158.72 0 0 0-5.364 5.637 155.009 155.009 0 0 0-5.082 5.886 160.548 160.548 0 0 0-4.789 6.133 160.409 160.409 0 0 0-4.48 6.36 160.159 160.159 0 0 0-8.004 13.336 160.475 160.475 0 0 0-6.656 14.058 155.294 155.294 0 0 0-2.805 7.254 160.182 160.182 0 0 0-4.527 14.883 162.596 162.596 0 0 0-1.715 7.59 158.666 158.666 0 0 0-2.297 15.383 156.256 156.256 0 0 0-.582 7.757c-.133 2.59-.2 5.184-.203 7.778a66.217 66.217 0 0 0 .32 6.379 66.115 66.115 0 0 0 .941 6.316c.207 1.047.442 2.086.704 3.117a64.03 64.03 0 0 0 1.855 6.114c.36 1 .742 1.996 1.152 2.98a65.015 65.015 0 0 0 9.82 16.379 61.37 61.37 0 0 0 2.087 2.422 64.743 64.743 0 0 0 4.512 4.516 64.318 64.318 0 0 0 7.546 5.894 62.786 62.786 0 0 0 2.7 1.71 64.872 64.872 0 0 0 8.547 4.313c.984.41 1.976.793 2.98 1.153 1 .36 2.011.695 3.031 1.004a59.83 59.83 0 0 0 3.078.855c1.031.262 2.07.496 3.117.703 1.043.211 2.09.395 3.145.551a67.28 67.28 0 0 0 6.355.637 72.51 72.51 0 0 0 3.192.082H309.5a72.51 72.51 0 0 0 3.191-.082 67.28 67.28 0 0 0 6.356-.637 60.794 60.794 0 0 0 3.144-.55 59.952 59.952 0 0 0 3.118-.704 60.95 60.95 0 0 0 3.078-.855 63.996 63.996 0 0 0 3.031-1.004 62.571 62.571 0 0 0 2.98-1.153c.985-.406 1.957-.84 2.918-1.297a64.872 64.872 0 0 0 10.938-6.566 64.093 64.093 0 0 0 7.25-6.258 64.826 64.826 0 0 0 4.285-4.734 61.2 61.2 0 0 0 1.965-2.516 60.466 60.466 0 0 0 1.84-2.613 62.787 62.787 0 0 0 1.71-2.7 65.014 65.014 0 0 0 5.457-11.531 64.143 64.143 0 0 0 1.856-6.113c.262-1.031.496-2.07.703-3.117a66.113 66.113 0 0 0 .942-6.316c.105-1.059.183-2.121.238-3.188.055-1.062.082-2.125.082-3.191a156.47 156.47 0 0 0-.203-7.778 159.508 159.508 0 0 0-2.879-23.14 162.595 162.595 0 0 0-1.715-7.59 160.182 160.182 0 0 0-4.527-14.883 155.294 155.294 0 0 0-2.805-7.254 157.944 157.944 0 0 0-6.66-14.058 155.877 155.877 0 0 0-3.836-6.766 161.854 161.854 0 0 0-4.164-6.57 160.41 160.41 0 0 0-4.48-6.36 160.548 160.548 0 0 0-4.79-6.133 155.009 155.009 0 0 0-5.082-5.886 162.331 162.331 0 0 0-5.363-5.637 162.212 162.212 0 0 0-5.633-5.363 161.984 161.984 0 0 0-5.89-5.082 154.542 154.542 0 0 0-6.133-4.785 156.44 156.44 0 0 0-6.36-4.48 155.147 155.147 0 0 0-6.57-4.165 153.59 153.59 0 0 0-6.765-3.836 158.193 158.193 0 0 0-6.946-3.504 162.484 162.484 0 0 0-7.11-3.156 164.678 164.678 0 0 0-7.257-2.805 158.435 158.435 0 0 0-7.383-2.441 155.4 155.4 0 0 0-7.496-2.082 157.567 157.567 0 0 0-15.25-3.047 159.506 159.506 0 0 0-15.472-1.543 161.48 161.48 0 0 0-7.778-.2Zm0 0" fill="#29b3ff" data-color="1"></path>
        </g>
        <path d="M327.488 272.574a118.8 118.8 0 0 1-.14 5.778 118.452 118.452 0 0 1-1.133 11.5 122.152 122.152 0 0 1-.988 5.695 116.355 116.355 0 0 1-2.809 11.21 116.946 116.946 0 0 1-1.813 5.485 115.487 115.487 0 0 1-4.421 10.68 115.807 115.807 0 0 1-2.598 5.16 119.608 119.608 0 0 1-5.938 9.914 116.695 116.695 0 0 1-3.328 4.723 120.886 120.886 0 0 1-3.554 4.558 117.901 117.901 0 0 1-3.778 4.375 118.468 118.468 0 0 1-3.984 4.188 122.204 122.204 0 0 1-4.184 3.984 121.599 121.599 0 0 1-4.375 3.774 113.98 113.98 0 0 1-4.554 3.554 119.644 119.644 0 0 1-9.61 6.422 113.71 113.71 0 0 1-5.027 2.848 118.054 118.054 0 0 1-21.32 8.836c-1.844.558-3.704 1.07-5.57 1.539-1.872.469-3.75.89-5.641 1.265-1.887.38-3.786.708-5.692.989a116.228 116.228 0 0 1-11.5 1.133c-1.922.097-3.847.144-5.777.144-1.926 0-3.852-.047-5.774-.144a118.441 118.441 0 0 1-5.765-.422 117.816 117.816 0 0 1-5.735-.711c-1.906-.281-3.804-.61-5.69-.988a118.649 118.649 0 0 1-11.212-2.806 121.688 121.688 0 0 1-5.484-1.812 118.133 118.133 0 0 1-10.676-4.425 111.75 111.75 0 0 1-5.16-2.598 113.71 113.71 0 0 1-5.028-2.848 119.558 119.558 0 0 1-9.609-6.422 118.304 118.304 0 0 1-8.93-7.328 122.206 122.206 0 0 1-4.183-3.984 118.468 118.468 0 0 1-3.985-4.188 117.9 117.9 0 0 1-3.777-4.375 120.887 120.887 0 0 1-3.555-4.558 116.696 116.696 0 0 1-3.328-4.723 119.608 119.608 0 0 1-5.937-9.914 118.053 118.053 0 0 1-4.941-10.445 115.487 115.487 0 0 1-2.079-5.395 116.945 116.945 0 0 1-1.812-5.484 116.355 116.355 0 0 1-2.809-11.21 117.796 117.796 0 0 1 1.266-51.582 118.637 118.637 0 0 1 5.433-16.454c.739-1.782 1.52-3.54 2.344-5.282a115.946 115.946 0 0 1 2.598-5.164 113.55 113.55 0 0 1 2.847-5.027 116.851 116.851 0 0 1 6.418-9.61 117.69 117.69 0 0 1 11.317-13.117 118.634 118.634 0 0 1 4.183-3.988 118.305 118.305 0 0 1 8.93-7.328 119.643 119.643 0 0 1 9.61-6.422 117.799 117.799 0 0 1 20.863-9.867c1.812-.652 3.64-1.254 5.484-1.816a117.404 117.404 0 0 1 11.211-2.805c1.887-.379 3.785-.707 5.691-.988 1.907-.286 3.817-.52 5.735-.707a118.521 118.521 0 0 1 11.54-.57 118.558 118.558 0 0 1 17.276 1.277c1.906.28 3.805.609 5.692.988a118.302 118.302 0 0 1 11.21 2.805c1.844.562 3.672 1.164 5.485 1.816 1.816.648 3.613 1.34 5.39 2.078a118.056 118.056 0 0 1 15.473 7.79 119.555 119.555 0 0 1 9.61 6.421 120.758 120.758 0 0 1 4.554 3.555 121.6 121.6 0 0 1 4.375 3.773 118.632 118.632 0 0 1 4.184 3.988 115.057 115.057 0 0 1 3.984 4.184 117.69 117.69 0 0 1 16.598 23.57c.91 1.7 1.773 3.422 2.598 5.164a115.487 115.487 0 0 1 4.422 10.676 118.638 118.638 0 0 1 3.355 11.059c.469 1.867.89 3.746 1.266 5.637a117.796 117.796 0 0 1 2.262 22.973Zm0 0" fill="#2196f3" data-color="2"></path>
        <path d="M508.012 358.926c-3.469.004-6.934.094-10.395.27a209.312 209.312 0 0 0-20.687 2.058 210.93 210.93 0 0 0-20.387 4.074 211.27 211.27 0 0 0-19.89 6.05 205.35 205.35 0 0 0-9.7 3.75 210.379 210.379 0 0 0-9.504 4.22 210.529 210.529 0 0 0-9.285 4.68 214.472 214.472 0 0 0-9.047 5.128 215.952 215.952 0 0 0-8.781 5.567 212.51 212.51 0 0 0-24.57 19.188 217.342 217.342 0 0 0-7.532 7.167 213.986 213.986 0 0 0-13.96 15.406 214.614 214.614 0 0 0-12.39 16.7 211.816 211.816 0 0 0-5.564 8.785 206.142 206.142 0 0 0-5.129 9.047 210.672 210.672 0 0 0-4.68 9.289c-1.484 3.132-2.89 6.3-4.218 9.504a211.433 211.433 0 0 0-9.8 29.593 214.867 214.867 0 0 0-2.286 10.145 211.946 211.946 0 0 0-1.789 10.246 213.225 213.225 0 0 0-2.059 20.691c-.171 3.465-.261 6.93-.265 10.395v4.836a81.215 81.215 0 0 0 .39 8.004 84.98 84.98 0 0 0 .493 3.976c.195 1.32.425 2.637.683 3.95a83.83 83.83 0 0 0 .88 3.91 75.762 75.762 0 0 0 1.07 3.86 80.217 80.217 0 0 0 1.253 3.804 88.09 88.09 0 0 0 1.442 3.742 82.702 82.702 0 0 0 3.425 7.242 80.592 80.592 0 0 0 1.977 3.485 82.388 82.388 0 0 0 4.45 6.664 83.454 83.454 0 0 0 5.081 6.191 80.746 80.746 0 0 0 5.664 5.664 80.603 80.603 0 0 0 9.47 7.39 80.728 80.728 0 0 0 10.45 5.922 80.178 80.178 0 0 0 7.402 3.066 84.99 84.99 0 0 0 3.803 1.259 81.668 81.668 0 0 0 7.77 1.945c1.308.262 2.625.488 3.945.684 1.324.199 2.649.363 3.977.492a80.835 80.835 0 0 0 8.004.394h260.832a80.135 80.135 0 0 0 8-.395 75.667 75.667 0 0 0 3.976-.491 79.266 79.266 0 0 0 3.946-.684 83.14 83.14 0 0 0 7.773-1.945 86.676 86.676 0 0 0 3.805-1.258 80.178 80.178 0 0 0 7.398-3.066 80.578 80.578 0 0 0 7.067-3.778 83.607 83.607 0 0 0 6.66-4.45 80.438 80.438 0 0 0 6.191-5.085 80.578 80.578 0 0 0 5.664-5.664 83.455 83.455 0 0 0 5.082-6.191 82.483 82.483 0 0 0 2.309-3.278 76.017 76.017 0 0 0 2.14-3.386 80.594 80.594 0 0 0 3.778-7.067 82.704 82.704 0 0 0 1.625-3.66c.511-1.234.992-2.48 1.441-3.742a84.67 84.67 0 0 0 1.258-3.805 81.67 81.67 0 0 0 1.945-7.77c.262-1.312.489-2.628.684-3.949.195-1.32.36-2.648.492-3.976a81.217 81.217 0 0 0 .391-8.004v-4.836c-.004-3.469-.09-6.938-.266-10.402a214.485 214.485 0 0 0-.777-10.38 213.564 213.564 0 0 0-3.074-20.581 215.218 215.218 0 0 0-2.29-10.153 217.755 217.755 0 0 0-2.785-10.027 213.369 213.369 0 0 0-3.273-9.879 221.24 221.24 0 0 0-3.754-9.707 213.143 213.143 0 0 0-14.05-27.855 214.849 214.849 0 0 0-5.575-8.79 210.834 210.834 0 0 0-5.996-8.503 216.767 216.767 0 0 0-6.406-8.2 210.558 210.558 0 0 0-6.805-7.879 210.666 210.666 0 0 0-7.18-7.53 213.648 213.648 0 0 0-15.422-13.969 215.946 215.946 0 0 0-8.207-6.399 212.084 212.084 0 0 0-26.363-16.68 215.125 215.125 0 0 0-9.293-4.675 217.281 217.281 0 0 0-9.516-4.215 210.028 210.028 0 0 0-9.71-3.743 213.373 213.373 0 0 0-19.91-6.035 215.144 215.144 0 0 0-10.153-2.28 213.504 213.504 0 0 0-20.582-3.05 211.882 211.882 0 0 0-10.379-.767 214.841 214.841 0 0 0-10.402-.254Zm0 0" fill="#2196f3" data-color="2"></path>
        <g clip-path="url(#d04ecb66-025c-412e-a0d4-3fbe6b63df8c_comp-lki1gaiy2)">
            <path d="M657.14 256.875c0 2.441-.062 4.879-.18 7.316a150.7 150.7 0 0 1-.538 7.301 148.749 148.749 0 0 1-2.149 14.481 154.518 154.518 0 0 1-1.601 7.144 149.048 149.048 0 0 1-4.25 14.004c-.82 2.3-1.7 4.578-2.633 6.832a150.145 150.145 0 0 1-9.867 19.602 147.157 147.157 0 0 1-3.914 6.183 149.496 149.496 0 0 1-13.5 17.3 150.435 150.435 0 0 1-10.348 10.352 149.371 149.371 0 0 1-17.297 13.5 154.085 154.085 0 0 1-6.183 3.919 148.084 148.084 0 0 1-6.371 3.605 148.129 148.129 0 0 1-20.059 8.895 152.66 152.66 0 0 1-6.95 2.296 148.373 148.373 0 0 1-14.195 3.555c-2.394.477-4.796.895-7.21 1.254-2.415.356-4.836.656-7.266.895a148.784 148.784 0 0 1-21.934.539 151.126 151.126 0 0 1-14.566-1.434 150.327 150.327 0 0 1-21.406-4.809 153.808 153.808 0 0 1-6.95-2.296 150.08 150.08 0 0 1-13.523-5.602 146 146 0 0 1-6.535-3.293 148.084 148.084 0 0 1-6.371-3.605 154.085 154.085 0 0 1-6.184-3.918 149.372 149.372 0 0 1-22.598-18.55 143.649 143.649 0 0 1-5.046-5.302 149.497 149.497 0 0 1-21.023-29.855 150.358 150.358 0 0 1-6.259-13.23 145.825 145.825 0 0 1-2.632-6.833 144.574 144.574 0 0 1-2.297-6.95 152.014 152.014 0 0 1-1.953-7.054c-.59-2.37-1.125-4.75-1.602-7.144a149.646 149.646 0 0 1-1.254-7.215 151.126 151.126 0 0 1-.894-7.266 151.757 151.757 0 0 1-.54-7.3c-.117-2.438-.18-4.876-.18-7.317s.063-4.883.18-7.32a151.126 151.126 0 0 1 1.434-14.566c.36-2.415.777-4.821 1.254-7.212a153.386 153.386 0 0 1 1.602-7.144 152.014 152.014 0 0 1 1.953-7.055 146.17 146.17 0 0 1 2.297-6.953c.82-2.297 1.699-4.574 2.632-6.828a150.358 150.358 0 0 1 6.258-13.234 148.026 148.026 0 0 1 3.61-6.368 149.87 149.87 0 0 1 3.914-6.187 149.371 149.371 0 0 1 8.719-11.754 149.654 149.654 0 0 1 4.78-5.547 146.83 146.83 0 0 1 5.048-5.3 150.325 150.325 0 0 1 5.3-5.048 146.409 146.409 0 0 1 5.543-4.78 144.575 144.575 0 0 1 5.77-4.505c1.96-1.457 3.957-2.86 5.984-4.215a145.956 145.956 0 0 1 6.184-3.918 152.457 152.457 0 0 1 6.37-3.609 150.215 150.215 0 0 1 13.227-6.258 147.515 147.515 0 0 1 6.832-2.633c2.297-.824 4.614-1.59 6.95-2.296a148.407 148.407 0 0 1 28.672-5.707 147.39 147.39 0 0 1 7.3-.536 147.39 147.39 0 0 1 7.317-.18c2.441 0 4.879.06 7.316.18a147.232 147.232 0 0 1 14.567 1.434 148.407 148.407 0 0 1 14.352 2.855c2.366.594 4.718 1.243 7.054 1.954 2.336.707 4.652 1.472 6.949 2.296a147.515 147.515 0 0 1 13.523 5.602 152.469 152.469 0 0 1 6.536 3.289 152.457 152.457 0 0 1 6.37 3.61 145.788 145.788 0 0 1 6.184 3.917 147.287 147.287 0 0 1 5.985 4.215 145.623 145.623 0 0 1 5.77 4.504 146.41 146.41 0 0 1 5.542 4.781 150.324 150.324 0 0 1 10.348 10.348c1.64 1.813 3.234 3.66 4.781 5.547a149.37 149.37 0 0 1 8.719 11.754 152.315 152.315 0 0 1 7.523 12.555 150.357 150.357 0 0 1 6.258 13.234 147.369 147.369 0 0 1 2.633 6.828 150.74 150.74 0 0 1 2.297 6.953c.707 2.336 1.36 4.688 1.953 7.055a152.54 152.54 0 0 1 2.855 14.355 150.061 150.061 0 0 1 1.434 14.566c.117 2.438.18 4.88.18 7.321Zm0 0" fill="#29b3ff" data-color="1"></path>
        </g>
    </g>
</svg>