<svg preserveAspectRatio="xMidYMid meet" data-bbox="123.418 48.042 517.836 675.028" height="1024" viewBox="123.418 48.042 517.836 675.028" width="1024" xmlns="http://www.w3.org/2000/svg" data-type="color" role="presentation" aria-hidden="true" aria-label="">
    <g>
        <defs>
            <clipPath id="7114ff9e-6796-4a7e-beb9-40a5dd638644_comp-lki1gaiv3">
                <path d="M123.281 142H642v579.5H123.281Zm0 0"></path>
            </clipPath>
        </defs>
        <g clip-path="url(#7114ff9e-6796-4a7e-beb9-40a5dd638644_comp-lki1gaiv3)">
            <path d="M209.727 142.258h345.222a84.974 84.974 0 0 1 8.461.414 87.763 87.763 0 0 1 8.375 1.242 87.855 87.855 0 0 1 8.219 2.059c1.351.41 2.691.855 4.02 1.332a83.34 83.34 0 0 1 3.953 1.523 87.683 87.683 0 0 1 7.656 3.621 87.677 87.677 0 0 1 7.265 4.356 89.122 89.122 0 0 1 3.465 2.441 89.19 89.19 0 0 1 3.34 2.61 86.055 86.055 0 0 1 14.567 15.304 87.89 87.89 0 0 1 2.44 3.465 87.669 87.669 0 0 1 4.356 7.27 85.621 85.621 0 0 1 1.903 3.785 85.825 85.825 0 0 1 5.699 15.933c.344 1.371.652 2.75.93 4.137a88.79 88.79 0 0 1 .722 4.176 84.53 84.53 0 0 1 .52 4.203 85.245 85.245 0 0 1 .414 8.465v408.14a85.088 85.088 0 0 1-.414 8.461 84.685 84.685 0 0 1-.52 4.207 88.628 88.628 0 0 1-.722 4.172 87.855 87.855 0 0 1-2.059 8.223 86.51 86.51 0 0 1-2.851 7.976 87.817 87.817 0 0 1-3.622 7.66 87.534 87.534 0 0 1-6.796 10.731 82.363 82.363 0 0 1-2.606 3.34 83.125 83.125 0 0 1-2.766 3.21 86.555 86.555 0 0 1-2.921 3.067 86.555 86.555 0 0 1-6.274 5.692 89.087 89.087 0 0 1-3.34 2.605 85.08 85.08 0 0 1-7.043 4.707 87.76 87.76 0 0 1-7.469 3.996 87.752 87.752 0 0 1-11.847 4.57 83.69 83.69 0 0 1-4.082 1.13c-1.371.343-2.75.656-4.137.93a84.51 84.51 0 0 1-8.375 1.242 80.59 80.59 0 0 1-4.226.312c-1.41.07-2.82.105-4.235.105H209.727c-1.415 0-2.825-.035-4.239-.105a80.441 80.441 0 0 1-4.222-.313 83.947 83.947 0 0 1-8.38-1.242 83.057 83.057 0 0 1-4.132-.93 86.51 86.51 0 0 1-8.105-2.457 87.605 87.605 0 0 1-7.824-3.242 85.693 85.693 0 0 1-7.47-3.996 84.934 84.934 0 0 1-3.578-2.265 82.445 82.445 0 0 1-3.464-2.442 86.01 86.01 0 0 1-15.305-14.574 93.37 93.37 0 0 1-2.606-3.34 89.027 89.027 0 0 1-2.437-3.465 81.26 81.26 0 0 1-2.266-3.582 83.39 83.39 0 0 1-2.09-3.683 90.196 90.196 0 0 1-1.906-3.786 87.752 87.752 0 0 1-3.238-7.828 87.925 87.925 0 0 1-2.46-8.11 83.173 83.173 0 0 1-.927-4.136 83.873 83.873 0 0 1-1.242-8.379 85.045 85.045 0 0 1-.313-4.226 85.093 85.093 0 0 1-.105-4.235v-408.14a85.69 85.69 0 0 1 .418-8.465 84.51 84.51 0 0 1 1.242-8.379 83.173 83.173 0 0 1 2.059-8.219 80.753 80.753 0 0 1 1.328-4.023 87.797 87.797 0 0 1 3.238-7.828 90.195 90.195 0 0 1 1.906-3.785 83.524 83.524 0 0 1 2.09-3.688 83.629 83.629 0 0 1 2.266-3.582 92.107 92.107 0 0 1 2.437-3.465 93.37 93.37 0 0 1 2.606-3.34 89.991 89.991 0 0 1 5.687-6.277 86.67 86.67 0 0 1 16.66-13.004 87.536 87.536 0 0 1 3.684-2.09 85.622 85.622 0 0 1 3.785-1.902 85.003 85.003 0 0 1 7.824-3.242 86.561 86.561 0 0 1 4.024-1.332 86.405 86.405 0 0 1 25.055-3.715Zm0 0" fill="#29b3ff" data-color="1"></path>
        </g>
        <path d="M507.875 471.906H256.801c-.77 0-1.54-.035-2.309-.113a22.7 22.7 0 0 1-2.285-.34 23.42 23.42 0 0 1-2.238-.558 23.636 23.636 0 0 1-4.266-1.77 22.79 22.79 0 0 1-1.98-1.188 23.469 23.469 0 0 1-7.68-8.476 23.172 23.172 0 0 1-.988-2.09 22.513 22.513 0 0 1-.778-2.176 23.226 23.226 0 0 1-.562-2.242 24.777 24.777 0 0 1-.34-2.285 23.913 23.913 0 0 1-.113-2.309c0-.77.039-1.539.113-2.308.078-.766.191-1.528.34-2.285a23.15 23.15 0 0 1 .562-2.239c.223-.738.48-1.464.778-2.175a23.771 23.771 0 0 1 2.176-4.074 23.469 23.469 0 0 1 4.636-5.118 23.517 23.517 0 0 1 3.836-2.566 23.61 23.61 0 0 1 6.504-2.328 25.18 25.18 0 0 1 2.285-.34c.77-.074 1.54-.113 2.309-.113h251.074c.77 0 1.54.039 2.305.113.77.078 1.53.191 2.285.34a23.534 23.534 0 0 1 17.934 16.262c.222.734.41 1.484.562 2.238a23.862 23.862 0 0 1 .45 4.593c0 .774-.036 1.543-.114 2.309-.074.77-.188 1.531-.336 2.285a23.61 23.61 0 0 1-2.328 6.508 23.722 23.722 0 0 1-2.563 3.836 23.946 23.946 0 0 1-1.554 1.715 23.024 23.024 0 0 1-1.711 1.55 22.77 22.77 0 0 1-1.856 1.375c-.64.43-1.3.825-1.98 1.188-.68.367-1.375.695-2.09.988a23.56 23.56 0 0 1-2.172.782 23.23 23.23 0 0 1-2.242.558c-.754.152-1.516.266-2.285.34-.766.078-1.535.113-2.305.113Zm0 0" fill="#ffffff" data-color="2"></path>
        <path d="M382.336 377.723H256.8c-.77 0-1.54-.04-2.309-.114a25.179 25.179 0 0 1-2.285-.34 23.61 23.61 0 0 1-6.504-2.328 23.517 23.517 0 0 1-5.547-4.117 23.468 23.468 0 0 1-4.113-5.55 22.68 22.68 0 0 1-.988-2.09 22.513 22.513 0 0 1-.778-2.176 23.15 23.15 0 0 1-.562-2.238 25.179 25.179 0 0 1-.34-2.286 24.111 24.111 0 0 1-.113-2.308c0-.774.039-1.543.113-2.309.078-.77.191-1.531.34-2.285a23.25 23.25 0 0 1 .562-2.242 23.421 23.421 0 0 1 2.953-6.246 23.892 23.892 0 0 1 2.926-3.57 23.469 23.469 0 0 1 5.547-4.113 23.636 23.636 0 0 1 4.266-1.77 23.42 23.42 0 0 1 2.238-.559 22.7 22.7 0 0 1 2.285-.34c.77-.078 1.54-.113 2.309-.113h125.535c.773 0 1.543.035 2.309.113a22.7 22.7 0 0 1 2.285.34 23.132 23.132 0 0 1 4.414 1.34c.715.293 1.41.621 2.09.988.68.363 1.34.758 1.98 1.188a23.469 23.469 0 0 1 6.492 6.496c.43.64.824 1.3 1.192 1.98.363.68.691 1.38.984 2.09a23.207 23.207 0 0 1 1.34 4.418c.152.754.265 1.516.34 2.285.074.766.113 1.535.113 2.309 0 .77-.04 1.539-.113 2.308a22.7 22.7 0 0 1-.34 2.286 23.13 23.13 0 0 1-1.34 4.414 22.874 22.874 0 0 1-2.176 4.074 23.468 23.468 0 0 1-4.636 5.117 23.517 23.517 0 0 1-3.836 2.566 23.61 23.61 0 0 1-6.504 2.328 23.692 23.692 0 0 1-4.595.454Zm0 0" fill="#ffffff" data-color="2"></path>
        <path d="M507.875 566.094H256.801c-.77 0-1.54-.04-2.309-.114a23.44 23.44 0 0 1-4.523-.902 22.513 22.513 0 0 1-2.176-.777 24.85 24.85 0 0 1-2.09-.989 22.78 22.78 0 0 1-1.98-1.187 24.645 24.645 0 0 1-1.856-1.375 24.757 24.757 0 0 1-1.71-1.555 23.469 23.469 0 0 1-4.113-5.55 23.102 23.102 0 0 1-1.767-4.262 23.226 23.226 0 0 1-.562-2.242 25.179 25.179 0 0 1-.34-2.286 24.111 24.111 0 0 1-.113-2.308c0-.77.039-1.54.113-2.309.078-.765.191-1.527.34-2.285a23.25 23.25 0 0 1 .562-2.242 23.421 23.421 0 0 1 2.953-6.246 22.77 22.77 0 0 1 1.375-1.856 23.024 23.024 0 0 1 1.551-1.71 24.757 24.757 0 0 1 1.711-1.555 24.481 24.481 0 0 1 1.856-1.375c.64-.43 1.3-.824 1.98-1.188a23.686 23.686 0 0 1 4.266-1.765 22.325 22.325 0 0 1 2.238-.563 22.7 22.7 0 0 1 2.285-.34c.77-.074 1.54-.113 2.309-.113h251.074c.77 0 1.54.04 2.305.113.77.074 1.53.188 2.285.34.758.149 1.504.336 2.242.563.738.222 1.461.48 2.172.777.715.293 1.41.625 2.09.988a23.723 23.723 0 0 1 3.836 2.563 23.075 23.075 0 0 1 1.71 1.554 23.075 23.075 0 0 1 2.93 3.567c.426.64.825 1.3 1.188 1.98.363.684.691 1.38.988 2.09a23.869 23.869 0 0 1 1.34 4.418 23.862 23.862 0 0 1 .45 4.594 23.862 23.862 0 0 1-.45 4.594 24.43 24.43 0 0 1-.563 2.242c-.222.738-.484 1.46-.777 2.176-.297.71-.625 1.406-.988 2.086a23.564 23.564 0 0 1-2.563 3.84 23.075 23.075 0 0 1-1.554 1.71 23.075 23.075 0 0 1-3.567 2.93c-.64.43-1.3.824-1.98 1.188a23.746 23.746 0 0 1-4.262 1.765 23.514 23.514 0 0 1-6.832 1.016Zm0 0" fill="#ffffff" data-color="2"></path>
        <path d="M476.488 110.86h-11.11a86.037 86.037 0 0 0-4.874-13.079 87.002 87.002 0 0 0-3.211-6.203 86.778 86.778 0 0 0-7.875-11.523 85.33 85.33 0 0 0-4.613-5.246 85.324 85.324 0 0 0-10.41-9.293 86.337 86.337 0 0 0-11.778-7.493 86.509 86.509 0 0 0-19.531-7.45 86.61 86.61 0 0 0-13.774-2.249 86.557 86.557 0 0 0-13.953 0 86.705 86.705 0 0 0-13.773 2.25 86.509 86.509 0 0 0-25.57 10.957 86.258 86.258 0 0 0-16.149 13.278 85.268 85.268 0 0 0-4.61 5.246 88.226 88.226 0 0 0-4.171 5.601 88.284 88.284 0 0 0-3.703 5.922 85.462 85.462 0 0 0-3.215 6.203 86.888 86.888 0 0 0-2.7 6.442 86.068 86.068 0 0 0-2.175 6.636h-11.11c-1.796.004-3.59.094-5.378.27a54.614 54.614 0 0 0-10.555 2.113 55.194 55.194 0 0 0-5.074 1.817 55.952 55.952 0 0 0-4.867 2.308 55.108 55.108 0 0 0-8.95 5.984 54.709 54.709 0 0 0-3.992 3.622 55.107 55.107 0 0 0-9.602 12.941 54.872 54.872 0 0 0-2.304 4.871 54.896 54.896 0 0 0-4.2 21.016c.005 1.8.094 3.594.27 5.387a55.625 55.625 0 0 0 2.11 10.558 54.415 54.415 0 0 0 1.82 5.07 54.358 54.358 0 0 0 2.305 4.871 55.107 55.107 0 0 0 13.594 16.566 55.107 55.107 0 0 0 13.816 8.294 55.805 55.805 0 0 0 10.297 3.133c1.765.351 3.543.617 5.332.793 1.789.18 3.582.27 5.379.273h188.304a55.248 55.248 0 0 0 5.383-.273 54.407 54.407 0 0 0 10.555-2.11 55.535 55.535 0 0 0 5.07-1.816 56.025 56.025 0 0 0 4.871-2.309 54.778 54.778 0 0 0 4.621-2.773c1.492-1 2.938-2.07 4.328-3.211a55.53 55.53 0 0 0 3.993-3.621 55.107 55.107 0 0 0 6.828-8.32 54.56 54.56 0 0 0 2.77-4.625 54.391 54.391 0 0 0 2.308-4.872 54.747 54.747 0 0 0 3.129-10.3c.355-1.762.62-3.54.797-5.329a53.947 53.947 0 0 0 0-10.769 53.263 53.263 0 0 0-.797-5.328 54.747 54.747 0 0 0-1.313-5.23 56.034 56.034 0 0 0-1.816-5.075 54.906 54.906 0 0 0-2.309-4.87 54.737 54.737 0 0 0-5.98-8.95 54.74 54.74 0 0 0-3.617-3.992 55.53 55.53 0 0 0-3.993-3.621 55.846 55.846 0 0 0-4.328-3.211 54.778 54.778 0 0 0-4.62-2.774 56.025 56.025 0 0 0-4.872-2.308 55.535 55.535 0 0 0-10.297-3.133 55.625 55.625 0 0 0-5.328-.797 56.245 56.245 0 0 0-5.383-.27Zm0 0" fill="#ffc545" data-color="3"></path>
    </g>
</svg>