<svg preserveAspectRatio="none" data-bbox="20 20 160 160" viewBox="20 20 160 160" height="100%" width="100%" xmlns="http://www.w3.org/2000/svg" data-type="shape" role="presentation" aria-hidden="true" aria-label="">
    <g>
        <path d="M100 20c-44.182 0-80 35.817-80 80s35.818 80 80 80c44.184 0 80-35.817 80-80s-35.816-80-80-80zm34.745 91.021a4.703 4.703 0 0 1-3.562 1.627 4.7 4.7 0 0 1-3.079-1.144l-28.102-24.297-28.107 24.297a4.712 4.712 0 0 1-6.641-.483 4.713 4.713 0 0 1 .483-6.641l31.186-26.958a4.714 4.714 0 0 1 6.158 0l31.181 26.958a4.707 4.707 0 0 1 .483 6.641z" fill="rgb(1, 34, 65)"></path>
    </g>
</svg>